<svg version="1.1" id="Layer_1" xmlns="http://www.w3.org/2000/svg" xmlns:xlink="http://www.w3.org/1999/xlink" x="0px" y="0px"
	 width="100%" viewBox="0 0 1024 1024" enable-background="new 0 0 1024 1024" xml:space="preserve">
<path fill="#000000" opacity="1.000000" stroke="none" 
	d="
M821.190918,604.026917 
	C803.173462,642.197205 780.070984,676.502625 750.880920,706.465820 
	C698.385681,760.351624 635.548218,795.453613 561.301208,809.485352 
	C537.660034,813.953186 513.827759,816.011169 489.809631,815.231750 
	C449.990906,813.939636 411.702637,805.551514 374.915161,790.093140 
	C352.427368,780.643677 330.620514,769.853455 310.161163,756.662598 
	C267.710327,729.292908 232.978470,694.040466 205.011917,651.968689 
	C174.173065,605.576050 154.870850,554.725037 146.065323,499.909241 
	C140.388672,464.571198 139.563446,428.993591 143.712570,393.368042 
	C147.955795,356.934509 157.258102,321.870453 171.208221,287.927277 
	C193.146988,234.546158 226.169769,189.052811 269.041809,150.801544 
	C298.192535,124.792671 330.788727,104.022202 367.432556,89.673340 
	C388.876251,81.276497 410.543579,73.714478 432.813934,68.039383 
	C451.213165,63.350773 469.974701,60.712704 489.005310,59.493164 
	C518.957214,57.573757 548.615845,59.273571 577.948547,65.301826 
	C626.967773,75.375946 670.818237,96.885117 710.162964,127.458595 
	C780.950500,182.465256 825.804993,254.320328 847.279053,341.053772 
	C856.539185,378.455292 860.007141,416.517853 858.057129,454.918579 
	C855.510254,505.073853 844.281982,553.299622 823.334229,599.104370 
	C822.642334,600.617371 822.005920,602.155762 821.190918,604.026917 
M685.123108,185.401627 
	C672.065674,173.907547 657.691833,164.344833 642.662415,155.609131 
	C603.311584,132.736786 560.692261,120.727661 515.568604,117.546745 
	C483.053009,115.254608 451.178192,120.049469 419.755951,128.434341 
	C386.200470,137.388489 356.545959,153.662415 329.446838,175.117508 
	C293.280853,203.751099 263.931915,238.052872 242.760223,279.081055 
	C223.201523,316.983337 210.558563,356.996185 205.749207,399.585785 
	C202.190018,431.104218 202.774094,462.422668 207.558273,493.610321 
	C214.373093,538.035645 229.356018,579.665894 252.817764,618.110840 
	C276.147644,656.339722 305.691681,688.770691 343.479431,713.111694 
	C404.148346,752.191650 470.523865,764.270630 541.420044,753.613098 
	C573.364929,748.810913 603.519897,738.249023 631.721191,722.747437 
	C672.457520,700.355530 706.482178,669.945312 733.982483,632.511169 
	C761.656067,594.841125 780.538391,552.952026 790.775818,507.367523 
	C796.884155,480.168732 798.999939,452.503326 798.066284,424.580933 
	C797.358154,403.403656 795.657471,382.338959 791.031921,361.675354 
	C785.381836,336.434631 777.109131,312.012787 765.918884,288.625305 
	C746.707458,248.473557 719.739380,214.397339 685.123108,185.401627 
M845.056152,431.425232 
	C845.040039,425.769226 845.420044,420.078400 844.927063,414.464264 
	C843.833008,402.004730 840.406311,390.293488 831.985779,380.598938 
	C830.856262,379.298553 829.608704,377.173584 827.597778,377.860962 
	C825.189697,378.684021 825.114441,381.268890 825.206299,383.412079 
	C825.583740,392.210846 825.979980,401.012268 826.601196,409.796295 
	C827.753174,426.083313 827.645996,442.359070 826.643738,458.644226 
	C826.102539,467.437531 825.489746,476.232300 825.254700,485.035645 
	C825.160950,488.548615 825.150696,492.325104 827.945984,495.431366 
	C830.942871,494.418945 831.814148,491.924683 833.046875,489.587189 
	C842.503235,471.656708 843.111084,451.894043 845.056152,431.425232 
z"/>
<path fill="#000000" opacity="1.000000" stroke="none" 
	d="
M528.116638,874.499878 
	C535.814636,844.058899 568.994446,840.852478 586.639648,852.774719 
	C593.100647,857.140137 596.934937,863.316223 597.397400,871.304626 
	C589.312500,873.456360 587.634033,872.826721 583.782898,866.476807 
	C575.452209,852.740845 552.149719,852.985291 544.191406,867.432129 
	C536.647522,881.126587 536.689026,895.576538 544.120728,909.456421 
	C548.604919,917.831299 558.461670,921.963379 567.506409,920.264465 
	C578.378052,918.222473 583.485718,913.140869 585.433777,902.428162 
	C586.577637,896.137512 585.657837,895.005920 579.372864,894.982056 
	C575.376709,894.966797 571.379395,894.893677 567.384644,894.961731 
	C563.413696,895.029358 562.860168,892.641357 562.875061,889.398926 
	C562.890015,886.133179 563.924683,884.533875 567.512329,884.609375 
	C575.834412,884.784607 584.165710,884.795288 592.487000,884.602112 
	C596.156616,884.516968 597.456848,885.797974 597.402832,889.492004 
	C597.232361,901.145630 597.322327,912.803162 597.344666,924.459229 
	C597.349670,927.106201 597.385010,929.486938 593.581177,929.392761 
	C590.397339,929.313904 587.403687,929.533020 587.530823,924.991150 
	C587.556152,924.085571 586.937012,923.161987 586.375305,921.565369 
	C579.555420,927.760742 571.890625,930.513062 563.004089,930.427429 
	C544.507751,930.249207 531.653137,920.194946 527.782593,902.108826 
	C525.846924,893.063782 526.037231,883.949341 528.116638,874.499878 
z"/>
<path fill="#000000" opacity="1.000000" stroke="none" 
	d="
M226.741623,929.333252 
	C223.865265,929.154846 221.329208,929.926575 218.833328,928.589966 
	C218.852646,924.110657 221.163132,920.328064 222.568848,916.315491 
	C229.989319,895.134033 237.588547,874.015015 244.962219,852.817444 
	C246.215988,849.213196 247.815735,847.077881 252.016083,847.595215 
	C256.179474,848.108093 260.715332,846.177063 262.937408,852.416931 
	C271.525299,876.532837 280.593689,900.477600 289.484619,924.485596 
	C289.996033,925.866516 290.740387,927.220276 289.921448,928.870361 
	C287.021881,929.819763 284.023163,929.205505 281.071930,929.303589 
	C278.744537,929.380981 278.060394,927.706421 277.397034,925.903320 
	C275.387604,920.441406 273.190399,915.045532 271.304321,909.542419 
	C270.310211,906.641785 268.852051,905.223083 265.562134,905.315308 
	C258.078400,905.525208 250.581985,905.491638 243.096039,905.321777 
	C239.775818,905.246460 237.875916,906.354431 236.836777,909.626282 
	C235.126724,915.010498 233.061829,920.282837 231.115494,925.590942 
	C230.428986,927.463318 229.851303,929.513367 226.741623,929.333252 
M260.007629,895.074158 
	C261.921417,894.767883 263.940063,895.715942 266.244232,894.442749 
	C262.218231,883.128723 258.197632,871.829956 253.684509,859.147034 
	C249.449310,871.878784 245.710190,883.119263 241.731522,895.079895 
	C248.219757,895.079895 253.669769,895.079895 260.007629,895.074158 
z"/>
<path fill="#000000" opacity="1.000000" stroke="none" 
	d="
M781.723145,924.735168 
	C777.334045,927.265808 773.213745,929.943420 767.995361,930.330322 
	C752.697388,931.464355 741.546509,922.429321 739.769653,907.125122 
	C739.175171,902.004761 739.159485,896.834045 740.066162,891.725403 
	C743.606201,871.780884 762.581604,862.480957 781.948364,872.981506 
	C781.948364,864.985840 782.146851,857.438843 781.875000,849.908691 
	C781.707764,845.278076 783.074829,843.354370 788.051208,843.508057 
	C792.203308,843.636230 793.438721,844.958313 793.414917,849.031067 
	C793.269653,873.832031 793.377197,898.634399 793.298401,923.435913 
	C793.290955,925.779358 794.558899,929.212891 790.112549,929.317200 
	C786.555664,929.400635 782.491821,930.415771 781.723145,924.735168 
M772.181396,919.871765 
	C777.684326,918.347351 780.166138,914.032288 781.465454,909.072266 
	C783.077271,902.918823 783.262451,896.617676 781.931335,890.322754 
	C780.320923,882.706970 776.684937,879.055847 769.949463,878.406921 
	C761.997559,877.640808 756.180664,880.720093 753.319519,887.450195 
	C750.484192,894.119385 750.394836,901.125610 752.110413,907.985413 
	C754.686768,918.287292 760.744873,921.889954 772.181396,919.871765 
z"/>
<path fill="#000000" opacity="1.000000" stroke="none" 
	d="
M729.465820,889.978882 
	C730.937134,897.182190 730.912659,903.971313 729.009949,910.618347 
	C725.105957,924.257324 714.750305,931.052612 699.332703,930.343201 
	C687.868347,929.815674 678.263550,920.693604 675.649414,908.159302 
	C674.258484,901.489990 674.378601,894.939087 676.275146,888.438538 
	C680.239685,874.849487 689.668884,868.468872 705.348938,868.649902 
	C716.780762,868.781982 725.874878,876.694153 729.465820,889.978882 
M718.638672,904.898193 
	C718.642090,901.412598 718.891479,897.906311 718.600647,894.445496 
	C717.868591,885.735229 711.608521,878.859375 704.258972,878.366394 
	C695.259094,877.762756 689.538330,882.519531 687.150024,892.220581 
	C686.297485,895.683533 686.138245,899.134216 686.416077,902.591858 
	C687.334229,914.016479 694.489441,921.221924 704.164795,920.682617 
	C711.329102,920.283264 715.660706,915.794861 718.638672,904.898193 
z"/>
<path fill="#000000" opacity="1.000000" stroke="none" 
	d="
M661.605103,881.632812 
	C667.548950,894.413574 667.651062,906.783875 660.425049,918.623840 
	C654.076538,929.026245 643.936584,931.695251 632.653870,930.085083 
	C621.892212,928.549316 615.165649,921.688416 611.850525,911.549866 
	C609.134949,903.245178 609.285522,894.824097 612.174072,886.581787 
	C615.740479,876.405518 622.988525,870.184326 633.658142,868.831360 
	C645.238220,867.362976 655.119629,870.572998 661.605103,881.632812 
M652.529785,909.877563 
	C654.721191,903.921936 654.794495,897.819885 653.374695,891.742676 
	C651.447083,883.491699 645.912598,878.584839 638.703125,878.348816 
	C630.839111,878.091248 625.645813,881.747192 623.058411,889.592834 
	C620.857117,896.267395 620.780884,902.998901 623.338867,909.606934 
	C625.799744,915.964233 629.980408,920.344910 637.249329,920.692810 
	C644.722534,921.050537 649.481506,917.287109 652.529785,909.877563 
z"/>
<path fill="#000000" opacity="1.000000" stroke="none" 
	d="
M391.555847,890.976013 
	C394.307098,879.146790 400.959106,871.247559 412.667358,869.092346 
	C423.232269,867.147766 432.980438,869.376770 439.991547,878.456848 
	C448.879761,889.967773 448.475616,910.354492 439.046478,921.405212 
	C431.805328,929.891602 422.170135,931.850769 411.797699,929.765381 
	C401.151978,927.625183 394.751923,920.441956 391.927521,910.162292 
	C390.235382,904.003662 389.974854,897.691162 391.555847,890.976013 
M434.287720,893.353516 
	C434.011505,892.222229 433.792816,891.073242 433.449738,889.962585 
	C431.208954,882.708801 425.542175,878.317200 418.441376,878.295837 
	C410.839325,878.272949 405.919617,881.993103 403.474182,889.782837 
	C401.687897,895.472656 401.679047,901.289246 403.078003,907.026855 
	C405.249390,915.932495 410.767670,920.710144 418.486267,920.729858 
	C426.316406,920.749878 431.348236,916.187866 433.891693,907.083191 
	C435.090698,902.791077 434.592194,898.497681 434.287720,893.353516 
z"/>
<path fill="#000000" opacity="1.000000" stroke="none" 
	d="
M375.310669,918.970093 
	C375.311340,920.463379 375.316162,921.462341 375.310638,922.461243 
	C375.271545,929.532227 375.206635,929.404053 368.514343,929.434753 
	C364.710663,929.452209 363.662964,927.872375 363.697144,924.343506 
	C363.821320,911.525085 363.600922,898.702393 363.818268,885.886414 
	C363.894135,881.412842 363.368256,878.458679 357.830627,878.828186 
	C354.436066,879.054688 354.707764,876.189880 354.659424,873.817322 
	C354.609314,871.359924 355.090576,869.282959 358.130859,869.701050 
	C363.158691,870.392578 363.786377,867.712646 363.811768,863.541138 
	C363.880890,852.176147 367.924835,845.644714 375.844818,843.375000 
	C377.263397,842.968445 378.772614,842.754150 380.249603,842.695801 
	C389.456543,842.331848 389.812866,842.793152 387.936279,852.153137 
	C387.244263,852.890137 386.401123,852.513550 385.598358,852.476318 
	C377.663269,852.108337 371.965912,860.925110 375.621246,868.049988 
	C377.025055,870.786316 379.817169,869.671631 381.932526,869.559570 
	C386.158661,869.335571 387.532288,871.067383 387.270721,875.132446 
	C387.037170,878.762634 384.693542,878.856750 382.096375,879.003418 
	C375.309967,879.386719 375.305237,879.400024 375.303925,886.010376 
	C375.301727,896.832153 375.307526,907.653870 375.310669,918.970093 
z"/>
<path fill="#000000" opacity="1.000000" stroke="none" 
	d="
M302.663757,854.090393 
	C302.833527,848.327881 308.076263,845.469055 312.887299,847.966064 
	C314.417969,848.760559 314.287689,850.119934 314.289093,851.397522 
	C314.316620,876.061523 314.280090,900.725586 314.342010,925.389465 
	C314.355652,930.824097 310.393799,929.004150 307.595093,929.355591 
	C303.990936,929.808044 302.599792,928.319275 302.618469,924.570862 
	C302.734711,901.240601 302.668884,877.909363 302.663757,854.090393 
z"/>
<path fill="#000000" opacity="1.000000" stroke="none" 
	d="
M469.377197,928.436279 
	C468.272003,928.974121 467.474854,929.264832 466.663452,929.312256 
	C458.689850,929.779236 458.679230,929.767700 458.672913,921.659912 
	C458.661072,906.503052 458.596100,891.345581 458.721283,876.189819 
	C458.742706,873.600647 457.150299,869.876892 462.288452,869.612000 
	C468.652802,869.283936 469.224579,869.530334 470.144043,875.496033 
	C470.239868,876.117615 470.364136,876.734863 470.596039,878.027832 
	C474.460571,873.274902 478.794128,870.073303 484.352905,868.993103 
	C486.581848,868.559998 489.510712,867.810852 489.649506,871.399475 
	C489.771027,874.540833 491.712555,878.656067 486.515686,880.055725 
	C473.729248,883.499390 470.475616,887.836609 470.177917,901.152344 
	C469.977264,910.126709 470.813477,919.120605 469.377197,928.436279 
z"/>
<path fill="#000000" opacity="1.000000" stroke="none" 
	d="
M826.684753,848.148071 
	C826.565857,841.868896 830.943054,844.022888 833.814331,843.717468 
	C837.267212,843.350220 837.294067,845.801758 837.348999,848.276611 
	C837.529419,856.406494 837.067627,864.499084 836.345032,872.594421 
	C836.072510,875.647461 834.239319,875.948303 831.917175,875.960754 
	C829.521912,875.973572 827.888611,875.444946 827.607544,872.467407 
	C826.858459,864.531799 826.597656,856.591919 826.684753,848.148071 
z"/>
<path fill="#000000" opacity="1.000000" stroke="none" 
	d="
M217.234909,872.636047 
	C216.447845,876.653809 213.643494,875.943420 211.235580,875.863220 
	C208.548904,875.773804 208.075104,873.714355 208.031525,871.642456 
	C207.860214,863.498779 207.824417,855.352356 207.668686,847.208252 
	C207.585220,842.843140 210.768219,843.774292 213.266769,843.676453 
	C215.821548,843.576355 218.188126,843.436157 218.336929,847.292542 
	C218.658768,855.633850 217.159592,863.871765 217.234909,872.636047 
z"/>
<path fill="#000000" opacity="1.000000" stroke="none" 
	d="
M811.262451,875.833008 
	C809.343140,875.314514 808.779175,874.248169 808.722778,872.767700 
	C808.407043,864.487671 807.474426,856.245422 807.604309,847.929504 
	C807.670532,843.687683 810.029663,843.651367 813.090698,843.601685 
	C816.281067,843.549988 818.564575,843.863342 818.381226,848.034119 
	C818.046448,855.648010 818.358276,863.265930 817.619507,870.897400 
	C817.205139,875.177490 815.529785,876.440613 811.262451,875.833008 
z"/>
<path fill="#000000" opacity="1.000000" stroke="none" 
	d="
M199.306427,854.000488 
	C198.969604,860.433411 198.563660,866.374634 198.330887,872.322754 
	C198.218338,875.199463 196.606628,876.000854 194.126190,875.961792 
	C191.871170,875.926270 190.023132,875.774231 189.596405,872.705566 
	C188.403183,864.124512 188.724579,855.521545 188.711914,846.917053 
	C188.706009,842.911621 191.703430,843.711060 194.036118,843.673828 
	C196.446655,843.635376 199.316483,843.130066 199.264847,847.053650 
	C199.236511,849.205750 199.291245,851.358948 199.306427,854.000488 
z"/>
<path fill="#000000" opacity="1.000000" stroke="none" 
	d="
M528.000000,224.853134 
	C565.132507,225.788879 601.765686,226.696945 638.397095,227.667221 
	C646.409119,227.879425 651.155029,232.669189 652.273804,241.255936 
	C654.544983,258.686218 652.319641,275.844299 648.625732,292.801086 
	C639.371155,335.284302 619.470093,372.651672 593.106750,406.856659 
	C587.207214,414.510925 581.268616,422.106293 574.792236,429.299194 
	C568.943970,435.794556 569.556335,445.465912 575.574463,451.823578 
	C612.028931,490.334961 638.394897,534.414673 649.521423,586.779907 
	C652.541138,600.991821 653.871216,615.433838 653.063049,629.977417 
	C652.378784,642.293274 647.486816,646.704407 635.187988,647.316223 
	C599.111023,649.110840 563.055542,651.440186 526.962769,652.781494 
	C503.665649,653.647156 480.358765,654.317322 457.066833,655.374573 
	C443.093750,656.008850 429.123413,656.706787 415.148163,657.288147 
	C406.884796,657.631958 399.564270,653.917847 392.243622,651.005981 
	C386.714722,648.806763 386.060730,642.866089 385.574402,637.386047 
	C383.564819,614.742126 388.043732,592.944275 394.514099,571.509888 
	C406.706818,531.119202 428.525452,496.103516 455.496735,464.053467 
	C458.713654,460.230804 461.889771,456.373779 465.102448,452.547577 
	C472.121429,444.188202 471.875641,436.016052 464.483032,428.046783 
	C438.945099,400.516693 416.871216,370.565308 401.530365,336.095642 
	C388.802460,307.497070 380.964630,277.744171 381.877106,246.103043 
	C382.259827,232.833374 385.506500,229.191605 398.365936,225.626785 
	C413.339172,221.475998 428.485626,223.118912 443.571930,223.374954 
	C450.553040,223.493439 457.550995,223.722580 464.542084,223.841431 
	C485.527679,224.198257 506.513977,224.515274 528.000000,224.853134 
M455.992157,332.026581 
	C463.146637,331.724945 470.308197,331.049835 477.454376,331.185455 
	C510.775024,331.817749 544.096008,331.988251 577.420471,331.800812 
	C580.085876,331.785828 582.951782,331.181519 585.373962,331.952484 
	C589.970642,333.415527 591.582947,331.107971 593.089417,327.517456 
	C601.127930,308.359558 606.955383,288.665863 608.346863,267.802673 
	C608.804871,260.935242 607.704773,259.408875 600.878357,259.262329 
	C589.723511,259.022797 578.569519,258.743500 567.418152,258.431915 
	C521.627869,257.152496 475.821411,256.448700 430.020996,255.529953 
	C426.788635,255.465118 424.899872,256.710693 425.252441,260.263000 
	C425.761383,265.391602 425.999451,270.560760 426.785767,275.645721 
	C429.499084,293.192566 435.027374,309.878784 442.424042,325.997650 
	C446.132721,334.079681 445.979279,334.149231 454.132446,332.265076 
	C454.456299,332.190247 454.790253,332.159180 455.992157,332.026581 
M434.615234,621.812012 
	C464.547180,620.508972 494.478302,619.186462 524.411316,617.908691 
	C550.352722,616.801270 576.302185,615.867920 602.200562,613.915222 
	C608.538757,613.437378 609.130737,613.033813 608.857483,606.759033 
	C608.132263,590.106018 603.670166,574.231873 597.937866,558.747864 
	C587.041443,529.314514 570.172546,503.539825 549.041260,480.436310 
	C542.342224,473.112030 534.153931,466.957153 530.335938,457.281555 
	C529.644958,455.530457 527.998840,454.975006 526.325745,454.678253 
	C523.540161,454.184174 520.720947,453.872620 517.944580,453.335602 
	C513.887695,452.550873 511.255737,453.721466 510.076477,457.997986 
	C508.864899,462.391907 506.434967,466.172852 503.265442,469.489044 
	C485.110657,488.483887 469.339325,509.267059 456.823425,532.402161 
	C442.798676,558.326294 431.955414,585.384705 428.426880,614.946838 
	C427.748535,620.630005 428.264465,621.419189 434.615234,621.812012 
M547.626404,394.136993 
	C544.445068,397.886536 541.519226,401.793182 540.094360,406.666443 
	C546.974731,399.848267 553.192078,392.525604 558.664856,384.609650 
	C558.304504,384.299072 557.944092,383.988495 557.583679,383.677917 
	C554.427551,386.992340 551.271423,390.306793 547.626404,394.136993 
M496.767487,406.629486 
	C498.519684,406.329987 497.816528,404.994843 497.402679,404.389893 
	C492.480499,397.194855 486.244110,391.225281 479.600983,384.588226 
	C479.600983,385.950348 479.464935,386.380676 479.620667,386.566620 
	C485.158325,393.178589 490.723297,399.767670 496.767487,406.629486 
z"/>
<path fill="#000000" opacity="1.000000" stroke="none" 
	d="
M473.214417,662.004517 
	C518.579529,659.707703 563.468994,657.399170 608.362854,655.177063 
	C618.996033,654.650757 629.654419,654.762024 640.271484,653.726624 
	C650.289246,652.749695 659.404907,656.458191 668.088745,660.521240 
	C676.736511,664.567383 675.338989,673.248169 674.850220,680.790710 
	C674.371521,688.178650 670.494629,692.546875 663.688110,693.539001 
	C657.122559,694.495972 650.447449,694.766663 643.809570,695.150635 
	C618.713196,696.602356 593.610168,697.937378 568.513977,699.391479 
	C537.432190,701.192383 506.357697,703.118408 475.274536,704.893860 
	C454.838898,706.061218 434.393890,707.065369 413.952301,708.127625 
	C406.971130,708.490479 399.990143,708.880493 393.004486,709.128296 
	C383.628601,709.460754 376.409607,703.818604 368.621704,699.915955 
	C366.246399,698.725525 365.218262,695.802856 364.786896,693.130798 
	C364.338379,690.352295 364.110962,687.508057 364.109833,684.692505 
	C364.104706,671.939575 368.817780,667.415771 381.507507,666.806885 
	C411.924927,665.347229 442.330231,663.634705 473.214417,662.004517 
z"/>
<path fill="#000000" opacity="1.000000" stroke="none" 
	d="
M447.950745,214.222885 
	C424.653992,213.845413 401.849304,213.497330 379.045593,213.091904 
	C365.956482,212.859192 361.938507,208.713379 361.816650,195.507050 
	C361.703827,183.284576 363.784332,181.545868 374.827972,176.851273 
	C388.244629,171.147934 402.009338,172.395172 415.657898,173.199463 
	C429.124115,173.992996 442.595612,173.753433 456.063049,174.541473 
	C476.152222,175.716965 496.326263,175.359238 516.455261,175.954941 
	C556.719727,177.146561 596.979614,178.441956 637.257385,179.186295 
	C644.886963,179.327286 652.543274,179.846756 660.194885,180.088242 
	C669.634521,180.386169 674.130798,184.947571 674.538879,194.336044 
	C674.625366,196.325363 674.464722,198.326630 674.392883,200.321472 
	C674.014160,210.836517 670.593140,213.710770 660.255188,216.061295 
	C633.621399,222.117004 606.912354,217.157852 580.251343,217.496979 
	C578.589233,217.518143 576.925598,217.321762 575.261475,217.292068 
	C551.622498,216.870010 527.980835,216.565857 504.344971,216.011902 
	C485.707336,215.575104 467.076874,214.834106 447.950745,214.222885 
z"/>
<path fill="#000000" opacity="1.000000" stroke="none" 
	d="
M597.233154,576.055908 
	C598.396545,582.880310 599.415100,589.308533 599.032654,595.827332 
	C598.717346,601.201721 596.844849,603.087952 591.621582,603.229431 
	C547.833984,604.415222 504.095612,607.162048 460.277740,607.372253 
	C457.281555,607.386658 454.333038,607.253052 451.355835,606.576172 
	C439.585388,603.900269 438.366486,601.564636 439.046936,589.380188 
	C440.485992,563.610962 451.986694,542.136292 466.878967,522.100952 
	C477.150146,508.282593 489.339203,496.179504 502.399445,484.972168 
	C510.229004,478.253387 524.829895,477.126526 532.899963,483.633545 
	C563.175659,508.045197 587.813538,536.538452 597.233154,576.055908 
z"/>
</svg>