<svg xmlns="http://www.w3.org/2000/svg" viewBox="0 0 500 500"><path fill="#010101" d="M0 0h500v500H0z"/><path d="M0 0h500v500H0zm215 36-2.03.292c-8.453 1.28-16.628 3.33-24.845 5.645l-2.593.73c-51.466 14.995-96.45 53.242-122.404 99.634-20.281 37.076-35.722 88.839-24.163 131.238L40 277q.627 3.463 1.188 6.938C43.994 299.785 48.475 315.737 56 330q1.143 2.253 2.281 4.508c9.42 18.46 20.498 35.117 34.688 50.25C95 387 95 387 97 390h2l.734 1.746C111.054 411.905 145.603 428.62 166 437c.634.26 1.268.52 1.92.79 13.687 5.527 27.646 9.199 42.08 12.21l2.58.548c51.64 10.55 107.175-4.22 150.662-32.67C375.047 409.939 385.66 400.732 396 391l1.996-1.867C424.981 363.083 443.047 327.085 452 291l.902-3.61c6.188-26.72 6.9-57.518 1.098-84.39l-.57-2.695C444.916 161.4 425.412 126.665 398 98l-2.648-2.809c-6.442-6.658-13.323-12.397-20.718-17.958a332 332 0 0 1-4.302-3.315C346.35 55.662 318.092 44.886 289 38l-2.01-.484c-9.964-2.357-19.793-3.27-29.99-3.516l-2.69-.066c-13.234-.274-26.203.172-39.31 2.066"/><path fill="#d2d2d2" d="m257 34 2.334.022c50.162.68 99.739 26.032 135.035 60.398a288 288 0 0 0 4.334 4.092C410.374 109.599 419.76 123.225 428 137l1.14 1.9c5.763 9.709 10.638 19.632 14.86 30.1l1.332 3.238c2.907 7.559 4.924 15.281 6.856 23.137l.758 3.04c3.36 14.169 4.438 28.137 4.366 42.648l-.004 2.294c-.046 13.055-.888 25.79-3.308 38.643l-.422 2.266c-.967 4.979-2.186 9.858-3.578 14.734l-.67 2.362C433.986 354.028 397.595 399.004 350 426c-5.265 2.808-10.619 5.425-16 8l-2.418 1.18c-7.598 3.556-15.654 6.109-23.582 8.82l-2.225.779C275.994 455.028 240.643 456.507 210 450l-2.963-.618C177.51 443.086 147.811 432.056 124 413a1285 1285 0 0 0-3.375-2.582C113.144 404.678 105.539 398.819 99 392v-2l-3-1c-17.992-16.965-31.685-40.782-42-63l-1.16-2.422c-6.703-14.913-10.893-31.28-13.332-47.41-.422-3.181-.422-3.181-1.508-6.168-4.974-50.91 5.36-103.207 36-145l2.066-2.887c22.406-30.663 52.17-56.033 87.434-70.66a169 169 0 0 0 8-3.578C198.253 36.041 228.166 33.568 257 34m-59.812 40.313c-.978.305-1.955.61-2.962.926A139 139 0 0 0 173 84a749 749 0 0 1-3.773 1.766C159.096 90.54 149.994 96.34 141 103l-2.852 2.105C124.868 115.478 112.478 128.06 103 142l-1.432 2.1c-17.935 26.638-30.571 57.414-30.771 89.959l-.017 2.265q-.015 2.362-.02 4.727c-.01 2.35-.04 4.699-.073 7.049C70.614 258.716 71.8 268.623 74 279l.554 2.741c9.243 43.56 38.6 84.219 75.558 108.524 40.723 26.26 88.3 35.604 135.97 25.315C306.363 410.836 325.553 402.3 343 391l1.955-1.265c8.605-5.666 16.227-12.19 23.617-19.354a320 320 0 0 1 3.854-3.65c23.654-22.646 39.363-53.047 47.041-84.56q.524-2.135 1.077-4.263C428.68 246.57 423.731 214.304 414 184h-2l-.5-3.5c-4.34-19.437-19.26-38.993-32.41-53.223a144 144 0 0 1-5.152-5.965c-3.293-3.86-7.037-7.081-10.938-10.312l-2.277-1.902C350.798 100.975 340.435 93.826 329 88l-3.375-1.746A517 517 0 0 0 315 81l-2.855-1.379C302.805 75.42 292.962 73.194 283 71l-2.163-.51c-11.692-2.69-23.46-2.801-35.4-2.865l-2.352-.024c-15.769-.124-30.838 1.908-45.898 6.712"/><path fill="#030303" d="m185.572 129.499 3.437-.03 3.758.03 3.968-.017c3.589-.014 7.177-.003 10.766.014 3.758.013 7.515.007 11.272.003q9.467-.002 18.932.034c7.293.027 14.585.029 21.878.017q10.527-.014 21.054.01 4.478.008 8.955 0c4.17-.005 8.34.014 12.511.036l3.752-.014 3.446.03 2.987.008c3.233.453 5.115 1.422 7.712 3.38 6.258 18.773-3.097 44.479-11.434 61.267-6.63 12.8-14.816 24.098-24.629 34.647a118 118 0 0 0-4.812 5.523C277 237 277 237 275.187 238.437c-2.016 2.654-1.416 5.363-1.187 8.563.647 3.09.647 3.09 2.882 4.003L279 252c1.489 1.366 1.489 1.366 2.883 2.95l1.583 1.796 1.659 1.941 1.737 2.028C303.827 280.875 314.013 303.47 320 329l.533 1.94c.859 3.788.777 7.627.842 11.497l.113 2.565.035 2.494.06 2.256c-.68 2.625-1.73 4.299-3.695 6.172-4.396 2.505-9.967 1.753-14.877 1.707q-2.001.008-4.002.022c-3.616.018-7.23.005-10.847-.014-3.785-.017-7.571-.008-11.357-.003-6.356.005-12.712-.011-19.068-.04a3285 3285 0 0 0-22.043-.014c-7.07.016-14.141.01-21.212-.008q-4.513-.01-9.025.002c-4.2.009-8.398-.015-12.598-.043l-3.786.02-3.463-.038-3.008-.009c-3.363-.654-4.55-1.801-6.602-4.506-.382-3.044-.522-5.654-.438-8.688l.05-2.562c1.054-34.422 18.956-65.373 42.388-89.75l2.187-2.016c1.953-2.137 2.554-3.131 2.813-5.984-.264-5.615-3.95-8.428-7.812-12.005-20.573-19.175-38.483-50.179-39.622-78.714q-.025-3.39-.004-6.781l-.06-3.492.002-3.352-.006-3.006c1.075-5.675 4.703-7.15 10.074-7.151"/><path fill="#ddd" d="m185.572 129.499 3.437-.03 3.758.03 3.968-.017c3.589-.014 7.177-.003 10.766.014 3.758.013 7.515.007 11.272.003q9.467-.002 18.932.034c7.293.027 14.585.029 21.878.017q10.527-.014 21.054.01 4.478.008 8.955 0c4.17-.005 8.34.014 12.511.036l3.752-.014 3.446.03 2.987.008c3.233.453 5.115 1.422 7.712 3.38 6.258 18.773-3.097 44.479-11.434 61.267-6.63 12.8-14.816 24.098-24.629 34.647a118 118 0 0 0-4.812 5.523C277 237 277 237 275.187 238.437c-2.016 2.654-1.416 5.363-1.187 8.563.647 3.09.647 3.09 2.882 4.003L279 252c1.489 1.366 1.489 1.366 2.883 2.95l1.583 1.796 1.659 1.941 1.737 2.028C303.827 280.875 314.013 303.47 320 329l.533 1.94c.859 3.788.777 7.627.842 11.497l.113 2.565.035 2.494.06 2.256c-.68 2.625-1.73 4.299-3.695 6.172-4.396 2.505-9.967 1.753-14.877 1.707q-2.001.008-4.002.022c-3.616.018-7.23.005-10.847-.014-3.785-.017-7.571-.008-11.357-.003-6.356.005-12.712-.011-19.068-.04a3285 3285 0 0 0-22.043-.014c-7.07.016-14.141.01-21.212-.008q-4.513-.01-9.025.002c-4.2.009-8.398-.015-12.598-.043l-3.786.02-3.463-.038-3.008-.009c-3.363-.654-4.55-1.801-6.602-4.506-.382-3.044-.522-5.654-.438-8.688l.05-2.562c1.054-34.422 18.956-65.373 42.388-89.75l2.187-2.016c1.953-2.137 2.554-3.131 2.813-5.984-.264-5.615-3.95-8.428-7.812-12.005-20.573-19.175-38.483-50.179-39.622-78.714q-.025-3.39-.004-6.781l-.06-3.492.002-3.352-.006-3.006c1.075-5.675 4.703-7.15 10.074-7.151M192 148c0 7.976.18 13.428 2.5 20.687l.807 2.596c6.899 21.274 19.8 38.341 34.693 54.717 4.93 5.488 7.144 8.73 7.187 16.25l.043 3.328c-.47 6.98-2.04 10.844-7.23 15.547-14.603 13.828-26.497 32.194-33.125 51.187l-.784 2.24C193.273 322.826 192 330.227 192 339h112c0-7.118-.186-12.488-2-19.125l-.667-2.471c-2.397-8.368-6.027-15.868-10.333-23.404l-1.977-3.46c-6.464-10.843-13.613-20.747-22.95-29.269-4.6-4.327-6.764-8.531-7.471-14.806l.023-3.528-.023-3.535c.762-6.512 3.774-10.102 8.46-14.465C280.202 212.257 291.288 196 298 179l1.113-2.8c3.744-9.844 4.887-17.358 4.887-28.2z"/><path fill="#ccc" d="m173.147 361.84 1.968-.016c2.192-.016 4.383-.024 6.575-.033l4.695-.03q7.733-.043 15.467-.07l2.656-.01q12.397-.047 24.796-.074a7037 7037 0 0 0 31.732-.133c7.434-.048 14.867-.072 22.3-.08a1702 1702 0 0 0 13.323-.059q6.271-.054 12.543-.032 2.3 0 4.597-.032c13.01-.172 13.01-.172 17.605 3.648 3.061 3.238 3.767 5.516 3.846 9.956l.078 2.617c-.395 3.018-1.235 4.327-3.328 6.508-3.382 1.127-5.955 1.134-9.522 1.147l-2.016.011q-3.351.015-6.702.019l-4.8.02q-6.524.025-13.047.036l-8.148.018q-12.74.029-25.481.041-14.718.015-29.436.077-11.37.044-22.741.048c-4.53.002-9.06.011-13.589.036q-6.389.035-12.777.018-2.346 0-4.692.02c-2.134.017-4.266.01-6.4-.003l-3.62.007c-3.65-.596-4.826-1.574-7.029-4.495-.997-5.261-1.109-11.101 1.938-15.688 3.302-3.702 4.131-3.443 9.21-3.473"/><path fill="#dcdcdc" d="m171.756 102.492 2.056-.019c2.273-.016 4.544-.003 6.817.01q2.444-.009 4.889-.022c4.425-.018 8.85-.011 13.276.002 4.63.01 9.259 0 13.888-.006q11.662-.01 23.323.022c8.99.021 17.982.014 26.973-.008q11.574-.026 23.149-.01c4.61.006 9.22.007 13.83-.006q6.5-.017 13.001.02 2.387.007 4.775-.006c2.17-.01 4.34.003 6.51.023l3.683.005c3.67.6 4.845 1.582 7.074 4.503 1.01 4.155.825 8.308-1.059 12.172-1.711 2.458-3.228 4.471-5.941 5.828-2.092.105-4.187.144-6.281.154l-1.974.013q-3.29.019-6.58.026l-4.706.025c-5.16.026-10.319.041-15.479.055l-5.324.017q-11.073.033-22.145.051-15.879.023-31.758.107a4974 4974 0 0 1-22.319.063c-4.445.004-8.89.016-13.335.048q-6.273.044-12.546.025-2.303 0-4.604.025c-2.096.023-4.19.015-6.287-.001l-3.554.01c-4.038-.803-5.507-2.506-8.108-5.618-1.82-2.867-2.317-5.118-2.375-8.5l-.086-2.281c1.26-6.07 5.753-6.72 11.217-6.727"/><path fill="#d3d3d3" d="M247 284c2.878.332 3.868.853 5.832 3.047l1.98 2.703c6.484 8.244 14.586 14.635 22.649 21.277 5.793 4.866 12.5 10.675 14.324 18.22L292 332c-1.789 1.789-4.201 1.12-6.582 1.124l-2.426-.01h-2.542c-2.787 0-5.574-.009-8.36-.016l-5.78-.005q-7.623-.006-15.245-.024-7.771-.014-15.544-.02-15.26-.016-30.521-.049c-.23-7.254 2.61-10.158 7.441-15.385 6.576-6.815 13.65-13.182 20.871-19.303 5.026-4.304 9.318-9.36 13.688-14.312"/><path fill="#e3e3e3" d="M216 191h65c1.165 5.824.565 6.737-2.3 11.488-4.933 7.29-10.706 13.603-17.012 19.7-4.42 4.28-7.427 8.057-9.688 13.812a236 236 0 0 1-2 4c-1.832-.152-1.832-.152-4-1-1.387-2.441-1.387-2.441-2.687-5.562-2.643-5.7-5.639-9.07-10.555-12.915L231 219v-2h-2c-1.904-2.148-3.68-4.3-5.437-6.562l-1.487-1.846c-3.148-4.015-5.49-7.72-7.076-12.592z"/><path fill="#e8e8e8" d="M264.815 362.974c10.615-.095 21.23-.17 31.845-.206q4.334-.016 8.669-.051c3.973-.032 7.947-.04 11.921-.045l3.519-.037 3.184.009 2.755-.011c2.761.442 3.656 1.13 5.292 3.367.25 2.625.25 2.625 0 5-1.627 1.627-3.53 1.132-5.71 1.139l-2.165-.014-2.312-.008c-8.794-.066-17.585-.313-26.375-.555l-2.22-.059c-7.774-.21-15.528-.502-23.288-1.01-9.987-.64-19.982-.736-29.986-.882-17.224-.258-34.338-.703-51.503-2.209-5.486-.466-10.938-.493-16.441-.402l-1-3c31.271-.395 62.542-.742 93.815-1.026"/><path fill="#e9e9e9" d="M247 284c2.878.332 3.868.853 5.832 3.047l1.98 2.703c6.484 8.244 14.586 14.635 22.649 21.277 6.765 5.683 13.598 11.84 14.539 20.973h-5l-1-2c-1.847-.958-3.7-1.906-5.574-2.809-3.534-1.735-6.965-3.647-10.414-5.543-4.34-2.375-8.704-4.703-13.067-7.035-5.803-3.179-5.803-3.179-7.945-4.613v-2h-5v-2l-3-1c.75-7.75.75-7.75 3-10 1.704-3.609 2.45-7.058 3-11"/><path fill="#ececec" d="M189 116c78.11-.392 78.11-.392 106.688.875l2.826.12c9.623.418 19.024 1.07 28.486 3.005v1q-19.927.035-39.856.052-9.259.007-18.517.023c-53.153.097-53.153.097-78.627-1.075z"/><path fill="#c7c7c7" d="M164 121q26.247-.035 52.495-.052 12.187-.007 24.374-.023 10.623-.015 21.247-.02 5.625 0 11.248-.01c4.188-.009 8.375-.009 12.562-.009l3.76-.01 3.467.004 3-.003c3.017.13 5.881.569 8.847 1.123v1l-6 1v1q-25.516.141-51.034.207-11.847.028-23.695.095-10.325.06-20.651.074c-3.646.006-7.291.018-10.936.047-4.069.032-8.136.033-12.205.031l-3.668.044-3.357-.017-2.916.011c-3.243-.629-4.446-2.008-6.538-4.492"/><path fill="#e6e6e6" d="M205 197c1.813.207 1.813.207 4 1 1.5 2.012 1.5 2.012 3 4.688 5.442 8.996 12.483 17.038 20.063 24.312 4.84 4.793 6.11 8.626 6.25 15.438-.023 6.34-.582 11.512-4.774 16.476l-2.914 2.711c-4.093 3.841-4.093 3.841-7.664 8.148-2.284 2.594-3.578 2.945-6.961 3.227 2.938-6.364 6.258-12.053 10.45-17.676 3.49-5.23 4.535-10.144 3.55-16.324-2.022-5.072-5.04-9.275-8.629-13.367-4.816-5.736-8.81-12.187-12.809-18.508l-2.058-3.242C205 201 205 201 205 197"/><path fill="#ddd" d="M264.818 362.974c10.632-.095 21.264-.17 31.897-.206q4.345-.016 8.689-.051c3.981-.032 7.962-.04 11.944-.045l3.534-.037 3.185.009 2.761-.011c.717.12 1.434.242 2.172.367l2 3-1.993.013q-23.985.155-47.97.326-11.6.085-23.199.158-10.107.065-20.214.14-5.353.04-10.707.072-5.97.036-11.94.086l-3.605.017-3.272.03-2.855.02c-2.282-.007-2.282-.007-4.245 1.138a128 128 0 0 1-6.25-.086l-3.781-.133-3.969-.156-3.969-.133c-9.774-.363-9.774-.363-12.031-1.492v-2c31.272-.395 62.544-.742 93.818-1.026"/><path fill="#aaa" d="M203 145h104c0 5.72-.115 9.594-1.375 14.938l-.773 3.402L304 166l-2 1 2-19H192l-1 4v-5h12z"/><path fill="#dbdbdb" d="m304 333 2 1v7l-3.621-.035q-2.409-.015-4.817-.027l-2.373-.026-2.373-.01-2.142-.016c-2.866.082-2.866.082-6.45.614-7.181.828-14.416.623-21.634.598l-4.737-.005q-6.192-.006-12.384-.024-6.335-.014-12.67-.02-12.4-.016-24.799-.049v-1l-16-1v-1h112z"/><path fill="#e7e7e7" d="M318 136h3c.49 14.678-.8 28.135-6 42-2.64-3.96-1.757-6.549-1-11 1.395-8.314 2.326-16.472 2.754-24.883C317 139 317 139 318 136"/><path fill="#a9a9a9" d="m304 333 2 1v7l-114-1v-1h112z"/><path fill="#b8b8b8" d="M265 145h42c0 5.72-.115 9.594-1.375 14.938l-.773 3.402L304 166l-2 1c.777-6.73 1.882-13.293 3-20h-40z"/><path fill="#d8d8d8" d="M299 121h33c-4 4-4 4-7.116 4.454l-3.618-.063-3.926-.04-4.09-.101q-2.068-.03-4.137-.055A969 969 0 0 1 299 125z"/><path fill="#e3e3e3" d="M202 66a219 219 0 0 1-13.625 4.75C181.204 73.113 174.674 76.529 168 80q-2.498 1.223-5 2.438c-4.145 2.079-8.207 4.291-12.25 6.562l-3.453 1.938c-2.443 1.528-4.437 2.956-6.594 4.812C138 98 138 98 136 98v-2a101 101 0 0 1 6.375-4.5l2.027-1.331C156.996 82.023 169.865 75.056 184 70l2.055-.747C198.388 64.796 198.388 64.796 202 66"/><path fill="#d0d0d0" d="M258 236c3 2 3 2 3.441 4.137l.122 2.55c.305 4.393 1.075 8.135 2.437 12.313h2c1.688 1.75 1.688 1.75 3 4-.418 2.14-.418 2.14-1 4-4.745-3.549-8.873-6.916-10-13-.226-4.679-.175-9.32 0-14"/><path fill="#c1c1c1" d="M216 191h65l1 5h-3l1-4h-64z"/><path fill="#e3e3e3" d="m374 375 2 2c-6.662 6.295-13.312 11.964-21 17l-2-1 1-2h3l1-3c3.444-3 3.444-3 6-3l.625-1.75c1.875-3.068 4.356-4.363 7.375-6.25z"/><path fill="#eee" d="M333 109h2c.492 7.385.492 7.385-2 10.5l-2 1.5-2-1q.425-2.19.875-4.375l.492-2.46C331 111 331 111 333 109"/><path fill="#c8c8c8" d="M321 76a1712 1712 0 0 1 8.313 3.813l2.38 1.08c.758.35 1.515.702 2.295 1.064l2.11.968c1.998 1.13 3.363 2.385 4.902 4.075-3.882 0-4.756-.148-7.89-1.969l-2.15-1.23-2.21-1.301-2.258-1.3A932 932 0 0 1 321 78z"/><path fill="#a6a6a6" d="M299 146h7c.26 6.773.128 13.497-2 20l-2 1c.774-6.708 1.858-13.346 3-20h-6z"/><path fill="#bababa" d="m304 333 2 1v7l-22-1v-1h20z"/><path fill="#ededed" d="M316 165h2c-.549 4.571-1.417 8.674-3 13-2.12-3.18-2.25-3.546-1.75-7.062l.266-2.098C314 167 314 167 316 165"/><path fill="#b8b8b8" d="M374 364c0 3 0 3-1.193 4.534l-1.65 1.603-1.778 1.748-1.879 1.803-1.879 1.837A891 891 0 0 1 361 380l-2-2 2.012-1.793c4.437-3.971 8.846-7.927 12.988-12.207"/><path fill="#9f9f9f" d="M267 449h17c-4.263 2.132-7.612 2.428-12.25 2.625l-2.258.117c-1.83.094-3.661.177-5.492.258l3-1z"/><path fill="#d9d9d9" d="m381 366 1 2-2-1zm-2 2 1 3-8 7c0-3 0-3 1.375-4.687C375 372 375 372 377 372z"/><path fill="#c3c3c3" d="M332 122c-3.625 3-3.625 3-7 3v-2h-6v-1q2.405-.292 4.813-.562l2.707-.317C329 121 329 121 332 122"/><path fill="#cfcfcf" d="M318 323h1l1 10-3-1z"/><path fill="#888" d="M408 172c2.5 2.063 2.5 2.063 5 5 .313 3.813.313 3.813 0 7-1.79-2.686-2.66-4.663-3.625-7.687-.26-.809-.52-1.617-.79-2.45-.192-.615-.386-1.23-.585-1.863"/></svg>