<svg xmlns="http://www.w3.org/2000/svg" viewBox="0 0 1280 720"><path d="M0 0h1280v720H0z"/><path d="m622.125 19.563 3.499.006c21.12.06 41.148 1.458 61.663 6.746 3.384.854 6.796 1.538 10.213 2.247 46.877 10.707 91.166 37.265 126.01 70.045 2.062 1.928 4.152 3.824 6.24 5.722C837.3 111.197 844.365 118.245 851 126l2.43 2.766c7.814 8.968 14.747 18.498 21.57 28.234l2.18 3.078c6.592 9.573 12.173 19.775 17.82 29.922l1.337 2.372c18.866 33.583 29.672 70.583 36.35 108.315l.615 3.451c3.026 17.775 4.108 35.284 4.073 53.3l-.002 3.224C937.305 390.09 934.178 418.418 927 447l-.792 3.187c-6.917 27.32-17.402 52.8-30.208 77.813l-1.49 2.912c-13.178 25.475-30.583 48.593-50.09 69.55a447 447 0 0 0-4.283 4.718c-4.472 4.971-8.95 9.78-14.09 14.078a108 108 0 0 0-4.281 3.86c-17.757 16.818-38.6 30.176-59.974 41.893-4.026 2.222-8.009 4.503-11.917 6.927-4.295 2.465-8.923 4.051-13.55 5.777-2.989 1.155-5.866 2.42-8.763 3.785-8.888 4.12-18.048 7.207-27.562 9.5q-2.788.699-5.574 1.402l-6.114 1.535-3.029.764Q680.644 695.863 676 697l-3.223.8c-20.42 4.923-41.125 5.479-62.027 5.45l-2.951-.002a1485 1485 0 0 1-8.315-.045l-2.555-.013c-5.81-.072-5.81-.072-6.929-1.19-1.83-.208-3.664-.367-5.5-.5-5.389-.389-5.389-.389-6.5-1.5-1.975.263-3.95.528-5.922.809-2.52.232-4.65-.126-7.078-.809v-2l-2 1a75 75 0 0 1-5.25-.312l-2.828-.239c-3.148-.484-5.91-1.423-8.922-2.449q-3.274-.692-6.562-1.312c-7.175-1.5-13.674-3.914-20.438-6.688q-3.435-1.32-6.875-2.625A311 311 0 0 1 499 680a605 605 0 0 0-5-2v-4l-3 .75c-4.016.571-6.292-.563-9.735-2.542-2.269-1.21-4.52-2.127-6.925-3.032-5.222-2.058-10.073-4.56-14.965-7.301l-2.614-1.455c-11.773-6.609-23.042-13.565-33.632-21.955a227 227 0 0 0-6.602-5.024l-1.698-1.243a1752 1752 0 0 0-4.661-3.385L408 627v-2l-1.774-.8c-2.314-1.247-3.932-2.592-5.835-4.395l-2.026-1.908-2.115-2.022-2.176-2.063c-7.37-7.006-14.47-14.075-21.074-21.812l-2.426-2.762c-7.308-8.39-13.779-17.286-20.208-26.36-1.17-1.608-2.41-3.165-3.663-4.71-1.786-2.274-2.68-4.516-3.746-7.184-1.134-2.35-2.543-4.313-4.082-6.422a139.4 139.4 0 0 1-16.578-30.406c-1.256-3.057-2.642-6.007-4.085-8.979-7.156-14.769-13.082-29.849-16.677-45.883-.626-2.685-1.31-5.352-2-8.02-3.02-11.707-5.64-23.336-7.535-35.274l-.586-3.285c-2.037-11.438-2.576-22.784-2.617-34.387l-.017-3.879q-.015-4.05-.02-8.098-.007-4.069-.041-8.138c-.184-22.254 1.184-43.732 6.156-65.463l.78-3.516Q296.806 284.11 298 279l.713-3.07q.97-4.126 1.974-8.243l.576-2.385.561-2.228.472-1.888c.812-2.523 1.874-4.909 2.935-7.336 1.204-2.897 2.122-5.876 3.07-8.866 2.528-7.767 5.604-15.255 8.887-22.734l.854-1.96c9.745-22.313 21.692-42.573 35.958-62.29l1.223-1.7C373.963 130.343 396.84 107.662 422 88l1.729-1.36C440.873 73.265 459.93 61.408 480 53l3.77-1.602c4.424-1.879 8.857-3.735 13.293-5.586l2.173-.91C509.345 40.675 519.502 37.127 530 34q2.565-.807 5.129-1.625c8.65-2.707 17.338-5.084 26.183-7.062l2.505-.577c19.318-4.15 38.6-5.279 58.308-5.174"/><path fill="#1369a3" d="m622.125 19.563 3.499.006c21.12.06 41.148 1.458 61.663 6.746 3.384.854 6.796 1.538 10.213 2.247 46.877 10.707 91.166 37.265 126.01 70.045 2.062 1.928 4.152 3.824 6.24 5.722C837.3 111.197 844.365 118.245 851 126l2.43 2.766c7.814 8.968 14.747 18.498 21.57 28.234l2.18 3.078c6.592 9.573 12.173 19.775 17.82 29.922l1.337 2.372c18.866 33.583 29.672 70.583 36.35 108.315l.615 3.451c3.026 17.775 4.108 35.284 4.073 53.3l-.002 3.224C937.305 390.09 934.178 418.418 927 447l-.792 3.187c-6.917 27.32-17.402 52.8-30.208 77.813l-1.49 2.912c-13.178 25.475-30.583 48.593-50.09 69.55a447 447 0 0 0-4.283 4.718c-4.472 4.971-8.95 9.78-14.09 14.078a108 108 0 0 0-4.281 3.86c-17.757 16.818-38.6 30.176-59.974 41.893-4.026 2.222-8.009 4.503-11.917 6.927-4.295 2.465-8.923 4.051-13.55 5.777-2.989 1.155-5.866 2.42-8.763 3.785-8.888 4.12-18.048 7.207-27.562 9.5q-2.788.699-5.574 1.402l-6.114 1.535-3.029.764Q680.644 695.863 676 697l-3.223.8c-20.42 4.923-41.125 5.479-62.027 5.45l-2.951-.002a1485 1485 0 0 1-8.315-.045l-2.555-.013c-5.81-.072-5.81-.072-6.929-1.19-1.83-.208-3.664-.367-5.5-.5-5.389-.389-5.389-.389-6.5-1.5-1.975.263-3.95.528-5.922.809-2.52.232-4.65-.126-7.078-.809v-2l-2 1a75 75 0 0 1-5.25-.312l-2.828-.239c-3.148-.484-5.91-1.423-8.922-2.449q-3.274-.692-6.562-1.312c-7.175-1.5-13.674-3.914-20.438-6.688q-3.435-1.32-6.875-2.625A311 311 0 0 1 499 680a605 605 0 0 0-5-2v-4l-3 .75c-4.016.571-6.292-.563-9.735-2.542-2.269-1.21-4.52-2.127-6.925-3.032-5.222-2.058-10.073-4.56-14.965-7.301l-2.614-1.455c-11.773-6.609-23.042-13.565-33.632-21.955a227 227 0 0 0-6.602-5.024l-1.698-1.243a1752 1752 0 0 0-4.661-3.385L408 627v-2l-1.774-.8c-2.314-1.247-3.932-2.592-5.835-4.395l-2.026-1.908-2.115-2.022-2.176-2.063c-7.37-7.006-14.47-14.075-21.074-21.812l-2.426-2.762c-7.308-8.39-13.779-17.286-20.208-26.36-1.17-1.608-2.41-3.165-3.663-4.71-1.786-2.274-2.68-4.516-3.746-7.184-1.134-2.35-2.543-4.313-4.082-6.422a139.4 139.4 0 0 1-16.578-30.406c-1.256-3.057-2.642-6.007-4.085-8.979-7.156-14.769-13.082-29.849-16.677-45.883-.626-2.685-1.31-5.352-2-8.02-3.02-11.707-5.64-23.336-7.535-35.274l-.586-3.285c-2.037-11.438-2.576-22.784-2.617-34.387l-.017-3.879q-.015-4.05-.02-8.098-.007-4.069-.041-8.138c-.184-22.254 1.184-43.732 6.156-65.463l.78-3.516Q296.806 284.11 298 279l.713-3.07q.97-4.126 1.974-8.243l.576-2.385.561-2.228.472-1.888c.812-2.523 1.874-4.909 2.935-7.336 1.204-2.897 2.122-5.876 3.07-8.866 2.528-7.767 5.604-15.255 8.887-22.734l.854-1.96c9.745-22.313 21.692-42.573 35.958-62.29l1.223-1.7C373.963 130.343 396.84 107.662 422 88l1.729-1.36C440.873 73.265 459.93 61.408 480 53l3.77-1.602c4.424-1.879 8.857-3.735 13.293-5.586l2.173-.91C509.345 40.675 519.502 37.127 530 34q2.565-.807 5.129-1.625c8.65-2.707 17.338-5.084 26.183-7.062l2.505-.577c19.318-4.15 38.6-5.279 58.308-5.174m-75.969 59.879c-2.809.727-5.64 1.353-8.468 1.996-42.155 10.863-78.202 38.033-108.563 68.187l-1.475 1.459c-6.677 6.62-12.846 13.513-18.65 20.916l-1.398 1.779c-12.705 16.405-23.539 33.517-32.592 52.157a588 588 0 0 1-3.217 6.455l-1.1 2.18q-1.038 2.058-2.08 4.114c-2.359 4.696-4.503 9.126-5.425 14.315-.792 3.76-1.983 7.133-3.438 10.688-2.42 6.082-4.228 12.245-5.937 18.562l-.757 2.796c-5.26 19.767-8.668 40.48-9.056 60.954l-.078 3.18a471 471 0 0 0 1.453 48.695l.191 2.385c.684 8.356 1.545 16.556 3.434 24.74q.418 2.082.832 4.164c2.506 11.705 5.985 23.101 9.63 34.492q.838 2.617 1.663 5.239c3.457 10.945 7.486 21.17 12.907 31.293a426 426 0 0 1 2.737 5.235c6.955 13.452 14.2 26.41 23.231 38.577l2.363 3.246c6.4 8.678 12.979 17.152 20.637 24.754 2.968 3.134 5.894 6.307 8.828 9.473 3.327 3.58 6.698 7.09 10.172 10.527l1.625 1.75c1.471 1.507 1.471 1.507 4.375 2.25a282 282 0 0 1 5 5c2.415 2.113 4.354 3.755 7.36 4.895 2.877 1.204 4.93 2.693 7.39 4.605 4.81 3.576 9.768 6.72 14.938 9.75l2.122 1.248c5.99 3.476 12.07 6.813 18.565 9.252 5.828 2.27 11.511 4.848 17.205 7.433 7.98 3.644 7.98 3.644 16.545 5.255 3.495.334 6.732.975 10.125 1.875C592.712 657.052 645.639 656.7 690 640l3.105-1.062c27.053-9.579 52.61-22.79 74.895-40.938l2.621-2.043c5.494-4.294 10.67-8.866 15.793-13.594a205 205 0 0 1 6.586-5.738c5.465-4.749 10.178-10.242 15-15.625l2.023-2.176C822.027 545.782 831.893 531.155 841 516l1.185-1.944C853.131 495.984 862.235 475.998 869 456l.69-1.92c2.45-6.976 4.119-14.125 5.747-21.33l.461-2.03c4.406-19.576 7.638-39.634 8.102-59.72l.094-2.684c.923-28.261-2.01-56.93-9.094-84.316l-.68-2.748c-4.403-17.79-10.738-34.675-18.093-51.44-.768-1.76-1.498-3.54-2.168-5.34-1.68-3.923-4.138-7.31-6.5-10.85-1.371-2.307-2.11-4.007-2.559-6.622h-2l-.75-2.125c-1.192-2.986-1.192-2.986-3.25-5.812-2-3.063-2-3.063-3-6.313-.706-2.87-.706-2.87-3-3.875l-2-.875c-1-1.687-1-1.687-2-4-2.573-4.88-5.031-8.122-9-12a436 436 0 0 1-6.23-7.988L812 162h-2v-2h-2l-2-4h-2l-.621-1.605c-1.972-3.424-4.637-5.949-7.442-8.708l-1.779-1.762c-3.773-3.692-7.636-7.08-11.892-10.21-2.638-1.997-5.086-4.165-7.578-6.34-8.32-6.97-17.485-12.655-26.688-18.375l-1.85-1.164c-11.203-6.99-23.389-12.222-35.417-17.608-2.048-.92-4.084-1.87-6.112-2.833-5.27-2.03-10.683-3.44-16.142-4.874a1052 1052 0 0 1-5.838-1.56C673.813 78.62 664.977 76.697 656 75l-2.53-.513c-34.566-6.852-73.458-3.962-107.314 4.955"/><path fill="#106cb0" d="m542.984 167.856 3.54.02c14.25.103 28.498.395 42.745.697q5.907.123 11.814.243 9.918.203 19.836.41 11.308.238 22.615.468a72066 72066 0 0 1 31.367.645l4.414.09 2.185.045a3557 3557 0 0 1 12.776.286l4.21.1c4.576.106 9.15.18 13.726.236 3.21.043 6.42.102 9.63.163q2.29.038 4.58.055c14.9.117 14.9.117 21.578 4.686 3.847 5.85 3.426 11.985 3.313 18.813l-.035 3.35c-.215 13.044-1.051 25.406-5.274 37.825-1.001 3.004-1.775 5.995-2.504 9.075-3.237 13.243-8.232 25.845-14.5 37.937l-1.371 2.797c-1.744 3.428-3.634 6.755-5.567 10.078-2.15 3.714-4.262 7.413-6.062 11.313-2.052 4.209-4.808 7.824-7.605 11.566-1.783 2.39-3.5 4.82-5.196 7.273-4.796 6.933-9.633 13.705-15.136 20.098l-1.386 1.62c-1.8 2.098-3.61 4.182-5.474 6.224-3.545 4.222-3.762 8-3.77 13.285 1.208 5.854 5.478 9.875 9.505 14.059 6.391 6.805 11.991 14.157 17.547 21.65a504 504 0 0 0 4.105 5.428c25.218 33.5 42.741 77.456 42.785 119.547l.074 3.822c.039 12.276.039 12.276-4.449 17.24-6.217 3.031-12.76 3.561-19.566 3.879l-3.063.173c-3.31.182-6.622.347-9.933.51l-6.994.373c-7.147.377-14.295.725-21.444 1.065l-3.29.158c-22.71 1.08-45.417 1.915-68.147 2.395-13.282.284-26.544.791-39.813 1.447l-2.596.127C562.422 559.61 552.71 560.2 543 561c-10.642.869-19.338-1.679-29-6-3.89-3.321-4.77-7.375-5.202-12.306a171 171 0 0 1-.11-7.881l.017-2.926c.286-17.334 4.089-33.427 9.295-49.887l.795-2.528c4.414-13.91 10.074-26.44 17.013-39.265q1.151-2.131 2.29-4.269C543.928 425.016 550.64 414.948 558 405l1.365-1.85c4.188-5.64 8.505-11.098 13.26-16.275 9.386-9.645 9.386-9.645 13.25-22.062-.495-6.227-2.627-9.407-6.875-13.813q-1.397-1.494-2.79-2.992a1372 1372 0 0 0-4.681-5.022c-3.854-4.14-7.221-8.465-10.466-13.103-2.436-3.405-5.02-6.67-7.625-9.945-5.78-7.3-11.398-14.506-15.438-22.938a438 438 0 0 0-2.937-4.875c-2.227-3.672-4.276-7.36-6.141-11.227-.885-1.823-1.84-3.612-2.797-5.398-3.277-6.592-5.65-13.58-8.125-20.5l-.89-2.445C509.463 231.38 499.083 198.727 509 177c8.915-9.198 21.954-9.276 33.984-9.144"/><path fill="#102851" d="M544 193c56.059-.196 56.059-.196 79.009.574 14.348.477 28.7.697 43.053.926 21.319.344 42.628.794 63.938 1.5.64 20.483-2.404 41.605-12 60a99 99 0 0 0-1.562 4.625c-.919 2.957-1.993 5.634-3.438 8.375h-2l-.824 2.555a189 189 0 0 1-3.989 10.57l-1.457 3.633c-1.875 3.514-3.638 4.818-6.73 7.242-1.706 2.328-3.117 4.816-4.562 7.313-4.738 7.875-10.158 14.937-16.03 21.991-2.078 2.503-4.113 5.04-6.158 7.571-3.322 4.083-6.817 7.927-10.523 11.664-6.544 9.326-5.762 21.611-4.727 32.461 2.069 10.837 8.167 16.825 16 24 2.457 2.57 4.74 5.256 7 8l2.45 2.973c6.946 8.574 13.106 17.592 19.115 26.841a322 322 0 0 0 3.051 4.559l1.61 2.365 1.46 2.123c1.87 3.043 3.083 6.228 4.329 9.566.996 2.601 2.128 5.092 3.313 7.612 2.768 6.048 5.107 12.206 7.36 18.461l1.181 3.184c2.432 6.726 4.05 13.253 5.131 20.316l.633 3.313c1.214 6.63 1.606 12.952 1.367 19.687-4.752.737-9.425 1.2-14.227 1.433l-2.095.104q-3.437.169-6.873.33l-4.924.24q-6.627.323-13.255.637-4.128.197-8.255.397c-19.92.963-39.841 1.894-59.766 2.754l-2.416.104q-11.356.491-22.713.961l-6.268.262q-3.768.159-7.536.31c-6.915.291-13.786.768-20.672 1.468v1q-3.72.04-7.437.063l-2.143.025c-1.807.009-3.614-.036-5.42-.088-1.636-1.636-1.198-3.442-1.23-5.7.068-6.907 1.409-13.393 2.918-20.112.27-1.234.542-2.467.821-3.737 2.356-10.424 4.942-20.237 10.491-29.451a110 110 0 0 0 1.875-4.687c1.702-4.389 3.683-8.535 5.879-12.696 1.37-2.758 1.37-2.758 2.558-6.363 1.767-4.797 4.355-8.915 7.125-13.192l1.598-2.49C586.577 425.358 595.592 412.805 606 401l2.066-2.367c4.617-5.284 4.617-5.284 6.364-7.203 3.133-3.541 4.864-7.042 6.57-11.43l1.07-1.858c1.18-2.72 1.157-4.824 1.125-7.783l-.02-3.242-.05-3.367-.027-3.414q-.036-4.168-.098-8.336h-2l-.77-2.082-1.043-2.73-1.019-2.708c-1.175-2.495-2.006-3.802-4.168-5.48l-2.516-.902c-3.127-1.382-3.707-2.648-5.234-5.66-2.74-4.916-6.004-8.34-10.059-12.196C588 311.861 588 311.861 588 307l2-1-2.379-2.824C570.256 282.235 570.256 282.235 571 273l2.75-.25c3.7-.854 4.741-2.023 7.25-4.75q1.721 3.655 3.438 7.313l.986 2.091c1.33 2.84 2.583 5.617 3.576 8.596l3 2c.983 1.7 1.961 3.403 2.902 5.127 1.73 2.95 3.923 5.492 6.16 8.06l1.443 1.683c3.317 3.845 6.733 7.592 10.183 11.317 11.438 12.424 17.729 22.763 20.562 39.547.784 4.604 1.768 9.152 2.813 13.704l.492 2.242c.416 1.79.923 3.558 1.445 5.32l2 1-.062-2.022c-.117-6.841.518-13.205 1.812-19.916l.551-2.906c3.066-15.616 8.296-25.807 19.156-37.262 3.918-4.14 7.444-8.47 10.824-13.066C674 299 674 299 675.934 298.645c3.467-1.082 4.822-4.252 6.629-7.207l1.202-1.917c2.681-4.363 4.758-8.599 6.235-13.521h2c.678-2.9.678-2.9 1-6-1.79-2.206-1.79-2.206-4.183-2.246l-2.765.005-3.17-.008-3.492.022h-3.666q-4.983.001-9.966.024c-3.47.013-6.94.014-10.41.016-6.573.006-13.146.023-19.72.043-7.482.022-14.964.033-22.447.043q-23.09.033-46.181.101v3c-3-1-3-1-4.04-2.509l-.94-1.971-1.078-2.243c-.373-.813-.745-1.627-1.13-2.464-.391-.85-.782-1.7-1.186-2.574-8.543-18.89-20.334-45.154-14.626-66.239"/><path fill="#1e4476" d="M631 61.563c1.547-.01 1.547-.01 3.124-.018C648.34 61.49 661.997 62.564 676 65l3.312.553c2.556.454 5.09.959 7.625 1.51l2.764.596C703.068 70.731 716.11 75.354 729 80l2.703.95c2.366 1.082 3.526 2.19 5.297 4.05 1.792 1.048 1.792 1.048 3.766 1.902l2.199 1.01 2.285 1.025c8.406 3.807 8.406 3.807 12.297 6.13 2.58 1.444 4.713 2.448 7.453 3.406 4.084 1.462 7.444 3.505 11 5.965l1.925 1.31c10.757 7.396 21.172 15.092 30.704 24.03a170 170 0 0 0 6.308 5.597c8.28 7.206 16.072 15.166 23.063 23.625l1.231 1.46c32.922 39.167 55.604 87.322 64.242 137.747.44 2.331.948 4.623 1.484 6.934C915.258 351.38 911.29 408.473 896 453q-.764 2.442-1.523 4.887c-3.615 11.422-7.724 22.479-12.602 33.426l-1.486 3.336c-3.161 6.962-6.632 13.693-10.389 20.351h-2l-.937 3.625c-1.566 4.75-3.946 8.75-6.625 12.938l-1.213 1.914c-1.016 1.548-2.114 3.041-3.225 4.523h-2l-.828 1.77c-1.146 2.18-2.41 3.978-3.922 5.918-2.826 3.674-5.325 7.485-7.758 11.43C840 559 840 559 837.945 560.007c-2.51 1.28-2.756 2.47-3.945 4.992-11.186 13.457-24.102 26.392-38 37l-3.527 2.785C753.249 635.383 705.203 654.664 656 661l-2.135.297c-8.63 1.049-17.313.812-25.99.765q-2.46-.008-4.922-.013A4869 4869 0 0 1 611 662v-1l2.655-.152q4.965-.288 9.93-.593 2.132-.128 4.265-.25c18.108-.625 18.108-.625 35.15-6.005 2.104-2.494 2.104-2.494 3-5-6.809-.317-13.296.908-20 2-9.775 1.533-19.11 2.596-29 2v-1l1.746-.12c23.66-1.689 48.896-4.463 71.254-12.88l3.105-1.062c27.053-9.579 52.61-22.79 74.895-40.938l2.621-2.043c5.49-4.291 10.665-8.86 15.785-13.586 2.201-2.012 4.44-3.95 6.719-5.871 3.864-3.36 7.228-7.079 10.605-10.922a227 227 0 0 1 4.383-4.844C820.504 546.414 830.652 531.557 840 516l1.185-1.944C852.131 495.984 861.235 475.998 868 456l.69-1.92c2.45-6.976 4.119-14.125 5.747-21.33l.461-2.03c4.406-19.576 7.638-39.634 8.102-59.72l.094-2.684c.923-28.261-2.01-56.93-9.094-84.316l-.68-2.748c-4.403-17.79-10.738-34.675-18.093-51.44-.768-1.76-1.497-3.539-2.164-5.34-1.693-3.937-4.2-7.316-6.602-10.85C845 211 845 211 845 207h-2c-1.656-2.195-1.656-2.195-3.5-5.125l-1.844-2.883C836 196 836 196 834.93 192.785c-1.197-3.584-3.243-5.162-5.93-7.785a65 65 0 0 1-2-3.5c-1.866-3.45-4.147-5.777-7-8.5a358 358 0 0 1-4.312-4.687l-2.114-2.325C812 164 812 164 812 162h-2v-2h-2c-1.305-1.328-1.305-1.328-2.875-3.25-6.872-8.06-14.293-15.696-22.824-22-2.646-2.012-5.11-4.19-7.614-6.375C766.37 121.405 757.204 115.72 748 110l-1.85-1.164c-11.203-6.99-23.389-12.222-35.417-17.608-2.048-.92-4.084-1.87-6.112-2.833-5.27-2.03-10.683-3.44-16.142-4.874a1052 1052 0 0 1-5.838-1.56C673.813 79.62 664.977 77.697 656 76l-2.53-.513c-13.87-2.75-27.825-2.783-41.908-2.8l-2.88-.01c-10.357-.021-20.434.254-30.67 1.896-2.725.386-5.267.507-8.012.427l1.813-.875c2.38-1.172 2.38-1.172 5.187-3.125h-12v-2l2.371-.402 3.067-.535 3.058-.528c2.433-.283 2.433-.283 3.504-1.535 17.652-4.247 35.96-4.414 54-4.437"/><path fill="#185c9c" d="m629.625 400.625 2.273.004c3.807.06 6.954.112 10.102 2.371 1.573 1.67 2.935 3.434 4.34 5.246 1.635 1.89 1.635 1.89 4.082 3.18 2.913 1.779 4.685 3.728 6.89 6.324 2.728 3.128 5.398 5.956 8.625 8.563C676.165 435.02 683.278 447.538 690 459l1.785 3.016c6.544 11.984 10.306 27.086 10.403 40.734l.042 2.797C702 508 702 508 700 511c-3.67 1.223-7.163 1.306-10.992 1.465l-2.512.114q-4.185.185-8.371.359l-2.928.126c-17.751.763-35.507 1.398-53.264 1.994l-5.917.201c-12.145.414-24.29.814-36.442.878l-2.399.023c-5.572-.003-11.23-.366-16.175-3.16-4.631-6.947-2.737-19.372-1.348-27.352C565.28 459.084 582.87 436.417 602 418l2.563-2.562L607 413l1.867-1.937 2.07-2.125 1.903-1.973c5.616-5.108 9.385-6.584 16.785-6.34"/><path d="m551.294 196.87 1.998-.005q3.303-.004 6.606.002 2.323 0 4.645-.003 4.905-.002 9.811.006 6.16.006 12.32-.004c18.132-.022 36.206.24 54.324 1.016 4.817.19 9.635.3 14.455.4l2.716.056 5.365.108c12.887.258 25.774.521 38.654 1.054l2.784.107c5.904.27 5.904.27 7.028 1.393.798 23.758-6.198 47.08-17 68l-1.676-.492c-2.574-.563-4.877-.63-7.513-.628l-3.178-.004-3.47.01h-3.667q-4.97.001-9.94.013-5.197.007-10.395.008-9.839.005-19.677.021-11.2.015-22.403.022-23.04.016-46.081.05v3c-3-1-3-1-4.056-2.556l-.96-2.03-1.093-2.289-1.141-2.5-1.194-2.606A790 790 0 0 1 555 251l-1.036-2.293c-6.829-15.345-10.751-33.87-9.964-50.707 1.842-1.842 4.828-1.128 7.294-1.13"/><path fill="#214b7f" d="M753.926 560.934c2.551 1.311 5.026 1.824 7.824 2.441 3.53.945 5.117 1.51 7.938 3.938 2.384 6.699 2.6 14.24.097 20.937-2.092 3.224-3.226 4.3-6.785 5.75-12.011 2.29-24.75 2.1-36.934 2.434-14.138.431-28.232 1.258-42.344 2.237-6.636.46-13.273.901-19.91 1.345l-3.918.263a2663 2663 0 0 1-31.019 1.909l-2.165.12c-9.965.545-19.93.915-29.906 1.228-12.788.455-25.545 1.428-38.306 2.36l-5.283.385-2.596.19c-6.535.468-13.072.86-19.615 1.2-3.37.177-6.736.378-10.1.639-10.476.75-18.295-2.667-26.904-8.31-2.901-2.53-3.204-4.674-3.469-8.371a271 271 0 0 1-.031-5.067l-.086-2.564c-.014-4.403.115-6.384 2.867-9.97 5.142-3.835 9.239-4.434 15.602-4.774l2.801-.168c3.147-.185 6.294-.355 9.441-.524l3.348-.188c23.832-1.338 47.683-2.144 71.537-2.967 24.052-.83 48.055-1.851 72.066-3.533l2.604-.183 2.55-.179c12.02-.829 24.058-1.338 36.094-1.866 7.973-.353 15.925-.756 23.88-1.427 14.346-1.121 14.346-1.121 20.722 2.715"/><path fill="#0196df" d="m520.117 122.774 2.906.038c2.993.044 5.985.113 8.977.188l2.76.061c5.482.123 10.963.284 16.444.464q4.57.149 9.143.29 6.531.203 13.062.41a19974 19974 0 0 0 37.308 1.146c21.73.647 43.458 1.09 65.196 1.338l3.375.042q3.005.037 6.01.06c4.184.05 8.293.211 12.453.669 6.58.716 13.175.86 19.788 1.055l4.127.13q5.38.17 10.761.33 5.511.17 11.022.343 10.775.336 21.551.662v2l1.937.625C769 134 769 134 769.625 136.656c.386 3.44.473 6.758.437 10.219l-.027 3.492L770 153h-2l-.5 2.875C766 159 766 159 762.687 160.188L758 161l-2.82.777c-6.012 1.635-11.567 2.396-17.802 2.346l-2.216-.016c-8.456-.082-16.909-.337-25.36-.602q-4.544-.142-9.087-.276l-13.167-.397a10867 10867 0 0 0-132.116-3.185 7998 7998 0 0 1-30.14-.597q-3.261-.07-6.522-.136c-3.55-.078-7.097-.175-10.645-.281l-2.916-.058c-5.418-.193-9.434-.927-14.209-3.575-2.973-5.947-2.766-13.497-2-20 1.36-3.068 2.275-4.586 5.2-6.258l2.487-.867 2.45-.883L502 126l3.547-1.548c4.89-1.829 9.4-1.81 14.57-1.678"/><path fill="#1c3b69" d="m542.984 167.856 3.54.02c14.25.103 28.498.395 42.745.697q5.907.123 11.814.243 9.918.203 19.836.41 11.308.238 22.615.468a72066 72066 0 0 1 31.367.645q11.782.239 23.563.512 5.694.132 11.39.247 6.132.124 12.264.27 2.34.054 4.681.097c2.157.04 4.313.092 6.47.147l3.727.081C740 172 740 172 743 174l-3.057-.075a13810 13810 0 0 0-88.762-1.855q-7.269-.13-14.537-.27c-35.887-.688-71.751-.928-107.644-.8l-.93 2.355A77 77 0 0 1 525 180h-2c.111 3.48.242 6.959.375 10.438.03.973.062 1.947.094 2.95.217 5.41.78 10.424 2.076 15.68.572 2.431.798 4.817.955 7.307.3 3.88.821 7.617 1.563 11.438.733 3.794 1.147 7.305.937 11.187l3 1 1 8h2l1 7 2-3 .25 3.875c.66 6.033 2.37 12.746 6.75 17.125 1.442 2.434 2.174 4.627 2.938 7.375 1.026 3.502 2.254 6.46 4.062 9.625l2 1v3h2l.875 2.875c.893 3.177.893 3.177 3.125 5.125v3l2 1c4 5.412 4 5.412 4 9l3 1c3.285 3.538 5.666 7.067 7.977 11.281 2.106 3.539 4.95 6.511 7.675 9.578l1.66 1.891 1.551 1.734C589 342 589 342 589 344h2c1.313 1.188 1.313 1.188 3 3l2.375 2.25L599 352l1.434 1.422c4.029 4.611 4.542 9.292 4.308 15.305-1.347 5.943-5.473 9.185-9.742 13.273a176 176 0 0 0-3.875 4.875 135 135 0 0 1-8.248 9.54c-6.487 6.86-11.429 14.155-16.002 22.398-1.42 2.414-2.707 4.28-4.5 6.375-2.014 2.385-3.043 4.078-4.375 6.812a891 891 0 0 1-3.187 5.313c-5.975 10.21-10.681 20.886-14.77 31.98C539 472 539 472 537.926 474.078c-1.362 2.826-1.785 5.736-2.364 8.8C535 485 535 485 533 488c-.587 2.276-.587 2.276-1 5q-.526 2.966-1.057 5.932a694 694 0 0 0-.75 4.273c-.97 5.358-.97 5.358-2.22 7.815-1.496 3.045-1.72 6.273-2.098 9.605l-.255 2.167c-.605 5.426-.917 10.748-.62 16.208l.125 2.547c.383 5.26.939 12.517 4.875 16.453 10.64.516 21.359-.215 31.982-.8 2.542-.139 5.085-.27 7.627-.401q2.462-.131 4.922-.264l2.267-.117c4.45-.25 8.788-.786 13.202-1.418a84 84 0 0 1 4.777-.027l2.557.037q2.598.052 5.195.117c4.157.054 7.828-.084 11.85-1.193C618 553 618 553 619.732 553.463c3.4.805 6.728.427 10.182.197l2.332-.139q3.69-.222 7.379-.458 4.831-.302 9.664-.59l2.336-.141c4.828-.279 9.629-.424 14.467-.32 2.556-.016 5.04-.42 7.564-.793 4.38-.409 8.779-.233 13.172-.156 2.967.077 2.967.077 4.92-.566 3.18-.702 6.206-.557 9.459-.509 7.821.064 15.59-.205 23.397-.678 2.12-.125 4.241-.23 6.363-.335q2.054-.12 4.107-.245l3.675-.206c3.556-.573 5.487-1.217 8.251-3.524 2.122-4.45 2.236-8.489 2.195-13.367l-.008-2.06a960 960 0 0 0-.062-6.448q-.016-2.199-.027-4.398-.035-5.364-.098-10.727h1c1.486 6.397 1.264 12.84 1.313 19.375l.087 3.945c.085 12.788.085 12.788-4.4 17.68-6.225 3.023-12.756 3.561-19.566 3.879l-3.063.173c-3.31.182-6.622.347-9.933.51l-6.994.373c-7.147.377-14.295.725-21.444 1.065l-3.29.158c-22.71 1.08-45.417 1.915-68.147 2.395-13.282.284-26.544.791-39.813 1.447l-2.596.127C562.422 559.61 552.71 560.2 543 561c-10.642.869-19.338-1.679-29-6-3.89-3.321-4.77-7.375-5.202-12.306a171 171 0 0 1-.11-7.881l.017-2.926c.286-17.334 4.089-33.427 9.295-49.887l.795-2.528c4.414-13.91 10.074-26.44 17.013-39.265q1.151-2.131 2.29-4.269C543.928 425.016 550.64 414.948 558 405l1.365-1.85c4.188-5.64 8.505-11.098 13.26-16.275 9.386-9.645 9.386-9.645 13.25-22.062-.495-6.227-2.627-9.407-6.875-13.813q-1.397-1.494-2.79-2.992a1372 1372 0 0 0-4.681-5.022c-3.854-4.14-7.221-8.465-10.466-13.103-2.436-3.405-5.02-6.67-7.625-9.945-5.78-7.3-11.398-14.506-15.438-22.938a438 438 0 0 0-2.937-4.875c-2.227-3.672-4.276-7.36-6.141-11.227-.885-1.823-1.84-3.612-2.797-5.398-3.277-6.592-5.65-13.58-8.125-20.5l-.89-2.445C509.463 231.38 499.083 198.727 509 177c8.915-9.198 21.954-9.276 33.984-9.144"/><path fill="#204677" d="m357 154 1 2-4 6h1c0 3.694-1.282 5.778-3 9l3-1 1-2 2 1c-1.756 3.924-3.851 7.264-6.375 10.75-3.385 4.761-6.673 9.708-8.625 15.25l1 3-1.86.723c-2.66 1.587-3.217 2.88-4.39 5.714l-1.016 2.372c-.893 2.28-.893 2.28-.734 5.191l-1.937 2.375c-2.17 2.762-2.626 4.213-3.063 7.625-.437 2.25-.437 2.25-1 4l-2 1c-1.24 3.17-2 5.582-2 9l-1.375 1.25C321.634 240.471 321 244.713 321 249a201 201 0 0 1-3 6c-1.333 3-1.333 3 0 6-.34 2.48-.34 2.48-.937 5.188l-.59 2.73L316 271h-3c-1.317 4.705-2.57 9.29-1 14a103 103 0 0 1-4 9l1 3c-.312 2.625-.312 2.625-1 5l-2 1 .523 1.59c.613 3.097.367 5.83.102 8.973l-.273 3.44C306 320 306 320 305 323c-.067 2.515.002 5.012.063 7.527-.06 2.381-.472 4.178-1.063 6.473-.814 5.565-1.148 10.947-1.133 16.566l-.003 2.414q0 2.517.006 5.035c.005 2.516 0 5.033-.007 7.55-.269 16.18-.269 16.18 1.734 32.16C305 403 305 403 304 406l2 1-1 3c.363 2.886.795 5.704 1.313 8.563l.431 2.469q.616 3.486 1.256 6.968l.543 2.988c1.226 6.4 2.838 12.702 4.457 19.012a495 495 0 0 1 4 17h2l-.25 2.5c.283 3.965 1.45 6.197 3.305 9.633 1.149 2.27 1.518 4.364 1.945 6.867.758 2.318 1.56 4.617 2.379 6.914C327 495 327 495 327 498h2l.438 2.813c.483 3.194.483 3.194 1.562 6.187h2v6h2l1 7 3 1c2.296 3.445 2.54 5.938 3 10l3 1c.73 1.848.73 1.848 1.188 4.063l.48 2.222L347 540h2v4h2c2.565 2.565 2.54 4.477 3 8l2-1 .805 1.934 1.07 2.504 1.055 2.496c.894 2.223.894 2.223 3.07 3.066l.875 2.375c1.278 2.983 2.535 3.787 5.125 5.625l1 3 2 1c.625 2.563.625 2.563 1 5h3v2h2l.813 2.25c1.713 3.968 4.095 6.782 7.187 9.75 3.886 3.771 3.886 3.771 5 6h2a264 264 0 0 1 3 5l2 1 .813 2.813c1.604 4.305 4.072 6.195 8.187 8.125 2.864 1.521 4.776 3.724 7 6.062l1.625 1.5c1.81 1.974 3.018 4.198 4.375 6.5l2 2c2.603-.32 2.603-.32 5-1l1 5 4-1 .656 2.73c1.63 3.964 3.33 5.2 6.844 7.582l2.969 2.051c2.395 1.615 2.395 1.615 4.531 2.637v2h3v2l4-1v3l3 1c2.839 1.783 5.62 3.642 8.406 5.504 2.528 1.746 2.528 1.746 5.594 1.496v2l2 1c-3 1-3 1-4.923.262l-2.182-1.219-2.457-1.358-2.625-1.497-2.71-1.524c-11.865-6.724-23.276-13.724-33.974-22.2a227 227 0 0 0-6.602-5.023l-1.698-1.243a1752 1752 0 0 0-4.661-3.385L408 627v-2l-1.774-.8c-2.314-1.247-3.932-2.592-5.835-4.395l-2.026-1.908-2.115-2.022-2.176-2.063c-7.37-7.006-14.47-14.075-21.074-21.812l-2.426-2.762c-7.308-8.39-13.779-17.286-20.208-26.36-1.17-1.608-2.41-3.165-3.663-4.71-1.786-2.274-2.68-4.516-3.746-7.184-1.134-2.35-2.543-4.313-4.082-6.422a139.4 139.4 0 0 1-16.578-30.406c-1.256-3.057-2.642-6.007-4.085-8.979-7.156-14.769-13.082-29.849-16.677-45.883-.626-2.685-1.31-5.352-2-8.02-3.02-11.707-5.64-23.336-7.535-35.274l-.586-3.285c-2.037-11.438-2.576-22.784-2.617-34.387l-.017-3.879q-.015-4.05-.02-8.098-.007-4.069-.041-8.138c-.184-22.254 1.184-43.732 6.156-65.463l.78-3.516Q296.806 284.11 298 279l.713-3.07q.97-4.126 1.974-8.243l.576-2.385.561-2.228.472-1.888c.812-2.523 1.874-4.909 2.935-7.336 1.204-2.897 2.122-5.876 3.07-8.866 2.528-7.767 5.604-15.255 8.887-22.734l.854-1.96c10.392-23.793 23.23-45.624 38.958-66.29"/><path fill="#010203" d="m629.313 375.75 2.238.047L634 376l3.094.18c2.906.82 2.906.82 4.636 3.156l1.457 3.039c3.264 6.093 7.199 10.359 12.176 15.105 3.467 3.313 6.572 6.839 9.637 10.52l1.746 2.047C682.71 429.297 695.722 451.37 704 475l.674 1.89c5.157 14.642 8.068 29.548 7.326 45.11-3.181.905-6.215 1.242-9.512 1.465l-3.416.232c-1.861.12-1.861.12-3.76.24l-1.974.129c-30.118 1.947-60.277 3.142-90.436 4.237-9.78.358-19.547.764-29.315 1.378-5.533.339-11.044.47-16.587.444l-2.633.012c-6.24-.01-6.24-.01-7.367-1.137.09-4.681.573-9.34 1-14l.305-3.668C549.536 499.606 552.75 488.084 559 478a110 110 0 0 0 1.875-4.687c1.702-4.389 3.683-8.535 5.879-12.696 1.37-2.758 1.37-2.758 2.558-6.363 1.767-4.797 4.355-8.915 7.125-13.192l1.598-2.49C586.577 425.358 595.592 412.805 606 401l2.066-2.367c4.599-5.264 4.599-5.264 6.329-7.168 2.922-3.312 4.83-6.636 6.613-10.633 2.116-3.907 3.827-5.237 8.304-5.082M612 408a755 755 0 0 1-4.625 3.938c-3.526 3.17-6.652 6.526-9.707 10.148-1.58 1.814-3.234 3.449-4.98 5.101C583.353 436.44 576.392 447.606 570 459l-1.496 2.645c-6.486 12.184-9.682 24.81-9.692 38.543l-.037 2.732-.005 2.623-.013 2.376c.119 2.387.119 2.387 2.243 5.081 5.875 3.32 12.603 3.19 19.145 3.12l2.658-.014c9.34-.074 18.672-.381 28.006-.727l5.48-.195q5.691-.203 11.382-.41 7.197-.264 14.393-.518a22206 22206 0 0 0 16.585-.595q8.676-.311 17.351-.661l2.858-.114q4.35-.179 8.7-.37l2.727-.11 2.53-.116 2.233-.097c2.166-.142 2.166-.142 4.952-1.193 4.547-6.82 1.836-16.12.375-23.75-4.25-20.597-14.51-36.91-27.375-53.25l-1.39-1.824c-2.781-3.532-6.016-6.288-9.426-9.176-3.285-3.009-6.127-6.374-9.008-9.766-2.234-2.294-4.427-3.628-7.176-5.234-1.477-1.57-1.477-1.57-2.625-3.125-2.121-3.085-2.121-3.085-5.375-3.875-10.81-1.006-18.117-1.21-26 7"/><path fill="#007cd0" d="M585 268h107l2 4c-.875 2.25-.875 2.25-2 4h-2l-.227 2.52c-.962 4.328-2.818 7.44-5.148 11.168-.4.663-.8 1.326-1.21 2.01-1.903 3.105-3.668 5.866-6.415 8.302l-1.934.387c-3.1.92-4.185 2.886-6.129 5.426-2.924 3.734-5.887 7.24-9.192 10.64C645.135 331.6 643.083 351.032 640 371h-1c.01-.59.02-1.18.032-1.788.041-2.675.067-5.35.093-8.024l.05-2.815.02-2.705.032-2.491c-.087-2.471-.087-2.471-2.227-5.177-.54-2.66-.734-5.293-1-8h-2v-7h-3l-.187-1.625c-.835-2.438-1.71-3.58-3.375-5.5C625 323 625 323 625 321h-2v-3l-3-1c-2.381-2.661-3.866-4.597-5-8l-3-1a221 221 0 0 1-2-7l-2-1v-2h-4v-3h-3c-3-4.222-3-4.222-3-7l-3-1-.125-2.062c-.913-3.064-1.752-4.09-3.875-6.375-2.86-3.113-3.594-5.299-4-9.563z"/><path fill="#15305b" d="m629.625 400.625 2.273.004c3.822.06 6.865.23 10.102 2.371-2 1-2 1-4.785.777-4.308.299-5.585 1.797-8.653 4.786l-1.532 1.479a372 372 0 0 0-3.287 3.23 444 444 0 0 1-5.47 5.306c-22.408 21.68-40.663 47.073-42.148 79.11l-.15 3.188c-.276 6.339-.276 6.339 2.025 12.124l1.773-.184c15.015-1.465 30.08-1.945 45.152-2.441q11.384-.374 22.763-.875c10.164-.443 20.33-.764 30.5-1.062l2.278-.068c13.54-.398 13.54-.398 18.534-.37l1 3c-3.67 1.223-7.163 1.306-10.992 1.465l-2.512.114q-4.185.185-8.371.359l-2.928.126c-17.751.763-35.507 1.398-53.264 1.994l-5.917.201c-12.145.414-24.29.814-36.442.878l-2.399.023c-5.572-.003-11.23-.366-16.175-3.16-4.631-6.947-2.737-19.372-1.348-27.352C565.28 459.084 582.87 436.417 602 418l2.563-2.562L607 413l1.867-1.937 2.07-2.125 1.903-1.973c5.616-5.108 9.385-6.584 16.785-6.34"/><path fill="#1f4575" d="m519.5 122.75 2.772.033c3.244.049 6.485.13 9.728.217l2.02.054c9.995.27 19.988.592 29.98.946v1l-1.954.018c-6.7.064-13.399.148-20.098.244q-3.752.051-7.505.084c-3.592.034-7.183.086-10.775.142l-3.4.02-3.154.06-2.78.033c-2.769.473-3.654 1.188-5.334 3.399-1.537 5.416-1.014 9.787 1 15 .125 2.875.125 2.875 0 5h7l1 2 1.825-.033c7.832-.076 15.609.35 23.421.83 17.953 1.096 35.897 1.713 53.876 2.148q5.865.145 11.732.299l14.624.377a7388 7388 0 0 1 37.245 1.048l2.224.066A6567 6567 0 0 0 766 158c-2.738 2.738-5.699 2.905-9.375 3.563-4.734.814-4.734.814-9.386 1.974-3.217.665-6.4.591-9.67.562l-2.257-.01c-8.507-.063-17.008-.317-25.51-.584q-4.544-.142-9.087-.276l-13.167-.397a10867 10867 0 0 0-132.116-3.185 7998 7998 0 0 1-30.14-.597q-3.261-.07-6.522-.136c-3.55-.078-7.097-.175-10.645-.281l-2.916-.058c-5.418-.193-9.434-.927-14.209-3.575-2.973-5.947-2.766-13.497-2-20 1.36-3.068 2.275-4.586 5.2-6.258l2.488-.867 2.449-.883L502 126l1.782-.775c5.364-2.265 9.936-2.619 15.718-2.475"/><path fill="#0a1e44" d="M580 268c2.989 1.494 3.278 3.694 4.5 6.75l1.281 3.172c.766 1.934 1.5 3.88 2.188 5.844.942 2.552.942 2.552 4.031 4.234.983 1.7 1.961 3.403 2.902 5.127 1.73 2.95 3.923 5.492 6.16 8.06l1.443 1.683c3.317 3.845 6.733 7.592 10.183 11.317C629.124 332.04 635.659 350.602 635 375l-2.082.367-2.73.508-2.708.492c-2.707.545-2.707.545-5.48 2.633l1-3c.082-1.846.107-3.695.098-5.543l-.01-3.252-.025-3.392-.014-3.428q-.018-4.192-.049-8.385h-2l-.77-2.082-1.043-2.73-1.019-2.708c-1.175-2.495-2.006-3.802-4.168-5.48l-2.516-.902c-3.127-1.382-3.707-2.648-5.234-5.66-2.74-4.916-6.004-8.34-10.059-12.196C588 311.861 588 311.861 588 307l2-1-2.379-2.824C570.256 282.235 570.256 282.235 571 273l2.813-.25c3.272-.453 3.272-.453 5.062-2.812z"/><path fill="#204e84" d="m478 54 2 1c-.986 3.315-1.654 4.75-4.5 6.813C473 63 473 63 471 63l-.625 1.813c-1.912 3.042-4.096 3.849-7.375 5.187h-3v2c-1.61 1.691-1.61 1.691-3.75 3.563l-2.11 1.878c-2.16 1.573-3.588 1.973-6.14 2.559a283 283 0 0 0-5 5 159 159 0 0 1-5 3l-2.687 2.188C433 92 433 92 431 92c-1.7 1.373-3.333 2.83-4.937 4.313l-1.542 1.421c-6.187 5.777-12.11 11.832-18.02 17.89l-2.376 2.411-2.117 2.168c-1.94 1.737-3.663 2.713-6.008 3.797-1.727 1.626-1.727 1.626-3.312 3.563l-1.82 2.144a311 311 0 0 0-7.192 9.215C382 141 382 141 379.879 143.109c-2 1.839-2 1.839-3.254 4.391C375 150 375 150 372.25 151.75c-5.277 3.653-8.834 8.773-12 14.313L359 168h-3l-1 3-3 1c0-3.576 1.088-5.053 3-8l-3 1a70 70 0 0 1 3.5-6.437c1.542-2.455 1.542-2.455 2.344-4.903 3.653-8.405 11.692-15.45 17.836-22.12a223 223 0 0 0 5.57-6.352c7.829-9 16.514-17.637 25.75-25.188.51-.42 1.022-.839 1.548-1.27A766 766 0 0 1 422 88l1.729-1.36C439.746 74.144 458.644 60.58 478 54"/><path fill="#1a3864" d="M544 155a8476 8476 0 0 1 18.695-.055q3.154-.008 6.308-.02c12.887-.053 25.749.117 38.63.548 17.34.578 34.679.796 52.027.973 9.056.092 18.112.196 27.168.3l2.73.031c17.544.2 35.087.471 52.63.786l3.767.067q10.022.18 20.045.37c-2.738 2.738-5.699 2.905-9.375 3.563-4.734.814-4.734.814-9.386 1.974-3.217.665-6.4.591-9.67.562l-2.257-.01c-8.507-.063-17.008-.317-25.51-.584q-4.545-.142-9.09-.277-6.585-.196-13.171-.396c-40.364-1.22-80.729-2.242-121.104-3.02-1.107-.02-2.214-.042-3.354-.064Q543.042 159.362 523 159v-1l32-1-11-1z"/><path fill="#28507d" d="m577.119 266.88 3.055-.004 3.317.01h3.52c3.836 0 7.672.009 11.509.016l7.982.005q9.429.005 18.859.021 10.737.015 21.475.022 22.082.016 44.164.05v1l-104 1c2.59 6.178 2.59 6.178 6.187 11.25C596 283.672 596 283.672 596 287l1.375 1.375c2.003 2.003 2.695 3.978 3.625 6.625h3v3h4v2l3 1 1 7 1.812.188c3.08 1.143 3.612 2.989 5.188 5.812l2.187 2.125C623 318 623 318 623 321h2c1.762 1.863 1.762 1.863 3.687 4.313l1.95 2.425L632 330l-1 3h3l.375 2.938L635 339l2 1c.598 2.25.598 2.25 1.062 5 .343 3.3.343 3.3 1.938 6 .087 1.854.107 3.71.098 5.566l-.01 3.409-.026 3.588-.013 3.6A2999 2999 0 0 1 640 376l-3-1a69 69 0 0 1-2-7.562l-.516-2.308c-.98-4.46-1.814-8.935-2.576-13.437-2.63-15.245-8.576-24.589-18.908-35.693l-1.465-1.579-1.41-1.519c-4.804-5.176-9.43-10.376-13.75-15.964l-1.292-1.663c-1.843-2.427-3.111-4.36-4.083-7.275l-3-2c-.983-1.788-.983-1.788-1.824-3.914l-.928-2.305-.936-2.406-.97-2.43A921 921 0 0 1 581 269l-1.797 1.984C577 273 577 273 573.75 273.25L571 273c3.487 12.857 11.413 23.081 20 33l-3 1 1 4c-2.992-2.586-4.466-5.565-6.25-9.062-2.736-5.2-5.733-9.956-9.172-14.711C568 279.357 568 279.357 568 276l-3-1-1-5 3 1v-3a44.2 44.2 0 0 1 10.119-1.12"/><path fill="#1d406f" d="M548 511c1.3 3.815.894 7.276.563 11.25l-.31 3.828L548 529q4.469.04 8.938.063l2.458.025c6.16.023 12.277-.281 18.421-.67 9.442-.582 18.894-.89 28.347-1.234 16.81-.611 33.61-1.292 50.407-2.175 15.83-.832 31.573-1.299 47.429-1.009v2l19 1v1q-18.343.911-36.687 1.813l-2.778.136c-20.983 1.032-41.967 2.046-62.957 2.95l-2.414.103q-11.343.489-22.686.958-3.135.13-6.269.262-3.768.158-7.537.31c-6.915.291-13.786.768-20.672 1.468v1q-3.72.04-7.437.063l-2.143.025c-1.807.009-3.614-.036-5.42-.088-1.634-1.634-1.21-3.43-1.25-5.687.037-6.985 1.593-13.557 3.25-20.313"/><path fill="#173360" d="m685 564-1 3c-7.987 1.316-16.061 1.694-24.129 2.25l-3.527.25-3.182.219a100 100 0 0 0-6.47.795c-4.388.578-8.693.696-13.114.767l-2.726.056q-4.3.086-8.602.163c-10.886.201-21.766.414-32.64.969l-2.283.113c-3.523.193-7.005.477-10.505.931-3.217.41-6.35.674-9.588.803l-3.17.128-3.314.119-3.435.128c-10.108.353-20.202.412-30.315.309l2-4-11-1v-1c23.758-1.507 47.518-2.658 71.308-3.529q4.004-.146 8.006-.296c29.241-1.08 58.424-1.587 87.686-1.175"/><path fill="#224c7d" d="M544 193c56.059-.196 56.059-.196 79.009.574 14.348.477 28.7.697 43.053.926 21.319.344 42.628.794 63.938 1.5.367 11.758-.374 22.525-3 34h-1c-.221-5.748.439-10.944 1.466-16.597.54-3.437.854-6.828 1.1-10.298l.253-3.483L729 197q-6.168.177-12.335.372-2.1.066-4.2.125-3.012.088-6.024.187l-3.665.11c-2.683-.105-2.683-.105-3.776 1.206a77 77 0 0 1-4.734.13l-3.072.009-3.374-.006-3.5.003q-3.705 0-7.41-.006c-3.679-.005-7.357 0-11.035.007-11.627.003-23.223-.137-34.84-.64-16.419-.701-32.835-.611-49.265-.566q-6.247.014-12.495.02-12.137.016-24.275.049.231 2.874.467 5.746l.262 3.233c.316 3.518.789 6.968 1.333 10.458.61 3.91 1.049 7.605.938 11.563-1.626-2.926-2.384-5.43-2.852-8.738l-.39-2.737-.383-2.838-.406-2.802c-.895-6.422-1.69-12.543.031-18.885"/><path fill="#008de0" d="M439 590c5.914 2.73 10.477 6.357 15 11 2.107 1.778 3.74 2.904 6.328 3.863 2.881 1.226 4.953 2.718 7.422 4.637 4.81 3.576 9.768 6.72 14.938 9.75l2.122 1.248c5.99 3.476 12.07 6.813 18.565 9.252 4.05 1.571 7.989 3.318 11.934 5.13 14.86 6.783 29.659 10.733 45.64 14.066l3.414.722 3.072.634C570 651 570 651 573 653c-2 2-2 2-5.312 2.188C564 655 564 655 559 654l12 3v1c-36.206 1.058-77.452-24.484-106-45l-1.688-1.204c-6.76-4.842-12.98-10.049-19.035-15.73-2.296-2.186-2.296-2.186-5.277-4.066z"/><path fill="#0283d7" d="M667 648c-1.947 4.612-3.385 6.949-8 9-9.01 2.703-18.025 3.16-27.387 3.203l-2.964.017q-3.1.014-6.2.02c-3.083.01-6.165.04-9.248.072-13.632.07-26.754-1.078-40.201-3.312v-1l2.938-.875c3.169-.767 3.169-.767 4.062-3.125l-4-1 3.363.219c24.928 1.48 49.533 2.06 74.18-2.344 4.575-.808 8.818-1.053 13.457-.875"/><path fill="#183054" d="M507 581c0 2.487-.24 4.565-.625 7-.667 5.543.404 10.6 1.625 16 6.549 1.052 12.742.894 19.326.319 3.804-.309 6.958-.078 10.674.681 2.305-1.332 2.305-1.332 4-3l1 3 1.71-.504c2.417-.524 4.449-.526 6.915-.433 3.559.046 6.664-.246 10.125-1.063 5.463-1.244 10.765-1.112 16.344-.973 2.845.186 2.845.186 4.906-1.027a68 68 0 0 1 4.125 0c3.626.04 7.085-.218 10.684-.71 8.662-1.144 17.237-1.391 25.96-1.253 3.934.045 7.368-.248 11.231-1.037 2.592-.044 5.16-.046 7.75 0 5.165.051 10.188-.082 15.309-.781 2.023-.228 3.968-.25 6.004-.219 3.864.089 3.864.089 7.367-.469 6.991-.919 14.063-.923 21.103-1.136 9.879-.25 9.879-.25 19.467-2.395a83 83 0 0 1 4.797-.062l2.883.025 3.07.037c7.964.054 15.784-.143 23.723-.777 6.173-.39 12.343-.302 18.527-.223-7.01 7.01-29.486 4.183-38.945 4.438-14.135.428-28.225 1.254-42.333 2.233-6.636.46-13.273.901-19.91 1.345l-3.918.263a2663 2663 0 0 1-31.019 1.909l-2.165.12c-9.965.545-19.93.915-29.906 1.228-12.788.455-25.545 1.428-38.306 2.36-11.161.815-22.321 1.535-33.498 2.104l-2.16.11c-8.944.44-15.242-.104-22.84-5.11l3-1-.07-3.36q-.029-2.194-.055-4.39l-.05-2.21c-.064-6.94-.064-6.94 2.175-10.04z"/><path fill="#183258" d="M749 508h1c1.486 6.397 1.264 12.84 1.313 19.375l.087 3.945c.085 12.788.085 12.788-4.4 17.68-6.225 3.023-12.756 3.561-19.566 3.879l-3.063.173c-3.31.182-6.622.347-9.933.51l-6.994.373c-7.147.377-14.295.725-21.444 1.065l-3.29.158c-22.71 1.08-45.417 1.915-68.147 2.395-13.282.284-26.544.791-39.813 1.447l-2.596.127c-8.796.436-17.577.929-26.353 1.665-8.347.62-15.115.755-22.801-2.792l1-5 1.53 2.477c2.292 2.846 2.292 2.846 5.89 3.044q2.053-.036 4.103-.15l2.252-.063c2.41-.076 4.817-.19 7.225-.308q2.418-.097 4.837-.19c4.1-.171 8.198-.382 12.296-.61 2.525-.14 5.05-.27 7.574-.401l4.895-.264 2.247-.117c4.432-.25 8.754-.79 13.151-1.418a84 84 0 0 1 4.777-.027l2.557.037q2.598.053 5.195.117c4.157.054 7.828-.084 11.85-1.193C618 553 618 553 619.732 553.463c3.4.805 6.728.427 10.182.197l2.332-.139q3.69-.222 7.379-.458 4.831-.302 9.664-.59l2.336-.141c4.828-.279 9.629-.424 14.467-.32 2.556-.016 5.04-.42 7.564-.793 4.38-.409 8.779-.233 13.172-.157 2.967.078 2.967.078 4.92-.565 3.18-.702 6.206-.557 9.459-.509 7.821.064 15.59-.205 23.397-.678 2.12-.125 4.241-.23 6.363-.335q2.054-.12 4.107-.245l3.675-.206c3.556-.573 5.487-1.217 8.251-3.524 2.122-4.45 2.236-8.489 2.195-13.367l-.008-2.06a960 960 0 0 0-.062-6.448q-.016-2.199-.027-4.398-.035-5.364-.098-10.727"/><path fill="#036bb5" d="m467 63-2.225 1.446c-13.542 8.833-26.866 17.635-39.158 28.181-2.472 2.099-5.02 4.102-7.555 6.123-5.82 4.76-11.042 10.042-16.19 15.512C400 116 400 116 398 116l-1 3h-2l-.738 1.738c-1.485 2.662-3.236 4.358-5.45 6.45-5.322 5.193-9.67 10.896-14.062 16.874L373 146h-3l1-4h2l.813-2.187c1.722-4.08 3.455-7.118 6.687-10.188 2.683-2.484 2.683-2.484 3.77-5.883 1.768-4.315 4.571-7.073 7.918-10.242.88-.855.88-.855 1.78-1.726A470 470 0 0 1 399 107l2.105-1.973A172 172 0 0 1 407 100l1.552-1.275c12.681-10.376 25.606-20.1 39.51-28.787l2.706-1.7c11.23-6.905 11.23-6.905 16.232-5.238"/><path fill="#204a7e" d="m700 290 1 2c-9.858 15.169-20.392 29.935-32.812 43.125-6.042 6.664-8.522 13.016-9.188 21.875l-.309 2.184c-1.357 9.666.417 16.945 4.309 25.816l1.016 2.738c1.244 2.858 2.24 2.93 4.984 4.262 1.26 1.454 2.517 2.913 3.71 4.422 1.432 1.806 1.432 1.806 3.852 4.14C679 403 679 403 681.188 405.75c1.616 2.325 1.616 2.325 3.813 3.25a272 272 0 0 1 3 5 323 323 0 0 0 4.313 5.813l1.21 1.612c1.67 2.221 3.353 4.424 5.118 6.571 4.482 5.53 7.375 11.776 10.464 18.145 1.818 3.742 3.793 7.37 5.887 10.964 1.192 2.24 2.094 4.53 3.008 6.895l.93 2.254c4.356 10.639 7.53 21.154 9.763 32.423l.475 2.393.415 2.15c.366 1.87.366 1.87 1.417 3.78 0 1.853-.004 3.706-.031 5.559.057 4.5.57 8.968 1.031 13.441l-2 1-.367-3.91-.508-5.153-.238-2.568c-.504-5.016-1.453-9.52-2.887-14.369q-.45-2.58-.863-5.168c-1.108-6.307-3.115-12.148-5.324-18.144l-1.206-3.314c-2.626-7.084-5.523-13.856-9.1-20.507C708 451 708 451 706.466 447.383c-1.186-2.738-2.335-4.958-4.028-7.383a411 411 0 0 1-5.769-8.559C691.79 423.983 686.773 416.808 681 410l-1.664-1.965c-4.035-4.676-8.226-9.211-12.429-13.736-10.545-11.408-12.81-21.078-12.278-36.385.591-9.81 4.13-15.156 10.816-22.16 4.39-4.731 8.25-9.88 12.186-14.987a560 560 0 0 1 3.974-5.06c4.881-6.192 9.36-12.519 13.528-19.215 1.493-2.395 2.863-4.488 4.867-6.492"/><path fill="#142f5b" d="m304 305 3 1q-.212 3.407-.437 6.813l-.247 3.832C306 320 306 320 305 323c-.067 2.515.002 5.012.063 7.527-.06 2.381-.472 4.178-1.063 6.473-.814 5.565-1.148 10.947-1.133 16.566l-.003 2.414q0 2.517.006 5.035c.005 2.516 0 5.033-.007 7.55-.269 16.18-.269 16.18 1.734 32.16C305 403 305 403 304 406l2 1-1 3c.363 2.886.795 5.704 1.313 8.563l.431 2.469q.616 3.486 1.256 6.968l.543 2.988c1.226 6.4 2.838 12.702 4.457 19.012a495 495 0 0 1 4 17h2l-.25 2.5c.283 3.965 1.45 6.197 3.305 9.633 1.149 2.27 1.518 4.364 1.945 6.867.758 2.318 1.56 4.617 2.379 6.914C327 495 327 495 327 498h2v8c-3.067-1.533-3.4-4.41-4.437-7.5l-.748-2.175c-.947-2.772-1.88-5.548-2.815-8.325q-.652-1.923-1.307-3.846-1.829-5.384-3.641-10.772-.732-2.17-1.466-4.34c-3.91-11.56-7.387-22.856-8.586-35.042l-1-1c-.706-3.879-1.2-7.79-1.73-11.697-.263-1.938-.536-3.875-.81-5.813-2.278-16.606-2.73-33.002-2.772-49.74l-.012-3.387c-.032-19.38 1.284-38.225 4.324-57.363"/><path fill="#175fa1" d="M625.77 64.664c3.19.024 6.379.02 9.568.014 11.05.016 21.762.413 32.662 2.322v3l-3.187.375c-3.645.423-3.645.423-6.11 1.688-3.495 1.212-6.067.898-9.75.558-7.832-.61-15.615-.695-23.469-.648l-3.618.017q-7.463.04-14.924.106c-3.673.03-7.347.048-11.02.064l-3.406.04-3.17.011-2.771.023c-2.84-.258-4.992-1.057-7.575-2.234 11.738-7.826 33.19-5.445 46.77-5.336"/><path fill="#1c3b65" d="M575 494h1l-.07 3.14q-.029 2.055-.055 4.11l-.05 2.066c-.037 3.745.096 6.508 2.175 9.684l1.773-.184c15.015-1.465 30.08-1.945 45.152-2.441q11.384-.374 22.763-.875c10.164-.443 20.33-.764 30.5-1.062l2.278-.068c13.54-.398 13.54-.398 18.534-.37l1 3c-3.928 1.31-7.77 1.33-11.871 1.5l-2.716.122q-4.425.195-8.85.378l-3.073.131A2097 2097 0 0 1 574 515q-.04-4.407-.062-8.812l-.026-2.526-.01-2.432-.016-2.237C574 497 574 497 575 494"/><path fill="#1d3c6a" d="m742.813 557.938 3.019.027L748 558v1l-2.187.152c-3.251.231-6.5.477-9.75.723l-3.444.238-3.271.254-3.031.222L724 561l-1 2 15 1v1c-15.341 1.52-30.679 2.602-46.072 3.433-3.584.194-7.168.396-10.752.598l-6.965.383-3.183.18c-7.015.373-14.003.472-21.028.406v-1l2.367-.168q5.348-.382 10.696-.77l3.724-.263c8.655-.522 8.655-.522 17.213-1.799l1-2-1.922.219c-10.024.997-20.015.87-30.078.781l-1-2c18.785-1.43 37.57-2.467 56.39-3.302 8.344-.374 16.661-.819 24.986-1.504 3.151-.233 6.278-.295 9.437-.256"/><path fill="#0079cc" d="m756 562 3.813 1.063L763 564l1 2a85483 85483 0 0 1-101.048 5.386c-52.774 2.796-52.774 2.796-65.827 2.677l-3.023-.014Q590.55 574.03 587 574v-1l1.978-.107q23.904-1.287 47.807-2.58l23.12-1.247 20.167-1.089 10.663-.575q5.974-.322 11.947-.646l3.514-.187c7.61-.416 15.207-.954 22.804-1.569l-6-2 1-3c25.37-1.917 25.37-1.917 32 2"/><path fill="#1e406b" d="M404 614c3.832 1.561 6.174 4.029 9 7l1.625 1.5c1.81 1.974 3.018 4.198 4.375 6.5l2 2c2.603-.32 2.603-.32 5-1l1 5 4-1 .656 2.73c1.63 3.964 3.33 5.2 6.844 7.582l2.969 2.051c2.395 1.615 2.395 1.615 4.531 2.637v2h3v2l4-1v3l3 1c2.839 1.783 5.62 3.642 8.406 5.504 2.528 1.746 2.528 1.746 5.594 1.496v2l2 1c-3 1-3 1-4.923.262l-2.182-1.219-2.457-1.358-2.625-1.497-2.71-1.524c-11.865-6.724-23.276-13.724-33.974-22.2a227 227 0 0 0-6.602-5.023l-1.698-1.243a1752 1752 0 0 0-4.661-3.385L408 627v-2l-3-1 2-1c.452-3.879.452-3.879-1.5-5.625L404 616z"/><path fill="#1d4172" d="m631.375 61.625 3.202-.005c11.964.002 23.615.336 35.423 2.38v1h-9v1l-2.016-.02c-7.043-.068-14.085-.112-21.129-.145q-3.921-.022-7.842-.061c-16.289-.16-31.945.451-48.013 3.226 1.888 2.329 1.888 2.329 5.04 2.195l3.585-.07 3.602-.055L597 71v1c-3.562.506-7.124 1.003-10.687 1.5l-3.053.434-2.96.41-2.713.38c-2.551.272-5.024.324-7.587.276l1.813-.875c2.38-1.172 2.38-1.172 5.187-3.125h-12v-2l2.371-.402 3.067-.535 3.058-.528c2.433-.283 2.433-.283 3.504-1.535 17.79-4.28 36.197-4.394 54.375-4.375"/><path fill="#1261a5" d="M583 268c1.813.063 1.813.063 4 1 .734 1.634 1.454 3.277 2.074 4.957 1.417 3.125 3.55 5.608 5.719 8.246C596 284 596 284 596 287l1.375 1.375c2.003 2.003 2.695 3.978 3.625 6.625h3v3h4v2l3 1 1 7 1.813.188c3.08 1.143 3.611 2.989 5.187 5.812l2.188 2.125C623 318 623 318 623 321h2c1.762 1.863 1.762 1.863 3.688 4.313l1.949 2.425L632 330l-1 3h3l.375 2.938L635 339l2 1c.598 2.25.598 2.25 1.063 5 .342 3.3.342 3.3 1.937 6a91 91 0 0 1 .098 5.129l-.01 3.135-.025 3.298-.014 3.311q-.018 4.064-.049 8.127h-2l-.152-1.661c-1.437-17.955-1.437-17.955-5.848-35.339v-2h-2l-.988-2.082-1.324-2.73-1.301-2.708c-1.277-2.283-2.541-3.678-4.387-5.48v-2l-3-1c-1.543-1.496-1.543-1.496-3.187-3.437l-1.848-2.172a535 535 0 0 1-6.09-7.579A101 101 0 0 0 599 296c-4-4.649-4-4.649-4-7h-2l-3-9h-2c-1.718-3.982-3.41-7.965-5-12"/><path fill="#0095e0" d="M439 590c5.941 2.742 10.408 6.408 15 11 2.919 2.443 5.95 4.724 9 7l3.098 2.32c8.92 6.581 18.223 12.29 27.902 17.68l2.598 1.462C520.06 642.565 544.997 650.596 571 657v1c-36.206 1.058-77.452-24.484-106-45l-1.688-1.204c-6.76-4.842-12.98-10.049-19.035-15.73-2.296-2.186-2.296-2.186-5.277-4.066z"/><path fill="#234368" d="M530 84c-2.745 1.83-4.84 2.727-7.926 3.773-35.705 12.71-65.833 35.926-92.449 62.352l-2.775 2.746C420.81 158.941 415.324 165.3 410 172a1012 1012 0 0 1-5 6c0-3.99 1.39-5.036 3.938-8.062l2.488-2.961a521 521 0 0 1 9.43-10.606c2.65-2.93 5.2-5.941 7.734-8.973C430 146 430 146 432 146l.781-1.8c1.326-2.393 2.623-3.648 4.719-5.387a274 274 0 0 0 9.188-8.125c18.257-16.463 39.669-30.5 61.855-41.028 3.06-1.47 5.993-3.072 8.957-4.722 4.58-2.33 7.553-2.129 12.5-.938"/><path fill="#1560a1" d="M384 122c.64 1.809.64 1.809 1 4-2.034 2.768-4.046 5.122-6.562 7.438-1.511 1.642-2.424 3.237-3.5 5.187C373 142 373 142 371 143l-1 3 2 1-2.25 3c-2.309 3.219-4.061 6.508-5.781 10.066-1.444 2.882-2.99 5.382-4.969 7.934h-3l-1 3-3 1c0-3.576 1.088-5.053 3-8l-3 1a70 70 0 0 1 3.5-6.437c1.542-2.455 1.542-2.455 2.344-4.903 3.657-8.413 11.704-15.452 17.847-22.133 2.846-3.115 5.587-6.304 8.309-9.527"/><path fill="#0987c8" d="m467 63-2.225 1.446C450.62 73.679 436.832 82.959 424 94a568 568 0 0 1-5.75 4.875l-2.234 1.93C414 102 414 102 411.734 101.695L410 101c5.641-7.947 11.986-13.536 20-19l1.796-1.235A583 583 0 0 1 445 72l1.837-1.187a611 611 0 0 1 5.226-3.313c1.001-.63 2.003-1.258 3.035-1.906C462.533 61.51 462.533 61.51 467 63"/><path fill="#115f98" d="m685 643-2 1c-1.42 2.462-2.26 4.809-3.133 7.531C678 655 678 655 674.847 656.305l-3.784.57-2 .323c-5.985.923-12.019 1.476-18.063 1.802 2.734-1.823 4.416-2.475 7.5-3.312 3.42-1.08 4.3-1.427 6.563-4.375L666 649c-6.809-.317-13.296.908-20 2-9.775 1.533-19.11 2.596-29 2v-1l1.746-.12c18.2-1.3 36.09-3.562 53.727-8.353 4.171-.87 8.29-.78 12.527-.527"/><path fill="#214c79" d="M710 158h56c-2.738 2.738-5.699 2.905-9.375 3.563-4.845.85-4.845.85-9.617 2.019-3.228.672-6.476.564-9.758.543l-2.247-.01c-21.626-.197-21.626-.197-26.003-3.115z"/><path fill="#254a70" d="M581 23c-3.437 2.292-5.493 2.468-9.562 2.938-5.03.665-9.617 1.569-14.422 3.152-3.385 1.022-6.795 1.834-10.234 2.651-7.611 1.816-14.824 3.776-21.981 7.005-3.14 1.406-6.328 2.612-9.551 3.816-4.936 1.878-9.564 4.011-14.25 6.438l-2.34.914c-4.096 1.672-7.927 3.845-11.82 5.941-2.942 1.186-3.97 1.336-6.84.145v-3q6.818-2.867 13.647-5.707 2.312-.963 4.62-1.934C508.704 40.969 519.146 37.215 530 34q2.565-.806 5.129-1.625a331 331 0 0 1 27.121-7.25l2.885-.652C570.546 23.314 575.468 22.779 581 23"/><path fill="#20538d" d="m478 54 2 1c-.986 3.315-1.654 4.75-4.5 6.813C473 63 473 63 471 63l-.625 1.813c-1.912 3.042-4.096 3.849-7.375 5.187h-3v2c-1.61 1.691-1.61 1.691-3.75 3.563l-2.11 1.878c-2.16 1.573-3.588 1.973-6.14 2.559a283 283 0 0 0-5 5 159 159 0 0 1-5 3 207 207 0 0 0-5 4c4.105-8.294 7.841-13.257 15.813-18.187l2.33-1.499A592 592 0 0 1 458 68l4.574-2.863L466 63l-6 1c2.784-3.43 6.645-4.949 10.563-6.75l2.076-.996c1.757-.818 3.557-1.543 5.361-2.254"/><path fill="#215081" d="m577 70 1 2c-6.774 2.776-13.612 4.421-20.75 6l-6.672 1.5-3.296.737c-4.26.99-8.485 2.103-12.708 3.243-3.526.712-6.108.386-9.574-.48 3.516-3.062 7.466-4.456 11.813-5.937l2.282-.782c2.297-.775 4.6-1.531 6.905-2.281l2.002-.664c9.865-3.205 18.76-3.82 28.998-3.336"/><path fill="#21487d" d="M625 411c0 3 0 3-1.312 4.375L622 417l-1.121 2.125c-2.665 4.077-6.119 7.148-9.629 10.5-6.156 6.01-11.01 11.856-15.25 19.375a404 404 0 0 1-3.187 4.563c-2.59 3.837-4.217 7.712-5.813 12.042-.977 2.34-2.12 4.195-3.562 6.27-4.304 6.514-5.224 14.548-6.438 22.125h-1c-1.977-21.75 12.758-43.105 26-59 7.221-8.413 15.095-16.235 23-24"/><path fill="#195997" d="M624 571v1l-21 1 1 2c-5.668.822-11.092 1.101-16.812 1-5.67-.162-5.67-.162-11.188 1-2.02.047-4.042.037-6.062 0-7.2-.08-14.37.189-21.563.5-11.466.486-22.9.61-34.375.5v-2l1.953-.076c2.974-.117 5.948-.24 8.922-.361l3.07-.12c4.683-.195 9.332-.438 13.992-.947 7.18-.77 14.393-.879 21.606-1.101 5.891-.2 11.618-.605 17.457-1.395 2.83-.246 5.663-.413 8.5-.562l2.407-.13c10.691-.508 21.394-.397 32.093-.308"/><path fill="#046cb6" d="M688 460c1.805.563 1.805.563 4 2a58.5 58.5 0 0 1 3.125 7l.786 2.063c3.775 10.18 4.543 20.155 5.089 30.937h-2l-.621-2.082-.817-2.73-.808-2.708A216 216 0 0 0 695 489h-3l-1-5-3-1 3-1-1-1.5c-1.4-3.498-1-6.757-1-10.5l-1.062-2.125c-1.394-2.787-.609-4.924.062-7.875"/><path fill="#254161" d="M749 508h1c1.486 6.397 1.264 12.84 1.313 19.375l.087 3.945c.085 12.788.085 12.788-4.4 17.68-5.588 2.626-11.285 3.497-17.395 3.684l-2.426.1c-11.615.423-23.245.322-34.866.279q-3.555-.009-7.112-.014-8.6-.017-17.201-.049c2.944-1.552 4.843-2.24 8.188-2.16l2.367.033 2.445.064q2.406.053 4.813.09l2.144.055c2.028-.004 2.028-.004 3.854-.583 3.153-.719 6.166-.558 9.396-.51 7.821.063 15.59-.206 23.397-.679 2.12-.125 4.241-.23 6.363-.335q2.054-.12 4.107-.245l3.675-.206c3.556-.573 5.487-1.217 8.251-3.524 2.122-4.45 2.236-8.489 2.195-13.367l-.008-2.06a960 960 0 0 0-.062-6.448q-.016-2.199-.027-4.398-.035-5.364-.098-10.727"/><path fill="#21538b" d="m543.938 168.75 3.806.055q4.628.07 9.256.195v1l-28 1-2 5a175 175 0 0 1-2 4h-2c.111 3.48.242 6.959.375 10.438.03.973.062 1.947.094 2.95.217 5.41.78 10.424 2.076 15.68.572 2.431.798 4.817.955 7.307.3 3.88.821 7.617 1.563 11.438.733 3.794 1.147 7.305.937 11.187-2.409-2.409-2.566-3.756-3.254-7.059l-.65-3.11-.659-3.268c-.22-1.044-.442-2.087-.67-3.163-2.248-10.945-2.948-21.618-2.955-32.775l-.037-3.191-.005-3.082-.013-2.756c.425-4.539 1.485-6.964 4.997-9.893 5.619-2.896 12.04-2.12 18.183-1.953"/><path fill="#1e3f6e" d="M661 196h69c0 20.25 0 20.25-1.5 27.125l-.434 2.066c-.339 1.607-.7 3.209-1.066 4.809h-1c-.221-5.748.439-10.944 1.466-16.597.54-3.437.854-6.828 1.1-10.298l.253-3.483L729 197q-6.168.177-12.335.372-2.1.066-4.2.125-3.012.088-6.024.187l-3.665.11c-2.683-.105-2.683-.105-3.776 1.206a91 91 0 0 1-5.162.114H690.5l-3.63-.016-3.695-.005c-3.913-.005-7.826-.018-11.739-.03q-3.967-.008-7.935-.014-9.75-.017-19.502-.049v-1l17-1z"/><path fill="#224d82" d="m830 565 2 2c-10.826 12.703-22.658 24.93-36 35l-4.117 3.164q-2.19 1.67-4.383 3.336l-2.108 1.605-1.986 1.489-1.771 1.334C780 614 780 614 777 615l-2-2q2.682-2.008 5.375-4l3.023-2.25C786 605 786 605 788 605v-2c5.412-4 5.412-4 8-4l.742-1.793c1.474-2.586 2.986-3.77 5.383-5.52 7.942-5.43 7.942-5.43 13.875-12.687h2l.75-1.687c2.82-5.217 6.682-8.679 11.25-12.313"/><path fill="#1f5692" d="m529 239 3 1 1 8h2l1 7 2-3 .25 3.875c.66 6.033 2.37 12.746 6.75 17.125 1.442 2.434 2.174 4.627 2.938 7.375 1.026 3.502 2.254 6.46 4.062 9.625l2 1v3h2l.875 2.875c.893 3.177.893 3.177 3.125 5.125v3l2 1c2.188 2.875 2.188 2.875 4 6l-1 3c-14.811-20.571-25.666-42.074-34-66l-1.148-3.172C529 243 529 243 529 239"/><path fill="#122748" d="m591 566-1 2 1.75-.016c12.462-.097 24.82.093 37.25 1.016v1a57.3 57.3 0 0 1-10.07 1.316l-2.942.128-3.113.119-3.2.128c-9.56.358-19.108.41-28.675.309l1.938-.875c2.214-.953 2.214-.953 3.062-3.125q-7.72.213-15.437.438l-2.303.066c-8.24.243-16.473.491-24.697 1.058-8.524.57-17.025.528-25.563.438v-1c16.66-1.05 33.316-2.058 50-2.625l3.532-.12A496 496 0 0 1 591 566"/><path fill="#1076b8" d="M651 416c2.125-.437 2.125-.437 5 0 1.64 1.552 2.957 3.248 4.348 5.027 1.664 1.987 3.384 3.478 5.402 5.098 8.467 7.22 21.014 21.62 22.25 32.875l-1 2h-2l-.375-2.437L684 456l-2-1v-3l-5 1 1-8h-2c-2.072-2.653-3.932-5.425-5.832-8.203-2.173-2.803-4.366-4.65-7.168-6.797a98 98 0 0 1-3.75-4.062l-1.797-2.036C656 422 656 422 655 419c-2-1.209-2-1.209-4-2z"/><path fill="#1f4373" d="m676.938 156.7 2.656-.014q2.778-.008 5.557-.002c2.838.003 5.675-.02 8.513-.045q2.7-.004 5.399-.002l2.575-.028c5.927.046 5.927.046 8.047 1.727C711 160 711 160 712 163c-9.348.122-18.66-.042-28-.437l-2.928-.12c-5.407-.243-10.711-.69-16.072-1.443v-2c3.945-2.63 7.358-2.306 11.938-2.3"/><path fill="#0185d6" d="M560 266c3.132 2.819 4.503 5.107 6 9l1.387 1.367c1.884 1.907 3.034 3.869 4.363 6.195a120 120 0 0 0 6.75 10.313c4.48 6.291 8.94 13.47 10.5 21.125l-3-1v-2h-2v-3h-2v-3h-3l-1.187-2.687c-1.614-3.384-1.614-3.384-4.313-5.563-3.478-3.825-4.224-7.833-5.5-12.75-1.086-3.813-1.086-3.813-4-6a179 179 0 0 1-2-4l-2-2c-.125-3.125-.125-3.125 0-6"/><path fill="#026db8" d="M432 136h3v2c-2.5 1.625-2.5 1.625-5 3zm-6 3 2.25 1.563c2.582 1.686 2.582 1.686 5.063 1.125L435 141c-2.675 4.927-6.261 8.341-10.29 12.184A148 148 0 0 0 411 168.375l-1.42 1.802c-2.196 2.842-3.997 5.612-5.58 8.823-2.625 2.25-2.625 2.25-5 4 .588-3.024 1.227-6.018 2-9h3l2-4h2l.813-1.785c1.192-2.224 2.48-3.805 4.187-5.653 2.433-2.74 3.688-5.13 5-8.562l3-1v-6h2l1-5h2z"/><path fill="#006ebc" d="m630 65-1 2a97 97 0 0 1-7.937 1.5l-2.499.38c-7.455 1.07-14.935 1.802-22.439 2.433l-3.402.304-3.215.246-2.855.228c-2.95-.101-4.995-.847-7.653-2.091 4.057-2.705 7.789-2.972 12.563-3.625l2.887-.4c11.818-1.472 23.664-1.253 35.55-.975"/><path fill="#041136" d="m656 342 2 1c-.429 3.503-.923 6.758-2 10.125-1.675 5.436-1.678 11.232-2 16.875l-5 1v-4h-2c-.977-6.055-.977-6.055-1-8l2-2c.539-2.29.887-4.58 1.242-6.906.758-2.094.758-2.094 2.75-3.242L654 346c1.268-2.034 1.268-2.034 2-4"/><path fill="#0f223f" d="M873 276c2.445 2.445 2.726 4.17 3.563 7.5.944 3.852.944 3.852 2.437 7.5.04 2 .043 4 0 6l3 1-.559 1.96c-.585 4.031-.055 7.652.496 11.665C883 319.741 883 319.741 883 323l4 1c.254 6.484.254 6.484-1.031 9.094-1.474 4.42-.92 8.617-.594 13.219l.172 2.822q.21 3.433.453 6.865l-2 1-.32-3.662c-.4-4.574-.811-9.147-1.224-13.72q-.265-2.945-.52-5.889c-1.435-16.435-3.3-32.617-7.66-48.569-.86-3.233-1.276-5.77-1.276-9.16"/><path fill="#145fa1" d="m515.352 123.902 2.578.01 2.695.025 2.719.014q3.328.018 6.656.049v1l-3.832.113q-2.49.099-4.98.2l-2.526.068-2.432.107-2.237.08c-2.503.543-3.414 1.451-4.993 3.432-1.537 5.416-1.014 9.787 1 15 .125 2.875.125 2.875 0 5h7l1 2 1.984-.035c7.06-.07 13.992.349 21.016 1.035v1c-4.562.087-9.125.14-13.687.188l-3.92.076-3.78.029-3.475.048c-3.507-.381-5.283-1.324-8.138-3.341l-3-2c-.827-2.93-.84-5.968-1-9l-.23-2.676c-.14-2.54-.185-4.814.23-7.324 3.477-3.752 6.343-5.131 11.352-5.098"/><path fill="#0092e4" d="M756 562c1.989.7 3.986 1.377 6 2v1q-7.367-.178-14.734-.372-2.505-.066-5.01-.125-3.605-.088-7.21-.187l-2.257-.05c-3.384-.097-6.55-.227-9.789-1.266l1-3c25.505-1.927 25.505-1.927 32 2"/><path fill="#193153" d="M615 157v1l-7 1v1c-28.345.178-56.663-.338-85-1v-1c61.46-1.21 61.46-1.21 92-1"/><path fill="#162c4d" d="M507 581c0 2.487-.24 4.565-.625 7-.667 5.543.404 10.6 1.625 16 5.78.929 11.114.921 16.938.438 6.328-.514 11.945-.217 18.062 1.562v1a982 982 0 0 1-15.567.88q-2.299.113-4.597.248c-8.918.504-15.28-.15-22.836-5.128l3-1-.07-3.36q-.029-2.194-.055-4.39l-.05-2.21c-.064-6.94-.064-6.94 2.175-10.04z"/><path fill="#008fde" d="M876 216c2.658 2.37 4.112 4.82 5.688 8l1.324 2.625C884 229 884 229 884 232h2l.324 2.086c.79 3.407 2.064 6.345 3.489 9.539 3.428 7.822 6.68 15.648 8.62 23.988.82 3.456 1.725 6.89 2.63 10.325l.529 2.047c.67 3.28.67 3.28 2.408 6.015-.176 2.69-.618 5.329-1 8-1.442-2.68-2.364-5.092-2.973-8.07-4.956-23.023-13.28-44.488-23.16-65.82C876 218 876 218 876 216"/><path fill="#182d4b" d="M291 315h1q.04 3.844.063 7.688l.025 2.126c.02 4.412-.197 8.744-.584 13.14-.622 7.586-.655 15.141-.634 22.748.005 2.36 0 4.72-.007 7.081-.003 7.579.185 15.041.914 22.592.336 3.962.332 7.902.286 11.875l-.014 2.293q-.02 2.729-.049 5.457h-1c-2.22-14.818-2.312-29.585-2.26-44.541.01-3.406.004-6.812-.008-10.219-.077-26.94-.077-26.94 2.268-40.24"/><path fill="#193564" d="m304 305 3 1q-.212 3.407-.437 6.813l-.247 3.832C306 320 306 320 305 323c-.067 2.515.002 5.012.063 7.527-.06 2.381-.472 4.178-1.063 6.473-1.015 6.417-1.088 12.638-1 19.125.154 11.519.154 11.519-1 16.875h-1q-.255-5.124-.5-10.25l-.145-2.875c-.14-2.958-.254-5.915-.355-8.875l-.102-2.788c-.175-9.087.973-17.966 2.102-26.962l.578-4.75q.701-5.75 1.422-11.5"/><path fill="#245484" d="M748 558v1l-2.187.152c-3.251.231-6.5.477-9.75.723l-3.444.238-3.271.254-3.031.222L724 561l-1 2 15 1v1q-5.312.506-10.625 1c-.999.095-1.998.19-3.027.29-4.8.444-9.522.842-14.348.71l3-2-7-2v-2c5.377-1.524 10.952-1.644 16.5-2.062l3.398-.276A240 240 0 0 1 748 558"/><path fill="#061635" d="m702.776 196.886 3.665.016 3.955.01 4.166.025q2.09.008 4.178.014 5.13.018 10.26.049v1l-2.012.332c-7.043 1.078-7.043 1.078-12.988 4.668-.417 3.126-.417 3.126 0 6h2c-.645 3.483-2.041 6.062-4 9h-1v-17l-23-1v-1l2.371-.184 3.066-.254c1.01-.08 2.02-.162 3.06-.246 3-.379 3.168-1.302 6.279-1.43"/><path fill="#091830" d="M713 508h1l-.125 3.75c.008 4.295.87 6.577 3.438 10 2.282 1.69 3.917 1.475 6.687 1.25v4q-4.437.04-8.875.063l-2.55.025-2.442.01-2.254.016C706 527 706 527 704 526v-2h-11v-1l19-1-.062-6.437A153 153 0 0 1 712 509z"/><path fill="#0098e2" d="M620 268h61l-1 3c-10.34.08-20.655-.206-30.986-.573-9.343-.328-18.665-.493-28.014-.427z"/><path fill="#205188" d="M680 656v1q-5.686.975-11.375 1.938l-3.215.552c-12.633 2.132-24.753 2.64-37.535 2.572q-2.46-.008-4.922-.013A4869 4869 0 0 1 611 662v-1l2.512-.152c29.721-1.39 29.721-1.39 59.113-5.578 2.677-.304 4.775.075 7.375.73"/><path fill="#0074c6" d="M667 648c-1.947 4.612-3.385 6.949-8 9-4.344 1.401-8.406 2.287-13 2l3-1c.6-1.902.6-1.902 1-4l2-3-4-1c6.43-1.324 12.43-2.248 19-2"/><path fill="#254f78" d="M460 605c3.95 1.788 7.43 4.255 11 6.688 12.103 8.153 24.38 15.065 38 20.312l-2 3c-5.87-1.615-10.831-4.538-16.062-7.562l-2.821-1.624c-9.959-5.793-19.65-11.939-28.117-19.814z"/><path fill="#006cba" d="M611 339c3.076.56 5.315 1.062 7.219 3.668 3.719 7.283 5.087 14.164 4.906 22.27l-.027 2.36c-.024 1.901-.06 3.802-.098 5.702h-1c-1.774-4.63-2.396-8.96-2.625-13.875l-.117-2.086q-.138-2.52-.258-5.039h-2l-.75-1.937c-1.066-2.25-1.066-2.25-3.375-2.813L611 347l.563-1.75c.477-2.457.194-3.894-.563-6.25"/><path fill="#0d234b" d="m594 443 1 2a119 119 0 0 1-4.125 7c-4.1 6.64-8.168 13.294-10.84 20.66-1.356 3.066-3.096 3.87-6.035 5.34.257-7.056 2.509-11.556 7-17l2-1 1-3h2l-.75-2.25C585 452 585 452 586.625 450l2.375-2 2.75-2.75z"/><path fill="#214d84" d="M589 344c2 0 2 0 3.313 1.188L594 347l2.375 2.25L599 352l1.434 1.422c4.029 4.611 4.542 9.292 4.308 15.305-1.348 5.944-5.474 9.185-9.742 13.273a189 189 0 0 0-4.125 5.125c-3.485 4.422-7.123 8.678-10.875 12.875l-2-3 1.723-1.434c4.799-4.11 8.853-8.249 12.57-13.359 1.726-2.231 3.62-4.06 5.644-6.02 3.025-3.383 3.548-5.794 3.625-10.312-.27-4.203-.575-8.1-2.562-11.875l-1.875-.926c-2.423-1.225-3.654-2.554-5.375-4.637l-1.578-1.878C589 345 589 345 589 344"/><path fill="#1c5a98" d="m368 140 1 2c-1.472 3.736-1.472 3.736-4 5-1.36 2.163-1.36 2.163-2.625 4.75l-1.352 2.61c-1.07 2.76-1.223 4.71-1.023 7.64l3-2c-1.125 2.972-2.223 5.334-4 8h-3l-1 3-3 1c0-3.576 1.088-5.053 3-8l-3 1a70 70 0 0 1 3.5-6.437c1.541-2.446 1.541-2.446 2.305-4.86 1.475-3.336 3.471-5.73 5.82-8.516l2.477-2.957z"/><path fill="#050a0f" d="M590 309h2v2l3 1c1.473 1.426 1.473 1.426 3.063 3.313l1.824 2.164L602 320q1.32 1.514 2.645 3.023l2.73 3.164 2.586 2.981c2.003 2.782 2.707 4.466 3.039 7.832-4.711-1.82-6.495-3.495-8.738-7.973-2.156-3.464-5.215-6.06-8.133-8.882C592.809 316.8 590 313.895 590 309"/><path fill="#225084" d="M548 511c1.252 4.22.673 7.96.063 12.25l-.303 2.258A929 929 0 0 1 547 531h11l-3 2 17 1v1l-11 1v1q-3.72.04-7.437.063l-2.143.025c-1.807.009-3.614-.036-5.42-.088-1.634-1.634-1.21-3.43-1.25-5.687.037-6.985 1.593-13.557 3.25-20.313"/><path fill="#20538a" d="M565 273c2.234.008 2.234.008 5 1 1.8 2.429 2.981 5.14 4.25 7.875 3.313 6.722 6.811 12.208 11.805 17.828 1.957 2.311 3.46 4.663 4.945 7.297h-3l1 4c-2.992-2.586-4.466-5.565-6.25-9.062-2.736-5.2-5.733-9.956-9.172-14.711C568 279.357 568 279.357 568 276l-3-1z"/><path fill="#132d57" d="M355 551c1.785 2.191 3.017 4.043 4.063 6.688.705 2.471.705 2.471 2.937 3.312l.875 2.375c1.278 2.983 2.535 3.787 5.125 5.625l1 3 2 1c.625 2.563.625 2.563 1 5h3v2h2l.813 2.25c1.056 2.774 1.056 2.774 2.875 4.875L382 589l-1 3c-10.33-12.117-20.308-25.02-28-39z"/><path fill="#1f3f6d" d="m724 549 1 2h-6v2h-51c3.608-1.804 4.498-2.248 8.188-2.16l2.367.033 2.445.064q2.406.053 4.813.09l2.144.055c2.144-.086 3.97-.548 6.043-1.082 2.458-.045 4.917-.039 7.375 0 7.592.077 15.059-.338 22.625-1"/><path fill="#1c3966" d="M586 568v1q-9.31.649-18.622 1.282-3.161.216-6.322.436-4.569.317-9.138.626l-2.81.199c-6.378.425-12.717.53-19.108.457l-1-2c18.831-2.851 38.01-2.11 57-2"/><path fill="#1f4374" d="m547 529 34 1v1l-9 1 24 1v1h-44l3-2-8-1z"/><path fill="#12bce2" d="M862 141c3.85 3.651 6.965 7.468 10 11.813l1.314 1.866c6.182 8.832 6.182 8.832 8.686 13.321l-1 2-4-4-2 2-1-4h-2l1-6h-2v-2l-4-1v-5l-4-1 .063-2.312c.066-2.79.066-2.79-1.063-5.688"/><path fill="#0a76c1" d="M431 85c-1.364 4.381-3.176 6.32-6.812 9.063l-2.583 1.972L419 98l-2.574 2.309C414 102 414 102 411.688 101.75L410 101c13.36-18.547 13.36-18.547 21-16"/><path fill="#1b78a9" d="M409 556c2.964 2.79 5.455 5.555 7.813 8.875 2.65 3.625 5.593 6.329 9.03 9.191 3.351 3.005 6.235 6.398 9.177 9.797 1.984 2.308 1.984 2.308 4.98 4.137l-1 3c-9.36-7.696-17.621-16.197-25.125-25.687-1.751-2.286-1.751-2.286-3.625-3.875C409 560 409 560 409 556"/><path fill="#132d58" d="m330 504 1 3h2v6h2l1 7 3 1c2.296 3.445 2.54 5.938 3 10l3 1c.73 1.848.73 1.848 1.188 4.063l.48 2.222L347 540h2v4h-2a2075 2075 0 0 1-9.584-17.4q-1.315-2.416-2.64-4.825a400 400 0 0 1-3.026-5.65l-1.703-3.18c-1.221-3.435-.943-5.454-.047-8.945"/><path fill="#007bcf" d="M908 325c2.428 3.642 3.197 5.697 3.625 10 .095.887.19 1.774.29 2.688.068 2.673-.073 4.981-.388 7.617-.836 7.582-.633 15.203-.59 22.82q.008 2.317.014 4.633.017 5.621.049 11.242l-2 1z"/><path fill="#1f4374" d="M591 450c1 2 1 2 .313 4.5L590 458l-.852 2.336c-1.571 4.153-3.18 7.88-5.71 11.539-4.304 6.514-5.224 14.548-6.438 22.125h-1c-1.41-15.501 6.387-30.039 14-43z"/><path fill="#1a3760" d="M621 527v2h-3v2c-3.06 1.02-5.124 1.115-8.324 1.098l-3.115-.01-3.249-.025-3.283-.014q-4.014-.018-8.029-.049l4-2-11-1v-1a38008 38008 0 0 1 18.026-.573q3.292-.106 6.583-.208l2.059-.067A298 298 0 0 1 621 527"/><path fill="#173159" d="M614 565v1l14 1-1 2h-38c2-3 2-3 4.434-3.512l3.004-.176 3.23-.195c4.78-.168 9.55-.202 14.332-.117"/><path fill="#0977c6" d="m577 70 1 2c-11.57 4.673-22.608 6.51-35 7 4.802-3.201 10.336-4.152 15.875-5.625l3.59-.984 3.465-.93 3.163-.85c2.738-.576 5.121-.731 7.907-.611"/><path fill="#1f4374" d="m556 429 4 1-1.031 1.441c-6.811 9.836-12.33 20.543-16.969 31.559l-2-1c2.14-7.092 5.06-13.359 8.563-19.875l1.498-2.836c1.874-3.53 3.72-6.96 5.939-10.289"/><path fill="#0bb7e0" d="M818 96c3.526.587 5.26 1.854 7.82 4.309l2.121 2.013 2.184 2.115 2.207 2.104A462 462 0 0 1 840 114v4c-3.161-1.37-3.993-1.99-6-5l-4 1-.875-2.75c-1.846-5.524-1.846-5.524-6.125-9.25v-2l-3 1z"/><path fill="#1a5e9d" d="m836 561 2 3a2094 2094 0 0 1-15 16l-1.906 2.018a640 640 0 0 1-5.219 5.42l-1.573 1.662c-2.953 3-5.043 4.596-9.302 4.9 3.2-3.213 6.421-6.401 9.652-9.582l5.285-5.23 2.67-2.62c4.941-4.904 9.44-9.83 13.393-15.568"/><path fill="#0fbee9" d="M883 171c3.679 3.415 5.809 7.537 8.25 11.875l1.43 2.434c.44.782.881 1.565 1.336 2.37l1.227 2.149c.952 2.732.526 4.425-.243 7.172h-2l-1-7c-3.583-1.002-3.583-1.002-7 0l1-6h2l-1.312-1.5c-2.252-3.335-3.36-6.703-4.688-10.5z"/><path fill="#1b375c" d="M765 592c-3.943 3.943-10.824 3.048-16.153 3.114q-2.784 0-5.57-.016l-2.988-.005c-3.117-.005-6.234-.018-9.351-.03q-3.19-.009-6.381-.014-7.778-.017-15.557-.049l1-2 2.057.016c11.533.077 22.985.14 34.486-.793 6.15-.396 12.298-.302 18.457-.223"/><path fill="#142a4c" d="M880 404h1c1.125 6.75 1.125 6.75 0 9-.278 3.309-.447 6.618-.621 9.934C880 426 880 426 878 429c-.23 1.931-.456 3.863-.656 5.797-.574 3.678-1.85 6.796-3.344 10.203l-2 1c.598-6.636 1.806-12.86 3.438-19.312 1.854-7.535 3.495-14.997 4.562-22.688"/><path fill="#122b54" d="M723 80c16.253 3.306 30.73 12.94 45 21-3.732 1.097-3.732 1.097-6.14.223l-2.11-1.16-2.14-1.153L756 98v-2l-2.059-.266c-3.682-.919-6.727-2.634-10.004-4.484a138 138 0 0 0-17.742-8.242C724 82 724 82 723 80"/><path fill="#1b5a9a" d="m478 54 2 1c-.986 3.315-1.654 4.75-4.5 6.813C473 63 473 63 471 63l-.625 1.813c-1.91 3.039-4.089 3.886-7.375 5.187l-2-1 1.715-1.023 2.223-1.352 2.214-1.336c1.986-1.166 1.986-1.166 2.848-3.289l-10 2c3.237-3.237 6.478-4.872 10.563-6.75l2.076-.996c1.757-.818 3.557-1.543 5.361-2.254"/><path fill="#0092e3" d="M551 648c5.404-.225 9.813.511 14.938 2l2.072.578c1.665.466 3.328.943 4.99 1.422l-2 3c-6.956 1.082-13.479-1.803-20-4z"/><path fill="#0286d8" d="m541 194 4 1-1 2c.068 12.534 2.524 24.763 5 37h-3c-2.569-7.753-4.397-14.659-4.074-22.89.136-5.72-.454-11.414-.926-17.11"/><path fill="#21588d" d="m508 46-2.203.883c-6.613 2.696-12.933 5.656-19.203 9.078-2.795 1.12-3.848 1.14-6.594.039v-3q4.025-1.733 8.063-3.437l2.279-.987C496.019 46.192 501.884 43.798 508 46"/><path fill="#205994" d="M646 70c3.659.457 7.322.747 11 1l-1 2-2.96-.199c-11.864-.765-23.72-1.106-35.602-1.364l-5.694-.13Q604.872 71.149 598 71v-1l2.795-.076q5.191-.144 10.382-.296 2.237-.065 4.472-.125c9.858-.226 9.858-.226 19.675-1.093 4.184-.467 6.68.35 10.676 1.59"/><path fill="#0b7ac3" d="M651 416c2.125-.437 2.125-.437 5 0 1.629 1.542 2.936 3.222 4.313 4.992 2.377 2.828 5.17 5.034 8.05 7.332 1.862 1.906 2.437 3.027 2.637 5.676l-2 2c-3.394-3.285-6.62-6.707-9.812-10.187l-2.395-2.606C655 421 655 421 655 419l-4-2z"/><path fill="#10223e" d="M508 178h1c.646 5.229 1.232 10.259.5 15.5-.625 5.057-.438 9.988-.187 15.063l.105 2.398c.278 4.929 1.037 9.448 2.364 14.207L512 227l-2 2c-4.25-16.06-5.058-34.67-2-51"/><path fill="#234771" d="M621 382c-1.53 5.438-5.275 8.945-9 13-5.873 6.506-11.493 13.18-17 20l-1-2q2.427-3.258 4.875-6.5l1.395-1.879c1.196-1.577 2.459-3.104 3.73-4.621h2l.25-1.75c.961-2.884 2.554-4.187 4.75-6.25l2-3 2-1 1-3c2.556-3 2.556-3 5-3"/><path fill="#0273c5" d="M578 25c-3.767 2.223-7.84 2.964-12.062 3.875-6.198 1.38-12.045 3.07-17.934 5.488C546 35 546 35 544 34c-1.95.808-1.95.808-4 2-2.125 1.188-2.125 1.188-4 2l-2-1c4.702-4.785 10.384-5.692 16.688-7.187a4018 4018 0 0 0 6.261-1.543l2.792-.67c2.27-.522 2.27-.522 4.259-1.6 4.635-.738 9.306-1.151 14-1"/><path fill="#1172b2" d="M718 426h2c4.526 6.272 7.85 12.202 8 20-1.875-.187-1.875-.187-4-1-1.125-2.187-1.125-2.187-2-5l-1.125-3.312L720 434h-2z"/><path fill="#0076c8" d="m545 149 1 3 2.164-.492c2.806-.503 5.364-.641 8.211-.633l2.71-.008c2.915.133 2.915.133 6.103.622 3.914.525 7.773.731 11.714.827l2.19.063q3.423.096 6.846.184l4.673.13q5.695.16 11.389.307v1c-20.362.107-40.662.127-61-1 1-2 1-2 4-4"/><path fill="#21558e" d="M631 335c8.499 8.499 6.584 27.827 7 39h2v2l-3-1c-2.422-6.323-2.671-12.922-3.21-19.617-.447-5.06-1.306-9.531-2.79-14.383-.125-3.437-.125-3.437 0-6"/><path fill="#1a355e" d="M582 267c-1.322 2.644-2.697 4.133-5 6-3.25.25-3.25.25-6 0l-1 3-1-2a78 78 0 0 0-5-2l1-2 2 1v-3c4.96-1.323 9.911-1.089 15-1"/><path fill="#0d64a9" d="m631.766 64.886 2.27.016 2.45.01 2.577.025 2.587.014q3.175.02 6.35.049v3l-3.586-.07c-11.166-.156-11.166-.156-22.156 1.625-4.055.8-8.144.603-12.258.445v-1l1.728-.26q3.855-.584 7.71-1.178l2.72-.408 2.588-.4 2.396-.365c2.105-.44 2.497-1.366 4.624-1.503"/><path fill="#1f518a" d="M645 62c8.503-.36 16.61.747 25 2v1h-9v1l-46-1v-1l30-1z"/><path fill="#076bb4" d="M506 633c6.625.75 6.625.75 10 3l-2 1c11.551 4.735 23.089 9.246 35 13-3.711 1.361-5.984.614-9.656-.66l-3.352-1.158-3.492-1.245-3.398-1.162c-7.563-2.65-15.314-5.451-22.102-9.775z"/><path fill="#183f6e" d="M867 206c2.461.367 3.67.591 5.264 2.563l1.06 2.007 1.178 2.22 1.186 2.335 1.22 2.266c2.392 4.6 3.687 8.436 4.092 13.609-3-1-3-1-4.176-3.3l-1.136-3.012c-2.533-6.433-5.52-12.548-8.688-18.688"/><path fill="#11284f" d="m883 323 4 1c.254 6.484.254 6.484-1.031 9.094-1.474 4.42-.92 8.617-.594 13.219l.172 2.822q.21 3.433.453 6.865l-2 1c-1.178-11.334-1.105-22.618-1-34"/><path fill="#040709" d="M665 314c0 7.457-10.005 15.846-15 21h-1c-.29-2.719-.29-2.719 0-6 1.977-2.344 1.977-2.344 4.625-4.5l2.75-2.309L659 320c2.05-1.958 4.022-3.97 6-6"/><path fill="#0075c8" d="M571 289c3.588 3.389 6.457 6.761 9 11v2l3 1v2l3 1c2.075 2.92 3 4.375 3 8l-3-1v-2h-2v-3h-2v-3h-3l-1.187-2.687c-1.655-3.422-1.655-3.422-4.5-5.875C571 294 571 294 570.688 291.188z"/><path fill="#1168a7" d="m414 94 2 1-5 6 2 2c-1.062 1.5-1.062 1.5-3 3-3.687.188-3.687.188-7 0l-2 4-4-1q2.841-2.628 5.688-5.25l1.607-1.488c3.14-2.89 6.337-5.637 9.705-8.262"/><path fill="#193662" d="M502 131h1l.148 2.668.227 3.52c.07 1.148.14 2.297.21 3.48.582 4.675 1.66 8.328 5.415 11.332 2.79.93 4.765 1.187 7.668 1.316l2.705.127 2.814.12 2.85.13q3.48.159 6.963.307v1c-3.541.117-7.082.187-10.625.25l-3.027.102c-6.133.08-9.714-.2-14.348-4.352-3.91-5.735-3.44-10.923-2.5-17.5z"/><path fill="#12bce3" d="M843 119c6.288 4.95 11.07 10.718 16 17l-5 4-.437-3.312c-.446-3.62-.446-3.62-1.563-6.688l-2.875-.812C846 128 846 128 844.125 125.063 843 122 843 122 843 119"/><path fill="#1d75a5" d="M389 528c4.05 3.814 7.004 8.466 10.188 13l1.982 2.773 1.873 2.664 1.72 2.434C406 551 406 551 406 554c-5.177-4.691-8.992-10.31-13-16l-1.402-1.906c-2.22-3.098-2.598-4.09-2.598-8.094"/><path fill="#102548" d="M572 496h1l1 19h17v1c-3.25.058-6.5.094-9.75.125-.92.017-1.84.034-2.79.05l-2.694.02-2.476.032c-2.509-.249-4.124-.97-6.29-2.227h4l-.035-3.684-.028-4.753-.025-2.432c-.009-2.044.036-4.088.088-6.131z"/><path fill="#0c80c6" d="M548 234h2a858 858 0 0 1 3.063 8.188l.892 2.33c1.522 4.172 2.583 7.098 1.045 11.482l-2-1c-.625-3.062-.625-3.062-1-6h-2c-1.263-5.075-2.27-9.728-2-15"/><path fill="#21518b" d="M625 411c0 3 0 3-1.312 4.375L622 417l-1.25 2.238c-2.088 3.296-4.65 5.881-7.437 8.575l-1.55 1.521A864 864 0 0 1 608 433l-1-2c2.329-5.2 6.675-8.897 10.688-12.812l2.126-2.1q2.587-2.55 5.186-5.088"/><path fill="#0169b0" d="M432 136h3v2c-2.5 1.625-2.5 1.625-5 3zm-6 3 4 2c-.416 4.85-2.417 6.843-6 10l-3 2v-6h2l1-5h2z"/><path fill="#0667ae" d="m515.547 123.805 2.558.02 2.645.05 2.691.027q3.28.036 6.559.098v1l-3.832.113q-2.49.099-4.98.2l-2.526.068-2.432.107-2.237.08c-2.503.543-3.414 1.451-4.993 3.432-1.537 5.416-1.014 9.787 1 15 .125 2.875.125 2.875 0 5-2.175-1.702-2.948-2.81-3.687-5.5-1.088-12.176-1.088-12.176.687-17.5 2.873-1.899 5.147-2.241 8.547-2.195"/><path fill="#122749" d="M884 365h1c1.698 16.905 1.698 16.905-1 25-.26 2.246-.442 4.492-.621 6.746-.404 2.405-1.189 4.139-2.379 6.254l.184-2.937.12-1.94.27-4.289c.236-3.749.466-7.498.68-11.248l.125-2.14q.172-2.962.34-5.923c.257-3.226.694-6.342 1.281-9.523"/><path fill="#06183d" d="m656 342 2 1c-.75 6.625-.75 6.625-3 10l-1-2-1.375 2.438C651 356 651 356 649 357c-.366-6.35-.366-6.35 1.375-9.437C652 346 652 346 654 346z"/><path fill="#008ee2" d="M716 195q3.688-.04 7.375-.062l2.117-.026c5.281-.025 5.281-.025 7.508 1.088-.11 3.209-.241 6.417-.375 9.625l-.094 2.738c-.214 4.89-.655 9.045-2.531 13.637h-1l1-26h-14z"/><path fill="#1b4173" d="M763 98c4.62 1.342 8.25 3.211 12.25 5.875l3.14 2.055c2.48 1.968 3.535 3.147 4.61 6.07-4.28-.57-7.095-2.08-10.687-4.437l-2.887-1.872C767 104 767 104 765 102l1-1z"/><path fill="#007acf" d="m406 105 3 2-1.46 1.207-1.915 1.606-1.898 1.582c-1.95 1.687-1.95 1.687-3.727 4.605h-2l-1 2-2-1c.688-3.375.688-3.375 2-7 2.563-1.312 2.563-1.312 5-2l1-2z"/><path fill="#204472" d="M421 633c4.025 1.38 6.768 3.253 10 6l2.813 2.25L436 643l-1 3c-3.701-1.665-7.062-3.609-10.375-5.937l-2.086-1.465C421 637 421 637 421 633"/><path fill="#21497d" d="M847 543h1c.188 2.313.188 2.313 0 5-1.25 1.375-1.25 1.375-3 3a91 91 0 0 0-2 3.5c-1.407 2.54-2.665 4.696-5 6.5h-2l-2 4-2-1 1-4h2l1-3 2.25-1.75c4.1-3.355 7.07-7.208 8.75-12.25"/><path fill="#204477" d="m571 407 2 1c-3.724 7.327-7.289 14.01-13 20l-2-2q2.12-3.346 4.25-6.687l1.2-1.897c2.33-3.65 4.771-7.083 7.55-10.416"/><path fill="#183a68" d="M890 256c5.359 4.25 6.642 9.933 7.406 16.477.25 3.174.451 6.342.594 9.523-2.692-2.692-3.119-5.663-4-9.25-.937-3.724-1.884-7.409-3.125-11.047C890 259 890 259 890 256"/><path fill="#0192da" d="M439 590c5.94 2.741 10.408 6.408 15 11 2.617 2.07 5.295 4.047 8 6-1.795.65-1.795.65-4 1-1.66-.925-1.66-.925-3.277-2.387l-1.807-1.595-1.853-1.706-3.653-3.261-1.75-1.588c-1.481-1.306-3.038-2.526-4.601-3.733-.68-.57-1.36-1.142-2.059-1.73z"/><path fill="#20497e" d="M622 62v1l-7 1v1c-17.786 1.862-17.786 1.862-25 0v-1c10.743-1.6 21.141-2.26 32-2"/><path fill="#018fd8" d="M726 160h25v1c-5.052 1.643-9.382 2.296-14.75 2.313l-3.922.05C729 163 729 163 726 160"/><path fill="#204b7f" d="m865 520 1 2c-.773 1.696-.773 1.696-2.02 3.695l-1.35 2.168c-.475.747-.952 1.493-1.442 2.262l-1.409 2.285c-2.612 4.146-2.612 4.146-3.779 5.59h-2l-1 2c-.75-1.75-.75-1.75-1-4a408 408 0 0 1 4-4 148 148 0 0 0 3.625-5.687c3.156-5.204 3.156-5.204 5.375-6.313"/><path fill="#0087da" d="M611 339c3.076.56 5.315 1.062 7.219 3.668 3.719 7.283 5.087 14.164 4.906 22.27l-.027 2.36c-.024 1.901-.06 3.802-.098 5.702h-1l-.078-2.86c-.385-8.702-1.713-15.958-4.922-24.14l-1-3h-2v-2h-3z"/><path fill="#1a3e6f" d="M839 164c6.813 4.294 12.205 9.842 16 17-.414 2.162-.414 2.162-1 4l-2.266-2.887-2.984-3.8-1.488-1.897-1.465-1.865-1.436-1.834a242 242 0 0 0-3.72-4.549C839 166 839 166 839 164"/><path fill="#172d4d" d="m496 573-1 3h-2l.563 1.875c.414 2.96.26 5.065-.125 8-.537 4.657-.278 7.801 1.562 12.125l3 1v2l2 1c-2.884-.32-4.258-1.192-6.613-2.953-3.31-4.225-3.062-7.398-2.887-12.61l-.008-2.576c.058-3.67.144-6.19 1.914-9.45C494 573 494 573 496 573"/><path fill="#225181" d="M384 122c.629 1.816.629 1.816 1 4-2.406 3.427-4.958 6.046-8.187 8.688-2.94 2.189-2.94 2.189-4.813 5.312l-3-1 1.758-1.941c4.483-4.964 8.916-9.957 13.242-15.059"/><path fill="#163059" d="M530 170c-4.75 3-4.75 3-7 3l-2 11h-1v-7h-2v-4l-3-1c1.746-.533 3.497-1.05 5.25-1.562.975-.29 1.95-.58 2.953-.88 2.76-.55 4.188-.496 6.797.442"/><path fill="#1b3a68" d="m616.813 598.938 2.388.013q2.9.02 5.799.049c-8.45 5.634-23.119 3.092-33 3 3.834-2.14 6.612-2.077 11-2l2.172-.492c3.894-.7 7.694-.614 11.64-.57"/><path fill="#152d4e" d="M871 447h2c.125 2.375.125 2.375 0 5l-2 2a121 121 0 0 0-1.937 6.188c-1.417 4.785-2.96 9.291-5.063 13.812h-2c1.833-6.2 3.718-12.385 5.625-18.562l.66-2.167c1.6-5.156 1.6-5.156 2.715-6.271"/><path fill="#0078cd" d="m592.813 66.938 2.957.027L598 67v2c-7.073 2.589-11.853 4.267-19 1 4.517-3.011 8.474-3.127 13.813-3.062"/><path fill="#0095dd" d="M570 283h2c1.55 2.125 1.55 2.125 3.313 5l1.863 3.031L579 294l1.605 2.406L582 298.5l1.25 1.844C584 302 584 302 583 305c-13-15.889-13-15.889-13-22"/><path fill="#020d30" d="M714 520h3l2 3c2.584.25 2.584.25 5 0v4h-12v-4h2z"/><path fill="#172d4c" d="m861 474 2 3a1060 1060 0 0 1-3.219 6.402l-1.281 2.536-1.281 2.527c-1.19 2.476-2.215 4.978-3.219 7.535a175 175 0 0 1-2 4h-2c1.719-5.685 4.164-10.984 6.625-16.375l1.273-2.809q1.548-3.41 3.102-6.816"/><path fill="#0876bf" d="M678 447c3.55.868 5.52 1.389 7.813 4.313 1.16 2.624 1.879 4.837 2.187 7.687l-1 2h-2l-.375-2.437L684 456l-2-1v-3l-5 1z"/><path fill="#008ee1" d="M724 560c1.916-.081 3.833-.14 5.75-.187l3.234-.106c3.316.322 4.606 1.064 7.016 3.293-2.9.83-5.486 1.135-8.5 1.125l-2.281.008c-2.193-.131-4.112-.53-6.219-1.133z"/><path fill="#183967" d="M881 232c5.163 4.057 7.35 10.348 8.473 16.652.236 2.11.39 4.23.527 6.348-2.738-2.738-3.707-6.01-5.062-9.562-1.444-4.554-1.444-4.554-3.938-8.438a100 100 0 0 1 0-5"/><path fill="#0486d5" d="m428 84 3 1c-1.328 4.284-2.825 5.978-6.625 8.313l-2.477 1.55L420 96c0-3.562.747-4.365 2.875-7.125l1.617-2.133C426 85 426 85 428 84"/><path fill="#132d57" d="M383 591c3.571 1.88 5.547 3.17 7 7h2a264 264 0 0 1 3 5l2 1-1 4c-10.743-10.374-10.743-10.374-14-16z"/><path fill="#058fd5" d="m691 268 3 2-2 6h-2l-.312 2.75c-.692 3.27-1.51 4.787-3.688 7.25-.839-3.888-1.33-6.223.25-9.937L688 274h3z"/><path fill="#0e63a8" d="M526 176h1q-.214 3.345-.437 6.688l-.247 3.761A67 67 0 0 1 525 195q-.518 3.498-1 7h-1v-22l2-1z"/><path fill="#1263a1" d="m396 110 1 2c-.937 2.625-.937 2.625-2 5h2v2h-2l-1 3h-3l1-3-1.812 1C388 121 388 121 385 121z"/><path fill="#1a3d6f" d="M784 113c6.944 1.208 12.087 5.008 17 10v3c-4.015-1.739-7.32-4.398-10.75-7.062l-1.824-1.393A196 196 0 0 1 784 114z"/><path fill="#193257" d="M453 655c4.279 1.426 7.671 4.009 11.406 6.504 2.528 1.746 2.528 1.746 5.594 1.496v2l2 1c-3 1-3 1-4.993.196l-2.237-1.286-2.432-1.377-2.526-1.47-2.56-1.46A850 850 0 0 1 451 657z"/><path fill="#1a6297" d="M576 69c6.875.875 6.875.875 8 2 2.186.073 4.375.084 6.563.063l3.628-.028L597 71v1c-3.562.506-7.124 1.003-10.687 1.5l-3.053.434-2.96.41-2.713.38c-2.551.272-5.024.324-7.587.276l1.813-.875c2.38-1.172 2.38-1.172 5.187-3.125z"/><path fill="#0b63aa" d="M632 406h2l-.562 1.688c-.514 2.711-.102 4.656.562 7.312-2.375 1.563-2.375 1.563-5 3l-2-1-1 2-1-4h2l.813-1.687c1.296-2.525 2.612-4.95 4.187-7.313"/><path fill="#0373c0" d="M371 228h2c-.552 4.533-1.747 7.909-3.875 11.938-2.229 4.301-4.291 8.58-6.125 13.062-1.355-4.066.15-6.5 1.75-10.25l.805-1.95c1.775-4.283 3.613-8.54 5.445-12.8"/><path fill="#225187" d="M552 293c1.875.125 1.875.125 4 1 1.125 2.938 1.125 2.938 2 6l2 2v3l2 1c2.188 2.875 2.188 2.875 4 6l-1 3-4.25-6.125-1.2-1.727a893 893 0 0 1-2.376-3.446 478 478 0 0 0-3.47-4.944C552 296 552 296 552 293"/><path fill="#0c98d5" d="M739 559c11.522-.554 11.522-.554 17 3v1q-2.937.039-5.875.063l-3.305.035C744 563 744 563 742 562v-2z"/><path fill="#13294c" d="M584 373c.813 1.688.813 1.688 1 4-2.043 2.324-2.043 2.324-5 5q-1.574 1.65-3.113 3.332l-1.592 1.729-1.607 1.752-1.667 1.81L568 395l-2-1 2.16-2.309c5.592-6.015 10.948-12.08 15.84-18.691"/><path fill="#0c2144" d="m704.375 196.75 2.398-.078C709 197 709 197 712 200h-24v-1l2.371-.184 3.067-.254c1.009-.08 2.018-.162 3.058-.246 3.038-.383 4.594-1.502 7.879-1.566"/><path fill="#152d51" d="M524 688c6.774.273 11.347 1.19 17 5v2c-12.67-3.075-12.67-3.075-18-5z"/><path fill="#205793" d="m660 344 1 2-.937 2.625c-.931 2.957-1.18 4.681-1.125 7.688L659 360l-1 1c.09 2.024.246 4.045.438 6.063l.308 3.347L659 373h-2c-2.73-8.191-1.598-19.463 2.07-27.281z"/><path fill="#008add" d="M904 298c1.46 2.647 2 3.894 2 7l2 1 1 18h-2q-.758-5.093-1.5-10.187l-.434-2.909-.41-2.822-.38-2.587c-.279-2.52-.324-4.962-.276-7.495"/><path fill="#1d4477" d="M720 247c1 3 1 3-.25 5.625L718 256c-.808 2.269-1.54 4.552-2.254 6.852-.75 2.162-1.68 4.125-2.746 6.148-1.665-3.33-.064-6.612 1-10a257 257 0 0 1 4-10h2z"/><path fill="#1f4375" d="M706 561v2l3.375.375C713 564 713 564 715 566c-3.674.853-7.045 1.108-10.812 1.063l-2.958-.028L699 567v-1l7-1-7-1c3.625-3 3.625-3 7-3"/><path fill="#215b84" d="M740 471c2.09 3.136 3.016 5.785 4.125 9.375l1.07 3.398c.727 2.914.972 5.248.805 8.227h-4v-4h2a129 129 0 0 0-2-7l-2-1c-.994-3.345-1.103-5.69 0-9"/><path fill="#1f5d97" d="M565 273c2.32.2 2.32.2 5 1 1.617 2.145 1.617 2.145 2.875 4.813l1.305 2.644c.878 2.724.815 3.907-.18 6.543a984 984 0 0 1-3-4.875l-1.687-2.742C568 278 568 278 568 276l-3-1z"/><path fill="#13b5dd" d="M883 171c3 2.63 4.724 5.742 6.688 9.188l1.886 3.292L893 186l-2 1c-5.413-3.609-6.897-9.092-9-15z"/><path fill="#008bdf" d="M908 325c2.5 3.75 3.229 5.928 3.688 10.375l.324 2.898c-.013 2.874-.519 4.312-2.012 6.727-1.788-6.817-2.237-12.965-2-20"/><path fill="#173560" d="m898 283 1 3h2c1.173 6.378 2.295 12.503 2 19-2.836-2.836-2.964-6.063-3.625-9.875l-.406-2.184c-.612-3.388-.969-6.486-.969-9.941"/><path fill="#17345f" d="M507 581c0 2.487-.187 4.732-.5 7.188-.501 4.304-.579 8.481-.5 12.812-2.855-3.194-3.388-5.246-3.312-9.5l.011-2.844c.307-2.71.832-4.372 2.301-6.656z"/><path fill="#1a3968" d="M905 392h1q.08 4.125.125 8.25l.05 2.355c.062 7.12.062 7.12-2.175 10.395h-1c-.24-7.227.655-13.903 2-21"/><path fill="#1972ab" d="M688 384c4.614 3.257 8.004 7.243 11 12v2c-2.594-.383-3.791-.79-5.668-2.672-5.056-6.915-5.056-6.915-5.332-11.328"/><path fill="#007cd4" d="m537 72 2.25.938c2.262.874 4.4 1.505 6.75 2.062q-2.654 1.008-5.312 2l-2.989 1.125C535 79 535 79 532 79c1.293-2.884 2.66-4.872 5-7"/><path fill="#026bb6" d="M525 40c-3.74 2.396-7.47 4.068-11.625 5.625-1.127.425-2.253.85-3.414 1.29Q506.996 48.001 504 49c1-3 1-3 2.626-3.999l2.085-.86 2.273-.942 2.391-.949 2.367-.996C521.614 38.87 521.614 38.87 525 40"/><path fill="#111e2b" d="M668 311c-1.34 3.062-2.729 4.892-5.312 7-.62.512-1.24 1.024-1.88 1.55a1635 1635 0 0 1-4.558 3.637A53 53 0 0 0 651 328c1.457-5.165 4.629-7.857 8.5-11.312l1.8-1.667C665.728 311 665.728 311 668 311"/><path fill="#19619e" d="M354 271c2.091 6.273.73 11.84-1 18-2.072-3.372-2.153-5.663-1.75-9.562l.266-2.88C352 274 352 274 354 271"/><path fill="#1261a5" d="M527 211c.981 3.053.981 4.947 0 8l5 1v2h-3c.095.626.19 1.253.29 1.898.11.818.22 1.635.335 2.477l.352 2.46L530 231l-2 2c-1.488-6.99-2.634-13.833-2-21z"/><path fill="#224a7d" d="M530 84c-2.584 1.723-4.549 2.689-7.437 3.688l-2.31.824c-2.471.535-3.883.292-6.253-.512 5.905-4.64 8.613-5.231 16-4"/><path fill="#225f8e" d="m478 54 2 1c-1.25 3.653-1.671 4.78-5 7l-3-1 1-2-4-1a419 419 0 0 1 4.375-2.062l2.46-1.16z"/><path fill="#0384d6" d="M512 636c4.79-.288 8.006.558 12.375 2.5l3.21 1.406L530 641c-1.547 1.18-1.547 1.18-4 2a56.6 56.6 0 0 1-7.25-2.875l-1.969-.895c-1.6-.729-3.191-1.478-4.781-2.23z"/><path fill="#0f7bc1" d="M699 399c3.826 1.503 5.7 3.628 8 7 1.25 3.313 1.25 3.313 2 6-1.812-.187-1.812-.187-4-1-1.562-2.25-1.562-2.25-3-5l-1.687-2.687C699 401 699 401 699 399"/><path fill="#224f86" d="M566 315c6.024 2.008 9.24 8.583 12 14v3c-12-13.314-12-13.314-12-17"/><path fill="#205a8d" d="M763 564c3.653 1.25 4.78 1.671 7 5 .195 3.355.195 3.355.125 7.188l-.055 3.855L770 583h-1l-.297-2.703-.453-3.547-.422-3.516c-.925-3.613-2.092-4.81-4.828-7.234z"/><path fill="#1b3c6c" d="M582 268c3.824 2.55 4.429 5.317 5.75 9.5l.707 2.09c1.675 5.146 1.675 5.146.543 7.41q-1.763-3.619-3.5-7.25l-1.012-2.066C582.806 274.148 582 271.98 582 268"/><path fill="#1c76ab" d="M557 256c2.967 3.56 5.381 7.652 7 12l-1 2-2-2-2 1c-2.248-4.497-2.167-8.079-2-13"/><path fill="#175ea0" d="m707 531-5 3v-2l-1.687.219A109 109 0 0 1 685 533l-1-2c3.27-.197 6.541-.38 9.813-.562l2.814-.17 2.705-.147 2.491-.143C704 530 704 530 707 531"/><path fill="#1460a2" d="M673 329c0 4.517-.368 6.23-3.312 9.813L667 341l-4-1z"/><path fill="#1c3c6b" d="M315 258h2c1.128 3.383.818 4.768.063 8.188l-.59 2.73L316 271h-3c-1.184-3.552-.695-4.698.438-8.187l.87-2.731z"/><path fill="#1a5e9e" d="m374 136 2 1c-1.98 3.565-4.085 6.17-7 9-1.704 1.972-3.35 3.983-5 6l-1-2c1.472-3.736 1.472-3.736 4-5l.938-2.5L369 140l3-1z"/><path fill="#1374af" d="M565 75c-3.463 2.309-6.417 2.69-10.437 3.188l-2.026.287c-3.413.443-6.265.705-9.537-.475 7.502-3.052 13.946-3.336 22-3"/><path fill="#172b47" d="m591 566-2 3c-2.155.249-2.155.249-4.79.074l-2.85-.166-2.985-.22-3.008-.186A673 673 0 0 1 568 568v-1c7.685-.675 15.284-1.157 23-1"/><path fill="#036db7" d="M744 489c1.949 2.923 2.48 4.51 3.125 7.875l.508 2.555c.366 2.562.432 4.986.367 7.57-1.457-1.02-1.457-1.02-3-3a69 69 0 0 1-.687-7.687l-.104-2.127A435 435 0 0 1 744 489"/><path fill="#037fd1" d="M651 416c2.188-.375 2.188-.375 5 0 2.875 2.75 2.875 2.75 5 6-.187 2.375-.187 2.375-1 4a141 141 0 0 1-5-5v-2l-4-2z"/><path fill="#1f3859" d="M568 454c.788 2.295 1.136 3.58.38 5.923l-1.032 1.968-1.104 2.148-1.182 2.211-1.17 2.258A651 651 0 0 1 561 474c-1.415-4.246.495-6.77 2.375-10.562l1-2.077A593 593 0 0 1 568 454"/><path fill="#0d65a9" d="M604 298h4v2l3 1 1 7 4 1-1 3c-2-1.187-2-1.187-4-3-.25-2.687-.25-2.687 0-5l-1.875-.312C607 303 607 303 605 300z"/><path fill="#26456b" d="M567 268h9c-3.75 3-3.75 3-6 3l-1 3-5-2 1-2 2 1z"/><path fill="#185f9b" d="M373 220c1.625 1.625 1.625 1.625 3 4-.812 3.25-.812 3.25-2 6l-1-2h-2l-1 5h-2c1.418-4.472 3.113-8.711 5-13"/><path fill="#22446a" d="m368 140 1 2c-1.472 3.736-1.472 3.736-4 5l-1.375 2.438c-1.704 2.686-2.712 3.457-5.625 4.562 1.564-3.522 3.695-6.271 6.125-9.25l2.195-2.703z"/><path fill="#132d57" d="M404 614c3.832 1.561 6.174 4.029 9 7l1.813 1.813L416 624l-1 3a1250 1250 0 0 1-5.5-5.375l-1.59-1.54c-1.342-1.323-2.63-2.701-3.91-4.085z"/><path fill="#1c3d6c" d="M524 539h1l.113 1.906c.514 6.688 1.87 12.06 4.887 18.094-2.28-.912-3.71-1.58-5.125-3.625-1.207-3.275-1.064-6.147-1-9.625l.055-3.828z"/><path fill="#1f4477" d="M711 455c3 1 3 1 4.563 3.938 1.795 4.535 2.617 9.27 3.437 14.062-2.437-2.437-3.258-4.69-4.562-7.875l-1.317-3.18c-.885-2.324-1.6-4.52-2.121-6.945"/><path fill="#091c45" d="M679 409c3.452 1.426 5.101 3.097 7.25 6.125l1.578 2.195L689 419l-2 4-1.75-3.187c-1.377-2.43-2.74-4.424-4.5-6.625C679 411 679 411 679 409"/><path fill="#091d45" d="M671 327c0 4.103-1.628 5.153-4.375 8.125l-2.46 2.695C662 340 662 340 660 341c1.454-3.04 3.102-5.863 4.938-8.687l1.527-2.387C668 328 668 328 671 327"/><path fill="#017fd1" d="m581 302 2 1v2l3 1c2.075 2.92 3 4.375 3 8l-3-1v-2h-2v-3h-2z"/><path fill="#1f4578" d="M578 332c1.75.125 1.75.125 4 1a107 107 0 0 1 4 6c1.624 1.794 1.624 1.794 3 3l-1 2c-7.562-6.187-7.562-6.187-10-9z"/><path fill="#246" d="M584 299c3.243 2.39 5.509 4.205 7 8h-3l1 4c-2.771-2.346-3.52-4.148-4.187-7.687-.16-.809-.318-1.617-.481-2.45z"/><path fill="#16315d" d="M425 630c2 2 2 2 2 5l4-1 1 5c-4.379-.505-6.817-3.178-10-6z"/><path fill="#1469a5" d="M694 469c3.267 3.267 3.957 6.832 4.125 11.375L698 483l-3-1q-.254-2.124-.5-4.25l-.281-2.39C694 473 694 473 694 469"/><path fill="#17335f" d="M582 338c5.234 4.273 9.671 8.816 14 14-3 0-3 0-4.684-1.355C582 340.913 582 340.913 582 338"/><path fill="#0873bb" d="M599 325c7.48 4.652 7.48 4.652 8.754 7.957.246 1.918.246 1.918.246 5.043-4.123-3.838-6.523-8.004-9-13"/><path fill="#037bcc" d="M730 197h1q.333 4.561.625 9.125l.195 2.594c.303 4.92.169 8.65-1.82 13.281h-1z"/><path fill="#214f85" d="m356 168 2 1c-2.445 5.298-5.353 10.43-9 15h-2c1.433-3.96 3.331-7.287 5.625-10.812l1.914-2.958z"/><path fill="#0095df" d="M832 152h2v2h2c3.341 2.998 6.028 5.946 8 10l-1 2q-2.759-2.93-5.5-5.875l-1.59-1.684C832 154.227 832 154.227 832 152"/><path fill="#0966aa" d="M432 136h3v2c-2.5 1.625-2.5 1.625-5 3zm-6 3 4 3-3 1-1 2h-3l1-3h2z"/><path fill="#1682bc" d="M429 581c3.392.593 5.21 1.767 7.75 4.063l1.86 1.66L440 588l-1 3c-7.483-6.15-7.483-6.15-10-10"/><path fill="#1f5893" d="M715 160c1.77-.081 3.541-.14 5.313-.187l2.988-.106C726 160 726 160 729 163l-15-1z"/><path fill="#1678a9" d="M421 572c4.57 1.973 7.135 3.922 10 8l-3 1a517 517 0 0 1-3.5-3.375l-1.969-1.898C421 574 421 574 421 572"/><path fill="#1f3a5e" d="m805 563 3 1c-1.375 1.5-1.375 1.5-3 3h-2l-.812 1.813c-1.173 2.16-2.382 3.545-4.188 5.187l-2-1z"/><path fill="#081b43" d="M724 497h2c2.012 5.784 2.22 10.902 2 17-2.051-3.482-2.568-6.773-3.125-10.75l-.508-3.547z"/><path fill="#06183a" d="M630 353h3l1 11c-3.904-3.904-3.562-5.662-4-11"/><path fill="#253c53" d="m674 299 4 1c-1.443 3.366-3.333 5.51-6 8-1-3-1-3 .438-6.187.515-.929 1.03-1.857 1.562-2.813"/><path fill="#0c64ab" d="M583 268c1.895.29 1.895.29 4 1 1.64 3.279 2.842 6.527 4 10-2.312-.437-2.312-.437-5-2-1.36-2.908-2.214-5.893-3-9"/><path fill="#173562" d="M839 164c8.231 5.226 8.231 5.226 9.5 9.875L849 177c-3.595-3.492-6.92-7.04-10-11z"/><path fill="#0a66ac" d="M875 505h2a260 260 0 0 1-1.312 4.438l-.739 2.496L874 514l-3 1c.563-3.941 1.68-6.75 4-10"/><path fill="#0370c0" d="M897 449h1c.5 6.118-.751 9.025-4 14-1.26-3.779-.48-5.034.938-8.687l1.152-3.012z"/><path fill="#0178c9" d="M721 436c2 0 2 0 4.063 1.625 2.298 2.818 2.612 4.8 2.937 8.375-1.875-.187-1.875-.187-4-1-1.483-2.887-2.298-5.84-3-9"/><path fill="#0177c7" d="m707 280 1 2c-.812 2.375-.812 2.375-2 5l-.875 2.125c-1.36 2.268-2.942 3.42-5.125 4.875 1.764-4.972 4.394-9.434 7-14"/><path fill="#22568f" d="M359 153h2c-1.278 5.964-4.337 8.484-9 12a101 101 0 0 1 4.5-8.25l1.281-2.14z"/><path fill="#0084d9" d="M569 72c-1.818 2.315-2.756 2.954-5.7 3.512l-2.987.175-3.012.2L555 76l1-2c4.445-1.334 8.332-2.292 13-2"/><path fill="#1f5694" d="m747 634 2 1c-3.473 2.779-7.041 4.985-11 7l-3-1c3.56-2.967 7.652-5.381 12-7"/><path fill="#162945" d="M305 469c5.027 4.692 5.214 10.512 6 17-2.354-2.354-2.996-4.256-4.125-7.375l-1.07-2.898C305 473 305 473 305 469"/><path fill="#0f264e" d="m580 268 2 1c-.997 2.492-1.615 3.764-3.937 5.188A101 101 0 0 1 573 276l-2 2v-5l2.813-.25c3.272-.453 3.272-.453 5.062-2.812z"/><path fill="#183868" d="M860 193c3.813 1.446 5.327 3.302 7 7-.426 2.164-.426 2.164-1 4a783 783 0 0 1-3-4.375l-1.687-2.46C860 195 860 195 860 193"/><path fill="#1f4376" d="m382 137 1 2a564 564 0 0 1-3.375 4l-1.898 2.25L376 147h-2c1.65-4.292 4.738-6.88 8-10"/><path fill="#162d53" d="m554.688 694.875 2.449.055L559 695l2 4c-9.41-.964-9.41-.964-14-2 3.204-2.136 4.02-2.231 7.688-2.125"/><path fill="#1f6d99" d="M373 500h2q1.007 1.935 2 3.875l1.125 2.18C379 508 379 508 379 510l-3-1c-1.187-3.062-1.187-3.062-2-6h-2z"/><path fill="#156ba1" d="m729 447 3 1c.95 2.066.95 2.066 1.688 4.563.25.826.502 1.652.761 2.503L735 457l-3 1a480 480 0 0 1-1.5-3.812l-.844-2.145C729 450 729 450 729 447"/><path fill="#11274d" d="M864 248c2.822 1.035 3.834 1.7 5.313 4.375.715 2.73.653 4.017-.313 6.625h-2a480 480 0 0 1-1.5-3.812l-.844-2.145C864 251 864 251 864 248"/><path fill="#1269ac" d="M506 633c6.625.75 6.625.75 10 3-4.38 2.19-4.38 2.19-7.25 1.313C507 636 507 636 506 633"/><path fill="#0076c7" d="m724 560 4 1 2.14.535L736 563v1q-2.125.04-4.25.063l-2.39.035c-2.267-.094-4.189-.466-6.36-1.098z"/><path fill="#017ece" d="M673 363h1v6h2c3 4.385 3 4.385 3 7-2.328-.931-3.744-1.654-5.25-3.687-1.021-3.148-.876-6.028-.75-9.313"/><path fill="#1f354f" d="m648 331 2 3 3-2c-1.491 3.795-3.757 5.61-7 8 .875-6.75.875-6.75 2-9"/><path fill="#0a1e46" d="m681 314 1 2-7 9-1-4c2.313-2.625 2.313-2.625 5-5z"/><path fill="#0273c3" d="m696 298 2 1a448 448 0 0 1-2.312 4.375l-1.301 2.46C693 308 693 308 690 310c.457-5.027 2.992-8.149 6-12"/><path fill="#1b3a69" d="m309 281 3 3q-.676 1.973-1.375 3.938l-.773 2.214C309 292 309 292 307 293z"/><path fill="#127abc" d="M548 234h2c1.498 3.371 2 5.204 2 9h-3z"/><path fill="#0e213f" d="M709 224h1v8h2v2h-2l-1 4h-2z"/><path fill="#11223d" d="M530 170c-2.594 1.558-5.147 2.977-8 4-3-.75-3-.75-5-2 4.502-2.5 8.016-3.404 13-2"/><path fill="#112849" d="m801 145 3 9c-6.875-5.75-6.875-5.75-8-8 3-1 3-1 5-1"/><path fill="#078fce" d="M439 590c3.579 1.652 6.748 3.783 10 6l-1 3a396 396 0 0 1-3.937-2.812l-2.215-1.583C440 593 440 593 439 590"/><path fill="#0d234c" d="M712 524v3c-5.75.125-5.75.125-8-1v-2c3.287-.8 4.71-1.097 8 0"/><path fill="#037dd0" d="M682 452c2.438.688 2.438.688 5 2 .875 2.5.875 2.5 1 5l-1 2h-2l-.375-2.437L684 456l-2-1z"/><path fill="#122744" d="M874 434h1c1.017 4.371 1.169 7.005-1 11l-2 1q.214-2.157.438-4.312c.08-.801.162-1.602.246-2.426C873 437 873 437 874 434"/><path fill="#1262a7" d="M581 321h4v2l4 2v2l-5-1v-2l-3-1z"/><path fill="#1a3357" d="M300 272h1a376 376 0 0 1-.312 5.813l-.176 3.269c-.543 3.093-1.065 4.048-3.512 5.918.551-5.239 1.43-9.974 3-15"/><path fill="#122546" d="M511 229c3 2 3 2 3.813 5.5L515 238l-2 2c-1.423-3.823-2.24-6.913-2-11"/><path fill="#086fb7" d="M371 228h2c-.506 4.355-1.384 7.442-4 11h-2c1.213-3.724 2.509-7.378 4-11"/><path fill="#0fb0d6" d="M834 109c4.688 3.516 4.688 3.516 6 5v4c-1.875-.562-1.875-.562-4-2-1.25-3.625-1.25-3.625-2-7"/><path fill="#1f6e98" d="M473 59c-4.263 4.13-7.288 4.613-13 5 3.99-4.388 7.086-5.269 13-5"/><path fill="#008bda" d="M489 628c5.288.415 8.117 1.352 12 5l-2 1c-2.383-.996-2.383-.996-5.125-2.437l-2.758-1.434L489 629z"/><path fill="#24719b" d="m409 556 8 8-1 2a198 198 0 0 1-3.5-2.75c-.65-.51-1.3-1.02-1.969-1.547C409 560 409 560 409 556"/><path fill="#20497e" d="M635 363c2.603 2.712 2.995 3.891 3.188 7.75L638 374h2v2l-3-1c-1.489-4.075-2.263-7.665-2-12"/><path fill="#132848" d="M541 301c2.938 1.625 2.938 1.625 6 4 .875 3.25.875 3.25 1 6-2.6-2.51-4.99-4.986-7-8z"/><path fill="#00a2e0" d="M685 283c.75 1.625.75 1.625 1 4-1.812 3.25-1.812 3.25-4 6h-2c1.335-3.594 2.96-6.755 5-10"/><path fill="#020d2e" d="M709 197h8c-1.75 4.875-1.75 4.875-4 6l-.875-1.875c-1.062-2.258-1.062-2.258-3.125-4.125"/><path fill="#215892" d="M497 128h5v3l-7 2-1-3h3z"/><path fill="#16315c" d="M773 106c7.63 1.477 7.63 1.477 9.5 4.125L783 112c-4.833-.414-6.827-2.464-10-6"/><path fill="#173160" d="m758 96 10 5c-4.286 1.072-4.66 1.037-8.25-.937l-2.14-1.153L756 98z"/><path fill="#1476ae" d="M444 74v2l2 1c-3.402 2.094-6.053 2.18-10 2 4.839-5 4.839-5 8-5"/><path fill="#007ed8" d="m587.188 67.938 2.73.027L592 68c-2.819 2.819-5.09 2.73-9 3-2.437-.937-2.437-.937-4-2 3.015-1.005 5.042-1.103 8.188-1.062"/><path fill="#225180" d="M472 615c4.755.576 7.97 2.55 12 5-2.557.956-3.603 1.178-6.14.04l-2.11-1.415-2.14-1.398L472 616z"/><path fill="#0a1f47" d="m656 342 2 1-1 4h-4v2l-3 1 2-4h2z"/><path fill="#02a1e1" d="M684 268h7v6l-1-3h-5z"/><path fill="#162c4f" d="m700 197 4 2v1h-16v-1l2.371-.184 3.067-.254c1.009-.08 2.018-.162 3.058-.246 2.44-.048 2.44-.048 3.504-1.316"/><path fill="#0a64ab" d="m524 197 3 2-1 10c-2.136-3.204-2.231-4.02-2.125-7.687l.055-2.45z"/><path fill="#0c7ec2" d="M431 81h2v2l3 1-6 4c-.625-2.375-.625-2.375-1-5z"/><path fill="#0691d6" d="M451 71c-.687 1.938-.687 1.938-2 4-2.625.75-2.625.75-5 1l1-4c2.076-.553 3.844-1 6-1"/><path fill="#165fa2" d="m677 650 2 1-1 4-8 1c1.25-1.5 1.25-1.5 3-3h4z"/><path fill="#1c6099" d="m500 630 9 2-2 3c-2.937-.812-2.937-.812-6-2z"/><path fill="#1e6c98" d="M380 514c3 1 3 1 4.688 3.938C386 521 386 521 386 523c-3-1-3-1-4.687-3.937C380 516 380 516 380 514"/><path fill="#0a77bf" d="M737 466h2c1.478 2.957 1.06 5.742 1 9h-2z"/><path fill="#007fd6" d="M691 466c3.31 3.31 3.504 4.532 4 9h-3z"/><path fill="#195d9f" d="m588 278 5 2 1 9c-2.503-2.938-3.47-5.179-4-9h-2z"/><path fill="#1a5b9a" d="m529 239 3 1 1 8-1-2h-2z"/><path fill="#195e9e" d="m528 170 4 1h-3l-.875 2.25A82 82 0 0 1 525 180h-1c-.412-3.603-.154-4.784 2-7.812z"/><path fill="#0fc3eb" d="m873 159 4 5-2 4-1-4h-2z"/><path fill="#0273c2" d="M397 110h2l-1 3 3 2-3 1-1 2-2-1z"/><path fill="#21528b" d="M463 612c3.937 1.312 6.227 2.92 9 6-3.788-.526-6.172-1.381-9-4z"/><path fill="#1b3961" d="m541 602 2 1v2l4-1 1 2h-10z"/><path fill="#195d9f" d="M851 542h3c-1.25 3.653-1.671 4.78-5 7l-1-2c1.25-2.625 1.25-2.625 3-5"/><path fill="#1e4274" d="m531 483 4 1-.937 1.688c-1.12 2.437-1.623 4.674-2.063 7.312-1.804-2.76-2.013-3.89-1.625-7.25z"/><path fill="#1a689c" d="M740 471c2.296 3.445 2.54 5.938 3 10l-3-1c-.845-3.378-1.108-5.675 0-9"/><path fill="#1062a8" d="m660 346 2 2c-.375 3.625-.375 3.625-1 7l-3 1c.458-3.47.891-6.674 2-10"/><path fill="#0177c3" d="M726 160h6v2h6v1c-1.437.081-2.874.14-4.312.188l-2.426.105c-2.74-.355-3.554-1.187-5.262-3.293"/><path fill="#264d7f" d="M715 161c2.662.382 5.328.688 8 1v1c-1.77.054-3.541.093-5.312.125l-2.989.07C712 163 712 163 709 161c2.597-1.299 3.208-.735 6 0"/><path fill="#22426a" d="m357 154 1 2c-2.315 3.721-4.286 6.612-8 9 1.78-4.044 4.395-7.46 7-11"/><path fill="#13bce5" d="M818 96c3.255.349 4.019 1.021 6.25 3.563L826 102h-3v-2l-3 1z"/><path fill="#1c375d" d="m702 83 1 4-10-2v-1z"/><path fill="#15315b" d="m723 80 11 3v3a579 579 0 0 1-4.937-1.875l-2.778-1.055C724 82 724 82 723 80"/><path fill="#234f84" d="M660 73c6.574-.372 6.574-.372 8.73 1.512L670 76q-2.22-.173-4.437-.375c-.824-.07-1.648-.14-2.497-.21L661 75z"/><path fill="#0467b0" d="M503 49c-7.429 4.429-7.429 4.429-11 5 6.632-7.184 6.632-7.184 11-5"/><path fill="#142c4e" d="M491.625 673.875 494 674v4l-7-2c2-2 2-2 4.625-2.125"/><path fill="#0864ab" d="m738 484 4 1v6h-3l1-4-2-1z"/><path fill="#007acf" d="m688 460 2 1v8c-1.562-1.125-1.562-1.125-3-3 .313-3.187.313-3.187 1-6"/><path fill="#1f3755" d="M613 333c1.563 1.813 1.563 1.813 3 4l-1 3-6-3 1-2 2 1z"/><path fill="#1f5590" d="M566 315c4.142 1.38 5.322 3.598 8 7l-1 2-1-3h-3c-3-3.333-3-3.333-3-6"/><path fill="#11274a" d="M827 181c1.875.25 1.875.25 4 1 1.25 2.063 1.25 2.063 2 4l-2 2z"/><path fill="#1a598f" d="M384 122c.813 1.688.813 1.688 1 4-2.437 2.75-2.437 2.75-5 5 .615-5.538.615-5.538 2.563-7.875z"/><path fill="#162a46" d="M719 94c4.814-.566 7.203 1.174 11 4l-2 1c-2.164-.777-2.164-.777-4.625-1.937l-2.477-1.153L719 95z"/><path fill="#24456b" d="m522 83 8 1c-2.918 1.945-4.625 2.453-8 3z"/><path fill="#1d385c" d="M494 573h2l-1 3h-2l.625 2.25c.427 3.128-.128 4.076-1.625 6.75a365 365 0 0 1-.125-4.875l-.07-2.742C492 575 492 575 494 573"/><path fill="#142d5b" d="M349 544h2c2 2 2 2 2.125 5.125L353 552c-2.9-2.395-3.502-4.312-4-8"/><path fill="#1a345a" d="m847 504 2 3a125 125 0 0 1-4 6h-2c1.199-3.083 2.477-6.063 4-9"/><path fill="#060a10" d="m565 471-2 7-3-1c.375-2.437.375-2.437 1-5 2-1 2-1 4-1"/><path fill="#027ed2" d="M644 407c5.875 3.625 5.875 3.625 7 7-1.937-.312-1.937-.312-4-1l-1-3h-2z"/><path fill="#05153a" d="m627 338 3 1-1 7-1-2h-2v-2h2z"/><path fill="#1a3967" d="M306 294h2c1.097 3.29.8 4.713 0 8l-3 1z"/><path fill="#132849" d="m526 272 2 1v3h2l1 6c-3.672-3.08-4.568-5.248-5-10"/><path fill="#172e54" d="m740 103 5 1v2h2l1 3c-2.972-1.125-5.334-2.223-8-4z"/><path fill="#0081da" d="m416 94 2 1-1.437 1.25c-1.726 1.932-2.129 3.232-2.563 5.75l-4-1z"/><path fill="#1d5b99" d="m454 73 3 1-5 5-2-1v-2c1.813-1.687 1.813-1.687 4-3"/><path fill="#1f5992" d="M482 621c2.875.25 2.875.25 6 1l2 4-8-4z"/><path fill="#1e487e" d="M704 281h2c-1.09 3.775-1.908 6.47-5 9 1.875-6.75 1.875-6.75 3-9"/><path fill="#2f84ab" d="m691 268 3 2-2 6h-2z"/><path fill="#1076b7" d="M356 269h1l-1 9h-2c.875-6.75.875-6.75 2-9"/><path fill="#1f4b81" d="M582 268c3 2 3 2 3.688 4.625L586 275h-3z"/><path fill="#185d91" d="m385 201 3 1c-1.074 2.915-1.778 4.778-4 7-.93-2.606-1.15-3.642-.062-6.25z"/><path fill="#1b5988" d="M396 184h4c-1.293 2.884-2.66 4.872-5 7z"/><path fill="#177fb3" d="m453 67 2 1-3 5-1-2-4 1c1.933-2.025 3.632-3.421 6-5"/></svg>