<svg xmlns="http://www.w3.org/2000/svg" viewBox="0 0 1024 1024"><path fill="#0d0d0e" d="M523 812.98c-40.04 3.01-82.91-1.98-120.44-14.01-33.56-10.75-80.87-34.45-106.76-53.47-48.93-35.95-87.69-82.07-114.3-136-20.56-41.66-33.94-88.64-38.03-133.5-1.65-18.09-1.88-56.29-.45-73.5 5.04-60.69 27.68-126.57 60.3-175.5 3.86-5.77 8.34-11.85 9.98-13.5 2.95-2.98 2.97-2.98 2.35-.5-.34 1.38-.63 2.86-.64 3.31 0 .44-.53.49-1.16.09-.7-.42-.89-.27-.48.38.7 1.15-4.92 12.47-6.49 13.06-.49.18-.64.74-.33 1.24.81 1.3 4.43-2.5 10.55-11.08 7.74-10.87 26.45-34.29 34.34-43 12.72-14.05 33.25-33.05 47.56-44.02 2.48-1.9 5.01-3.91 5.63-4.47.62-.55 1.97-1.58 3-2.27s4.87-3.39 8.54-6c9.24-6.56 18.22-12.03 31.72-19.33 5.14-2.78 9.95-4.23 5.46-1.65-6.26 3.61-32.07 21.57-36.14 25.15-2.59 2.29-7.71 6.48-11.37 9.32-7.46 5.78-15.85 14.32-17.29 17.6-.52 1.19-2.66 4.37-4.75 7.05s-3.8 5.29-3.8 5.79-.9 1.88-2 3.06-2 3.13-2 4.34c0 2.26-2.23 4.86-3.28 3.82-.74-.74-1.59 4.17-2.17 12.61-.35 5.13-.88 6.79-2.5 7.87-1.53 1.02-2.05 2.45-2.05 5.6 0 4.39-1.97 9.43-4.52 11.55-.81.67-1.48 2.69-1.48 4.49 0 1.79-1.77 6.8-3.93 11.12-4.29 8.6-7.02 15.54-7.57 19.27-.2 1.31-.73 2.66-1.18 3-1.33.98-11.21 21.68-15.32 32.11-1.17 2.95-3.16 7.64-4.43 10.43-4.08 8.94-15.52 44.31-15.55 48.06 0 1.1-.66 4.02-1.46 6.5-3.09 9.62-6.47 25.99-7.54 36.5-.62 6.05-1.54 14.83-2.05 19.5-1.72 15.58-2.18 39.24-1.04 53 2.45 29.52 4.17 42.63 7.08 54 .49 1.92 1.85 7.55 3.02 12.5 1.16 4.95 2.52 10.35 3.02 12 4.27 14.3 7.3 23.42 8.51 25.65.79 1.46 1.44 3.38 1.44 4.27 0 .88.43 2.39.96 3.34.53.96 2.38 5.12 4.12 9.24 4.2 9.98 15.43 32.13 19.77 39 3.03 4.8 7.86 12.11 17.15 25.92 12.7 18.9 47.11 53.88 66.56 67.66 19.52 13.84 30.47 20.53 47.2 28.84 32.54 16.18 67.43 25.97 105.46 29.62 18.21 1.75 52.54.75 69.28-2.03 7.15-1.18 15.25-2.5 18-2.93 7.35-1.14 32-7.84 39.5-10.74 24.91-9.61 48.85-21.47 64.97-32.2 14.24-9.47 32.03-23.18 32.03-24.67 0-.66-7.92 4.87-10.74 7.5-1.54 1.44-18.98 13.2-24.79 16.72-44.2 26.79-82.62 40.14-130.47 45.35-10.45 1.14-48.44 1.23-59.5.15-3.99-.39 6.57-.71 24.5-.74 28.08-.05 32.88-.3 44.2-2.31 17.2-3.04 29.49-7.35 44.3-15.51 6.27-3.46 11.56-7.75 12.62-10.23.21-.5 2.74-1.99 5.63-3.32s5.25-2.84 5.25-3.36c0-.51.62-.7 1.38-.4 1.45.55 8.62-3.79 8.62-5.22 0-.84 15.31-10.09 16.73-10.11.42 0 2.02-.66 3.55-1.45 1.86-.97 2.54-1.05 2.05-.25-.41.67.36.44 1.71-.5 1.35-.93 4.26-2.66 6.46-3.84 5.26-2.82 7.68-5.04 7.1-6.54-.44-1.17 2.31-4.41 3.75-4.41.38 0 2.15-1.46 3.95-3.25s8.66-8.05 15.26-13.92c13.55-12.06 31.1-30.95 41.17-44.33 37.5-49.77 59.72-106.55 66.35-169.5 1.56-14.73 1.54-51.99-.03-67.5-6.03-59.69-26.69-115-60.05-160.72-17.48-23.96-45.26-51.46-69.76-69.06-10.48-7.53-33.03-20.7-45.85-26.77-26.63-12.63-63.91-23.01-91.6-25.52-5.42-.49-7.85-1.14-8.25-2.19-.48-1.25.13-1.39 3.69-.81 5.89.96 34.02.72 35.03-.29 3.25-3.25-17.12-6.14-43.34-6.14-27.59 0-47.66 2.43-74.42 9-12.34 3.03-40.45 12.39-41.44 13.8-.31.43-4.61 2.54-9.56 4.69-4.95 2.14-9.45 4.22-10 4.61s-2.89 1.21-5.2 1.83c-2.32.62-4.8 1.71-5.51 2.43-.72.72-2.66 1.61-4.3 1.99-3.71.86 2.89-2.82 20.51-11.44 19.12-9.35 33.3-14.57 55.5-20.41 29.02-7.65 50.45-10.01 83.82-9.22 24.33.57 36.56 2.09 58.3 7.23 54.3 12.83 105.96 42.07 146.05 82.68 47.15 47.75 79.14 111.39 90.29 179.61 3.96 24.27 4.46 30.73 4.45 58.2-.02 42.95-4.2 70.77-16.6 110.5-14.28 45.76-42.88 94.39-75.92 129.09-2.14 2.24-3.89 4.63-3.89 5.3 0 .68-.42.97-.93.65-.52-.32-2.31.9-4 2.69-2.89 3.08-3.78 4.77-2.51 4.77.68 0 18.43-15.77 23.94-21.28 6.16-6.16 7.39-6.66 19.08-7.71 16.78-1.52 20.42-2.11 20.44-3.36 0-.63.45-.48.98.35.77 1.19.98.98 1-1s.23-2.19 1-1c.89 1.37 1.44.7 1.09-1.32-.08-.46.29-.56.82-.24.52.33 1.23.14 1.58-.42s1.14-1.02 1.76-1.02.26.66-.81 1.47-1.58 1.48-1.14 1.5c1.19.04-9.91 15.87-20 28.53-10.8 13.55-32.3 35.78-46.24 47.8-57.52 49.58-128.01 79.12-202.06 84.68m-78.43-158.45-.07.01c-28.01 1.47-32.79 1.72-37.15.49-.9-.26-1.78-.58-2.85-.96-2.75-.99-7.02-2.42-9.48-3.18-3.65-1.13-4.94-2.2-6.87-5.71-8.82-16.02 2.2-73.51 21.6-112.68 10.38-20.95 26.36-45.26 42.73-65 13.92-16.8 16.96-20.21 17.43-23.94.13-1.04.06-2.1-.02-3.47-.03-.37-.05-.75-.07-1.16l-.37-6.57-11.34-12.93c-32.24-36.74-52.23-69.67-64.92-106.93-7.4-21.76-10.28-38.63-10.35-60.81-.06-20.5 1.06-22.38 15.39-25.8 9.52-2.28 9.79-2.29 7.08-.39-4.3 3.01-5.81 9.7-5.76 25.5.04 12.65.53 16.92 3.84 33.5 3.77 18.9 7.89 31.05 17.63 52 1.53 3.3 3.78 8.46 5 11.47 1.22 3 4.16 7.85 6.54 10.76 2.37 2.91 4.62 6.26 4.99 7.44 1.22 3.84 16.1 25.53 20.58 29.98 2.4 2.4 7.97 8.59 12.37 13.76 4.4 5.18 9.88 11.33 12.18 13.67 6.2 6.31 7.67 9.77 7.54 17.71-.15 8.76-1.8 13.29-5.36 14.77-3.76 1.55-5.77 7.28-3.46 9.83.88.97 1.6 2.91 1.6 4.32 0 2.74 2.17 5.24 3.5 4.03.45-.41.52-.21.14.44-.37.65-.22 1.46.34 1.81s1.03.04 1.04-.68c.01-.99.23-.96.92.13.79 1.24 1.14 1.24 2.69 0 1.19-.96.96-.26-.67 2.06-1.35 1.92-2.46 3.8-2.46 4.17s-1.91 2.8-4.25 5.4c-2.34 2.61-4.25 4.87-4.25 5.04 0 .16-2.29 3.36-5.09 7.09-5.97 7.99-23.44 37.17-27.4 45.8-2.98 6.49-8.87 21.94-13.52 35.5-3.35 9.75-6.67 24.4-7.61 33.62-.56 5.44-.41 6.43 1.06 7 1.94.74 47.04-.91 140.56-5.14 23.52-1.07 39.47-2.57 40.78-3.85 1.01-1 1.04-3.3.17-11.19-4.92-44.39-27.92-89.31-66.04-128.94-4.77-4.95-9.83-11.32-11.26-14.16l-2.59-5.16-7.53-.71c-4.14-.39-7.53-1.1-7.53-1.59 0-.48-.85-.88-1.89-.88-1.74 0-1.85-.65-1.38-8.25.44-7.12.14-9.33-2.16-16.16-1.47-4.35-3.46-9.08-4.42-10.5-.97-1.43-3.19-5.51-4.93-9.09-1.93-3.97-6.36-10.01-11.35-15.5-4.51-4.95-11.75-12.89-16.1-17.65-11.64-12.71-20-26.6-21.35-35.45l-.63-4.09 6.25-.66.45-.04c5.47-.58 7.66-.81 8.99.15.92.67 1.43 1.9 2.34 3.99 1.14 2.61 3.56 7.1 5.38 9.97 1.81 2.88 4.42 7.11 5.8 9.41 1.38 2.31 5.42 7.41 9 11.35 16.49 18.18 26.47 30.53 29.5 36.54 3.93 7.77 6.52 17.52 6.96 26.17.41 8.05 2.6 19.17 3.57 18.12.4-.45 1.48-6.21 2.38-12.81 2.58-18.89 3.28-21.12 8.47-27 12.97-14.69 16.29-18.72 22.27-27 15.69-21.72 31.6-50.94 38.24-70.23 4.53-13.14 8.6-32.3 9.32-43.84l.56-9.07-30.88-1.27c-16.99-.7-32.24-1.44-33.89-1.66s-24.71-.7-51.25-1.08c-27.14-.38-48.25-1.07-48.25-1.57 0-.49-4.84-.81-10.75-.71s-10.63-.21-10.49-.69c.15-.49 13.83-.81 30.5-.72 51.44.27 173.2 2.53 173.97 3.23 1.05.96-.97 23.37-2.84 31.61-6.29 27.65-18.79 56.25-35.79 81.93-9.81 14.8-25.84 35.97-33.01 43.57-6.41 6.8-8.1 12.23-8.06 26 .03 16.04 1.68 19.91 14.19 33.29 5.26 5.61 10.26 11.33 11.13 12.71 2.72 4.32 15.3 21.39 17.69 24 3.11 3.4 11.69 17.56 16.61 27.42 2.21 4.44 4.39 8.53 4.83 9.08 1.46 1.83 7.2 15.89 10.01 24.5 1.52 4.67 3.94 10.53 5.37 13 1.44 2.47 2.62 5.24 2.63 6.14 0 .9.69 2.92 1.53 4.5.99 1.87 1.31 4.14.92 6.57-.42 2.58-.12 4.41.98 5.98 2.3 3.28 1.99 8.81-.67 11.99l-2.25 2.68-27 1.03c-25.84 1-115.56 5.09-154.5 7.05-17.67.88-17.29.9 8.5.42 14.85-.28 40.95-.81 58-1.17 42.08-.91 64.61-.84 73.18.21 5.8.71 7.96.56 11.22-.74 3.18-1.27 7.56-1.61 20.32-1.57 20.95.08 22.91.76 25.57 8.97 3.49 10.78 1.42 11.69-30.65 13.49-44.83 2.51-84.26 4.39-114.14 5.46-16.23.58-42.07 1.71-57.43 2.52m-28.07 51.95c-6.6.31-15.83.79-20.5 1.06-8.14.48-8.82.35-16-3.04-14.85-7.01-14.96-7.15-14.99-19.7-.02-15.18 1.87-16.72 21.99-17.91 7.42-.44 36.45-1.95 64.5-3.35 82.3-4.11 109.62-5.49 133.64-6.71 23.31-1.18 32.15-.53 36.55 2.68 2.21 1.62-1.39 1.95-49.19 4.51-20.35 1.09-44.65 2.41-54 2.94-9.35.54-30.73 1.69-47.5 2.57-49.21 2.59-58.01 3.16-51 3.33 3.58.08 22.25-.51 41.5-1.32 69.84-2.94 86.59-3.57 120-4.54 18.7-.54 40.08-1.27 47.5-1.62 28.91-1.37 38.22-.44 39.59 3.93.37 1.21 1.14 2.49 1.71 2.85.57.37 1.33 2.97 1.69 5.78.51 3.98.26 5.76-1.12 8.03-3.16 5.19-5.54 6.01-20.49 7.05-14.71 1.03-103.22 6.2-136.88 8.01-11 .59-34.62 1.93-52.5 2.98s-37.9 2.16-44.5 2.47m93-101.92c-19.25.79-39.73 1.4-45.5 1.37-10.01-.06-19.94-1.81-22.55-3.97-3.29-2.73-2.35-22.57 1.69-35.7 4.69-15.26 15.4-34.37 28.18-50.26 8.58-10.67 29.64-31.17 34.86-33.94 3.91-2.07 5.18-2.25 11.21-1.61l6.8.73-8.84 9.29c-15.03 15.77-24.11 27.79-26.54 35.1-.72 2.16-1.18 6.63-1.02 9.93.28 5.58.53 6.15 3.68 8.21 2.17 1.42 3.5 3.17 3.71 4.86.26 2.15 1.17 2.93 4.82 4.13 2.48.82 4.93 1.9 5.45 2.4.52.49 2.45.9 4.28.9 3.92 0 5.13 2.03 3.27 5.5-2.26 4.22 1.24 8.08 5.12 5.66 2.86-1.79 5.61-1.38 7.34 1.09.87 1.24 1.91 2.29 2.31 2.34.4.04 1.4.36 2.23.7s2.85.76 4.5.92c2.45.24 3 .75 3.01 2.79.02 2.18.51 2.54 3.94 2.82 2.15.18 4.83.97 5.96 1.75 1.12.79 3 1.43 4.18 1.43s3.34.95 4.82 2.11c1.51 1.19 3.51 1.88 4.6 1.6 1.05-.28 2.44.13 3.08.89.63.77 2.25 1.4 3.6 1.4 1.34 0 3.34.48 4.44 1.07s2.94 1.25 4.08 1.47c7.24 1.4 18.71 7.58 18.76 10.12.04 1.7-5.01 2.2-28.97 2.88-11.83.33-37.25 1.24-56.5 2.02m264 322.56c-8.49 3.9-19.64 1.67-26.2-5.25-5.69-5.99-7.75-12.08-7.75-22.87 0-7.75.42-10.42 2.28-14.5 2.73-6.01 7.25-10.93 12.67-13.79 5.71-3.01 17.72-2.96 22.92.11 2.03 1.2 3.89 2.18 4.14 2.18.24 0 .44-6.75.44-15v-15h10v85.11l-4.75-.31c-4.55-.29-4.77-.44-5.25-3.66l-.5-3.37-2 2.26c-1.1 1.24-3.8 3.08-6 4.09m-346.43.37c-16.84 5.76-33.12-4.42-36-22.52-2.43-15.26 3.12-28.18 14.59-33.96 6.99-3.53 17.96-3.5 24.88.06 20.76 10.68 18.4 48.93-3.47 56.42m283.15.46c-4.34 1.21-12.53 1.24-16.46.05-7.62-2.29-14.37-9.09-17.14-17.28-1.83-5.4-2.13-17.33-.59-22.9 3.2-11.5 13.54-19.19 25.87-19.24 11.64-.04 18.77 4.09 23.91 13.83 2.45 4.63 2.69 6.08 2.69 16.09 0 10.45-.15 11.27-3.1 16.5-3.49 6.18-9.61 11.41-15.18 12.95m-60.6-1.75c-4.96 2.55-16.55 3.38-21.3 1.53-11.1-4.3-17.35-13.52-18.11-26.74-.61-10.39 1.59-17.44 7.48-23.99 5.58-6.21 11.35-8.54 20.81-8.4 8 .11 13.08 2.22 18.2 7.56 12.94 13.51 8.94 41.83-7.08 50.04M232.88 916l-4.38 11.99-5.32.01c-4.62 0-5.24-.23-4.73-1.75.31-.96 6.76-19.08 14.33-40.25l13.75-38.5 6.62-.29c6.45-.29 6.65-.22 7.63 2.5 1.4 3.87 26.8 72.15 28.11 75.54l1.06 2.75h-11.71l-8.65-24h-32.32Zm341.4 11c-3.52 1.31-7.66 1.98-12.07 1.93-11.47-.11-18.46-3.14-25.81-11.19-14-15.32-13.39-46.38 1.18-61.07 16.25-16.37 48.95-12.41 57.02 6.91 2.56 6.13 2.01 7.42-3.15 7.42-4.07 0-4.72-.33-6.25-3.15-5.18-9.57-13.03-13.66-24.03-12.53-16.18 1.67-23.76 13.05-23.01 34.55.35 9.97.59 11.03 3.94 17.13 4.7 8.57 10.3 12.24 19.55 12.83 14.15.9 22-6.03 23.87-21.08l.71-5.75H563v-9h33v44h-3.89c-4.22 0-5.11-1.05-5.11-6.08 0-3.69-.9-3.67-4.5.08-1.58 1.65-5.28 3.9-8.22 5m46.28-711.75c-1.01 1.38-2.63 1.72-7.67 1.61-3.51-.08-35.42-.96-70.89-1.96-35.48-.99-88.13-2.2-117.01-2.68-56.78-.95-56.22-.89-60.38-6.52-2.78-3.75-3.49-15.66-1.26-21 1.43-3.43 1.85-3.7 5.72-3.7 3.2 0 4.95-.69 7.58-3 1.88-1.65 4.13-3 5-3 1.43 0 1.43.23-.03 2.46-1.13 1.73-1.62 4.76-1.62 10.04 0 8.87 2.24 14.38 6.67 16.4 2.08.95 17.62 1.66 58.33 2.68 66.03 1.64 155.89 4.08 190 5.15l24.5.77-18.83.5c-16.43.44-19 .72-20.11 2.25m10.41 703.5c5.38 2.72 7.29 2.77 12.63.34 7.46-3.38 11.1-11.84 10.15-23.61-.95-11.9-6.65-18.48-16-18.48-9.57 0-14.94 4.95-16.91 15.61-2.14 11.52 1.93 22 10.13 26.14m-220.06-.07c6.86 3.61 11.91 2.79 17.82-2.92 4.26-4.11 5.69-8.65 5.6-17.8-.08-8.29-2.06-13.52-6.76-17.91-3.94-3.68-13.71-4.14-18.57-.87-5.55 3.72-7.5 8.75-7.5 19.32 0 11.22 2.48 16.53 9.41 20.18m285.55.44c5.27 2.4 7.2 2.34 12.58-.37 6.53-3.3 9.46-9.56 9.46-20.28 0-13.85-5.85-21.47-16.5-21.47-9.45 0-15.71 6.71-16.73 17.92-1.05 11.66 3.03 20.49 11.19 24.2m66.04 1.19c6.5 1.68 14.12-2.07 17.34-8.55 1.95-3.92 2.34-6.25 2.34-14.04 0-15.93-4.05-21.15-15.92-20.48-11.08.63-15.41 5.97-16.08 19.79-.34 7.1-.05 9.48 1.59 13.17 1.98 4.49 6.9 9.12 10.73 10.11M374 878.1V928h-10v-49.89l-4.75-.31-4.75-.3-.61-8.5H364v-6.79c0-8.14 2.87-14.73 7.59-17.44 1.7-.97 5.86-2.06 9.25-2.41l6.16-.64v4.64c0 4.62-.02 4.64-3.42 4.64-1.88 0-4.14.28-5.04.62-2.66 1.02-4.54 5.93-4.54 11.83V869h12.11l-.61 8.5-5.75.3ZM313 847v81h-10v-81Zm156.01 64.25L469 928h-10v-23.35c0-12.85-.29-26.12-.64-29.5l-.64-6.15h5.03c5.6 0 6.24.7 6.26 6.83l.01 3.67 2.59-3.28c2.78-3.54 7.96-6.56 13.14-7.68l3.25-.7v5.2c0 2.31 0 3.58-.61 4.39-.74 1.01-2.42 1.33-6.16 2.08-4.45.89-9.77 6.16-11.11 11-.61 2.2-1.11 11.53-1.11 20.74m-228.71-17.5c-.36.96 2.66 1.25 13.05 1.25h13.51l-2.89-7.75c-1.58-4.26-4.58-12.81-6.64-19-2.07-6.19-4-11.24-4.3-11.24-.29.01-3.17 8-6.4 17.75-3.23 9.76-6.08 18.3-6.33 18.99m-24.94-19.52c-.61.99-6.1 1-6.69.02-.24-.41-.77-7.61-1.17-16l-.73-15.25h10.51l-.73 15.23c-.39 8.38-.93 15.58-1.19 16m-18.23-6.73c-.63 6.97-.64 7-3.79 7.31-1.73.16-3.36-.06-3.62-.5-.25-.45-.78-7.67-1.17-16.06l-.7-15.25H198l-.12 8.75c-.07 4.81-.41 11.9-.75 15.75m619.22 2.25c-.6 4.97-.78 5.25-3.51 5.25-4.12 0-4.84-2.77-4.84-18.57V843h9l-.01 10.75c0 5.91-.29 13.11-.64 16m18.8-.75c-.62 5.23-.8 5.51-3.69 5.8-1.67.16-3.35-.03-3.75-.42-.39-.39-.71-7.61-.71-16.05V843h9l-.1 10.25c-.05 5.64-.39 12.72-.75 15.75M694.83 696.69c-3.74 3.97-.28 2.53 5.83-2.44 5.74-4.67 5.79-4.76 3-5.07-2.81-.33-6.66 2.08-6.66 4.16 0 .57-.98 2.07-2.17 3.35M500 468.5c-.68.83-1.37 1.5-1.52 1.5-.14 0-.53-.67-.84-1.5-.4-1.04.07-1.5 1.51-1.5 1.75 0 1.89.25.85 1.5"/><path fill="#3b3b3e" d="M478.5 757.39c10.86.68 40.37-.42 51.79-1.92 39.24-5.16 81.37-20.02 113.99-40.2 17.96-11.11 38.72-27.72 56.02-44.59-3.71 3.68-7.35 7.13-10.74 10.15-6.6 5.87-13.46 12.13-15.26 13.92s-3.57 3.25-3.95 3.25c-1.44 0-4.19 3.24-3.75 4.41.58 1.5-1.84 3.72-7.1 6.54-2.2 1.18-5.11 2.91-6.46 3.84-1.35.94-2.12 1.17-1.71.5.49-.8-.19-.72-2.05.25-1.53.79-3.13 1.45-3.55 1.45-1.42.02-16.73 9.27-16.73 10.11 0 1.43-7.17 5.77-8.62 5.22-.76-.3-1.38-.11-1.38.4 0 .52-2.36 2.03-5.25 3.36s-5.42 2.82-5.63 3.32c-1.06 2.48-6.35 6.77-12.62 10.23-14.81 8.16-27.1 12.47-44.3 15.51-11.32 2.01-16.12 2.26-44.2 2.31-17.93.03-28.49.35-24.5.74 11.06 1.08 49.05.99 59.5-.15 47.85-5.21 86.27-18.56 130.47-45.35 5.81-3.52 23.25-15.28 24.79-16.72 2.82-2.63 10.74-8.16 10.74-7.5 0 1.49-17.79 15.2-32.03 24.67-16.12 10.73-40.06 22.59-64.97 32.2-7.5 2.9-32.15 9.6-39.5 10.74-2.75.43-10.85 1.75-18 2.93-16.74 2.78-51.07 3.78-69.28 2.03-38.03-3.65-72.92-13.44-105.46-29.62-16.73-8.31-27.68-15-47.2-28.84-19.45-13.78-53.86-48.76-66.56-67.66-9.29-13.81-14.12-21.12-17.15-25.92-4.34-6.87-15.57-29.02-19.77-39-1.74-4.12-3.59-8.28-4.12-9.24-.53-.95-.96-2.46-.96-3.34 0-.89-.65-2.81-1.44-4.27-1.21-2.23-4.24-11.35-8.51-25.65-.5-1.65-1.86-7.05-3.02-12-1.17-4.95-2.53-10.58-3.02-12.5-2.91-11.37-4.63-24.48-7.08-54-1.14-13.76-.68-37.42 1.04-53 .51-4.67 1.43-13.45 2.05-19.5 1.07-10.51 4.45-26.88 7.54-36.5.8-2.48 1.46-5.4 1.46-6.5.03-3.75 11.47-39.12 15.55-48.06 1.27-2.79 3.26-7.48 4.43-10.43 4.11-10.43 13.99-31.13 15.32-32.11.45-.34.98-1.69 1.18-3 .55-3.73 3.28-10.67 7.57-19.27 2.16-4.32 3.93-9.33 3.93-11.12 0-1.8.67-3.82 1.48-4.49 2.55-2.12 4.52-7.16 4.52-11.55 0-3.15.52-4.58 2.05-5.6 1.62-1.08 2.15-2.74 2.5-7.87.58-8.44 1.43-13.35 2.17-12.61 1.05 1.04 3.28-1.56 3.28-3.82 0-1.21.9-3.16 2-4.34s2-2.56 2-3.06 1.71-3.11 3.8-5.79 4.23-5.86 4.75-7.05c1.44-3.28 9.83-11.82 17.29-17.6 3.66-2.84 8.78-7.03 11.37-9.32 4.07-3.58 29.88-21.54 36.14-25.15 4.49-2.58-.32-1.13-5.46 1.65-13.5 7.3-22.48 12.77-31.72 19.33-3.67 2.61-7.51 5.31-8.54 6s-2.38 1.72-3 2.27c-.62.56-3.15 2.57-5.63 4.47-14.31 10.97-34.84 29.97-47.56 44.02-7.89 8.71-26.6 32.13-34.34 43-6.12 8.58-9.74 12.38-10.55 11.08-.31-.5-.16-1.06.33-1.24 1.57-.59 7.19-11.91 6.49-13.06-.41-.65-.22-.8.48-.38.63.4 1.16.35 1.16-.09.01-.45.3-1.93.64-3.31.62-2.48.6-2.48-2.35.5-1.61 1.62-5.97 7.52-9.77 13.2.58-.89 1.16-1.78 1.75-2.67 38.61-58.22 93.36-104.91 152.22-129.84C421 67.3 467.33 57.43 521 59.35c67.21 2.41 120.73 20.14 174.96 57.96 32.01 22.32 65.15 55.02 87.38 86.19C831.42 270.95 857 350.97 857 433.95c0 81.17-24.01 158.62-68.9 223.81 2.35-3.5 3.65-5.77 3.2-5.79-.44-.02.07-.69 1.14-1.5s1.43-1.47.81-1.47-1.41.46-1.76 1.02-1.06.75-1.58.42c-.53-.32-.9-.22-.82.24.35 2.02-.2 2.69-1.09 1.32-.77-1.19-.98-.98-1 1s-.23 2.19-1 1c-.53-.83-.98-.98-.98-.35-.02 1.25-3.66 1.84-20.44 3.36-11.69 1.05-12.92 1.55-19.08 7.71-5.51 5.51-23.26 21.28-23.94 21.28-1.27 0-.38-1.69 2.51-4.77 1.69-1.79 3.48-3.01 4-2.69.51.32.93.03.93-.65 0-.67 1.75-3.06 3.89-5.3 33.04-34.7 61.64-83.33 75.92-129.09 12.4-39.73 16.58-67.55 16.6-110.5.01-27.47-.49-33.93-4.45-58.2-11.15-68.22-43.14-131.86-90.29-179.61-40.09-40.61-91.75-69.85-146.05-82.68-21.74-5.14-33.97-6.66-58.3-7.23-33.37-.79-54.8 1.57-83.82 9.22-22.2 5.84-36.38 11.06-55.5 20.41-17.62 8.62-24.22 12.3-20.51 11.44 1.64-.38 3.58-1.27 4.3-1.99.71-.72 3.19-1.81 5.51-2.43 1.26-.34 2.54-.74 3.52-1.1-6.93 3.43-14.26 7.5-21.63 12.01-7.32 4.49-13.65 8.16-14.07 8.16s-2.3 1.4-4.19 3.11-6.85 5.72-11.02 8.92c-28.26 21.66-56.62 53.15-76.07 84.47-21.9 35.25-38.72 79.94-45.73 121.5-3.57 21.13-4.56 34.12-4.55 59.5.02 26.4.96 38.01 4.98 61.34 9.52 55.18 32.62 107.15 67.07 150.86 16.92 21.48 46.33 48.28 68.89 62.79 39.95 25.69 86.79 40.92 135 43.9m16.44-350.77c4.1 4.5 4.47 4.7 4.83 2.59.13-.78-.19-2.17-.78-3.67.08.16.16.31.23.46 1.74 3.58 3.96 7.66 4.93 9.09.96 1.42 2.95 6.15 4.42 10.5 2.3 6.83 2.6 9.04 2.16 16.16-.47 7.6-.36 8.25 1.38 8.25 1.04 0 1.89.4 1.89.88 0 .38 2.09.91 4.99 1.3-5.67-.41-8.99-.04-9 1.07-.03 4.03-5.9 12.67-16.51 24.32-3.11 3.41-6.03 6.56-8.29 8.94 1.89-2.17 3.31-4.02 3.31-4.34 0-.37 1.11-2.25 2.46-4.17 1.63-2.32 1.86-3.02.67-2.06-1.55 1.24-1.9 1.24-2.69 0-.69-1.09-.91-1.12-.92-.13-.01.72-.48 1.03-1.04.68s-.71-1.16-.34-1.81c.38-.65.31-.85-.14-.44-1.33 1.21-3.5-1.29-3.5-4.03 0-1.41-.72-3.35-1.6-4.32-2.31-2.55-.3-8.28 3.46-9.83 3.56-1.48 5.21-6.01 5.36-14.77.13-7.94-1.34-11.4-7.54-17.71-2.3-2.34-7.78-8.49-12.18-13.67-4.4-5.17-9.97-11.36-12.37-13.76-4.48-4.45-19.36-26.14-20.58-29.98-.37-1.18-2.62-4.53-4.99-7.44-2.38-2.91-5.32-7.76-6.54-10.76-1.22-3.01-3.47-8.17-5-11.47-9.74-20.95-13.86-33.1-17.63-52-3.31-16.58-3.8-20.85-3.84-33.5-.05-15.8 1.46-22.49 5.76-25.5 2.69-1.89 2.44-1.89-6.89.34.62-.15 1.28-.31 1.97-.48l10.1-2.45 112.01 2.08c61.6 1.15 113.91 2.32 116.25 2.61 5.56.68 9.9 4.4 11.36 9.72 1.44 5.28 1.42 25.27-.05 37.68-5.59 47.16-32.98 102.88-73.57 149.64-10.03 11.54-9.83 18.65.84 30.14 25.76 27.77 46.02 58.94 57.96 89.22 10.78 27.32 15.95 51.38 16.11 75 .09 14.62-.03 15.71-2.25 19.27-.46.75-.9 1.42-1.35 2.01.56-1.74.01-4.05-1.01-7.22-2.66-8.21-4.62-8.89-25.57-8.97-12.76-.04-17.14.3-20.32 1.57-3.26 1.3-5.42 1.45-11.22.74-8.57-1.05-31.1-1.12-73.18-.21-17.05.36-43.15.89-58 1.17-25.79.48-26.17.46-8.5-.42 38.94-1.96 128.66-6.05 154.5-7.05l27-1.03 2.25-2.68c2.66-3.18 2.97-8.71.67-11.99-1.1-1.57-1.4-3.4-.98-5.98.39-2.43.07-4.7-.92-6.57-.84-1.58-1.53-3.6-1.53-4.5-.01-.9-1.19-3.67-2.63-6.14-1.43-2.47-3.85-8.33-5.37-13-2.81-8.61-8.55-22.67-10.01-24.5-.44-.55-2.62-4.64-4.83-9.08-4.92-9.86-13.5-24.02-16.61-27.42-2.39-2.61-14.97-19.68-17.69-24-.87-1.38-5.87-7.1-11.13-12.71-12.51-13.38-14.16-17.25-14.19-33.29-.04-13.77 1.65-19.2 8.06-26 7.17-7.6 23.2-28.77 33.01-43.57 17-25.68 29.5-54.28 35.79-81.93 1.87-8.24 3.89-30.65 2.84-31.61-.77-.7-122.53-2.96-173.97-3.23-16.67-.09-30.35.23-30.5.72-.14.48 4.58.79 10.49.69s10.75.22 10.75.71c0 .5 21.11 1.19 48.25 1.57 15.73.22 30.24.48 39.79.7-11.36-.23-29.93-.5-50.29-.72l-58.75-.64v6.56c0 16.21 7.64 45.37 17.3 66 2.51 5.36 5.02 9.75 5.58 9.75s1.46-.79 2-1.75c.15-.26.39-.49.95-.68l.59 3.83c1.35 8.85 9.71 22.74 21.35 35.45 4.35 4.76 11.59 12.7 16.1 17.65 2.81 3.09 5.44 6.35 7.54 9.32-6.99-8.52-26.41-28.64-26.41-27.03 0 .71.46 1.84 1.02 2.5.56.67 2.74 3.91 4.84 7.21 3.48 5.48 7.35 10.12 20.08 24.12m125.62-191.37c1.11-1.53 3.68-1.81 20.11-2.25l18.83-.5-24.5-.77c-34.11-1.07-123.97-3.51-190-5.15-40.71-1.02-56.25-1.73-58.33-2.68-4.43-2.02-6.67-7.53-6.67-16.4 0-5.28.49-8.31 1.62-10.04 1.46-2.23 1.46-2.46.03-2.46-.04 0-.08 0-.13.01.48-.17.94-.34 1.36-.49.23-.08.44-.16.65-.24 4.07-1.45 8.71-1.32 162.92 2.99l9.55.27c30.53.85 67.42 1.88 82 2.29 23.34.65 26.88.96 29.66 2.62 4.31 2.56 5.34 5.32 5.34 14.35-.01 12.41-3.55 16.49-15.34 17.69-3.76.38-8.36 1.32-10.22 2.1-3.03 1.26-15.38 1.86-17.94.86-.27-.1-5.33-.31-13.79-.59 2.89-.09 4.06-.53 4.85-1.61m-27.22 385.63c1.22-.32 1.65-.72 1.63-1.22-.05-2.54-11.52-8.72-18.76-10.12-1.14-.22-2.98-.88-4.08-1.47s-3.1-1.07-4.44-1.07c-1.35 0-2.97-.63-3.6-1.4-.64-.76-2.03-1.17-3.08-.89-1.09.28-3.09-.41-4.6-1.6-1.48-1.16-3.64-2.11-4.82-2.11s-3.06-.64-4.18-1.43c-1.13-.78-3.81-1.57-5.96-1.75-3.43-.28-3.92-.64-3.94-2.82-.01-2.04-.56-2.55-3.01-2.79-1.65-.16-3.67-.58-4.5-.92s-1.83-.66-2.23-.7c-.4-.05-1.44-1.1-2.31-2.34-1.73-2.47-4.48-2.88-7.34-1.09-3.88 2.42-7.38-1.44-5.12-5.66 1.86-3.47.65-5.5-3.27-5.5-1.83 0-3.76-.41-4.28-.9-.52-.5-2.97-1.58-5.45-2.4-3.65-1.2-4.56-1.98-4.82-4.13-.21-1.69-1.54-3.44-3.71-4.86-3.15-2.06-3.4-2.63-3.68-8.21-.16-3.3.3-7.77 1.02-9.93 2.43-7.31 11.51-19.33 26.54-35.1l8.84-9.29-6.8-.73c-2.04-.22-3.53-.34-4.77-.33 1.38-.1 3.09-.12 5.34-.12 8.19 0 8.81.16 14.05 3.65 7.49 4.99 30.21 27.97 37.82 38.25 17.98 24.29 25.82 43.34 26.79 65.1.29 6.7.1 12.09-.46 12.91-.27.39-1.1.7-2.82.97M465.21 332.59c9.95-.19 26.07-.28 52.3-.4 50.9-.23 68-.01 69.07.87 1.39 1.16 2.79.6 4.46-1.96-7.93 16.51-18.97 35.27-29.89 50.4-5.98 8.28-9.3 12.31-22.27 27-5.19 5.88-5.89 8.11-8.47 27-.9 6.6-1.98 12.36-2.38 12.81-.97 1.05-3.16-10.07-3.57-18.12-.44-8.65-3.03-18.4-6.96-26.17-3.03-6.01-13.01-18.36-29.5-36.54-3.58-3.94-7.62-9.04-9-11.35-1.38-2.3-3.99-6.53-5.8-9.41-1.82-2.87-4.24-7.36-5.38-9.97-.91-2.09-1.42-3.32-2.34-3.99-.09-.06-.18-.12-.27-.17m206.07 352.66c1.02-1.96 1.17-3.76.71-7.31-.36-2.81-1.12-5.41-1.69-5.78-.57-.36-1.34-1.64-1.71-2.85-1.37-4.37-10.68-5.3-39.59-3.93-7.42.35-28.8 1.08-47.5 1.62-33.41.97-50.16 1.6-120 4.54-19.25.81-37.92 1.4-41.5 1.32-7.01-.17 1.79-.74 51-3.33 16.77-.88 38.15-2.03 47.5-2.57 9.35-.53 33.65-1.85 54-2.94 47.8-2.56 51.4-2.89 49.19-4.51-4.4-3.21-13.24-3.86-36.55-2.68-5.42.28-11.01.56-17.36.88 16.41-.86 31.33-1.71 48.22-2.71 26.83-1.59 32.58-1.37 41.02 1.57 14.62 5.11 16.04 6.65 16.25 17.66.11 5.7-.3 8.14-1.81 10.72zM391.33 135.56l.17-.07c4.95-2.15 9.25-4.26 9.56-4.69.99-1.41 29.1-10.77 41.44-13.8 26.76-6.57 46.83-9 74.42-9 26.22 0 46.59 2.89 43.34 6.14-1.01 1.01-29.14 1.25-35.03.29-3.56-.58-4.17-.44-3.69.81.4 1.05 2.83 1.7 8.25 2.19 6.72.61 14.02 1.68 21.59 3.14-17.08-3.13-34.39-4.57-53.4-4.57-31.79 0-50.64 3-93.48 14.89-3.93 1.09-8.37 2.67-13.17 4.67m145.65 270.52c-.46 1.61-.47 2.92-.01 2.92 3 0 30.24-34 31.61-39.45.9-3.6-1-3.2-3.32.7-1.06 1.79-5.74 7.31-10.39 12.27-10.01 10.67-16.74 19.52-17.89 23.56m157.85 290.61c1.19-1.28 2.17-2.78 2.17-3.35 0-2.08 3.85-4.49 6.66-4.16 2.79.31 2.74.4-3 5.07-6.11 4.97-9.57 6.41-5.83 2.44m-314.41-521.3c-1.06.52-2.5 1.5-3.77 2.61-2.63 2.31-4.38 3-7.58 3-1.31 0-2.22.03-2.92.21 1.98-1.55 4.85-2.83 8.85-4.04 1.33-.4 3.45-1.09 5.42-1.78M500 468.5c1.04-1.25.9-1.5-.85-1.5-1.44 0-1.91.46-1.51 1.5.31.83.7 1.5.84 1.5.15 0 .84-.67 1.52-1.5m-23.24 151.9c9.13-.38 19.94-.85 32.74-1.41 12.65-.55 33.58-1.45 46.5-1.99 16.81-.7 29.73-1.43 38.58-2.18-6.88.6-15.96 1.17-26.58 1.66-38.49 1.74-68.78 3.04-91.24 3.92m124.25-485.95c7.21 2.66 14.09 5.52 20.38 8.5 3.79 1.79 8.42 4.21 13.35 6.91-11.4-6.04-23.16-11.44-33.73-15.41m116.3 518.26a329.5 329.5 0 0 0 27.24-35.93 347 347 0 0 1-13.82 19.72c-3.67 4.87-8.33 10.47-13.42 16.21M176.67 275.44c-9.08 20.07-16.66 41.4-22.39 63.03 5.75-21.98 13.21-42.96 22.39-63.03m-34.57 152.9c-.14 17.04.34 36.31 1.37 47.66-1.22-13.37-1.65-30.8-1.37-47.66M720 732.68c-23.69 19.6-49.4 35.88-76.52 48.59 29.13-13.66 56.58-31.42 81.58-52.97.26-.23.54-.47.81-.71-2.15 1.93-4.14 3.65-5.87 5.09m26.95-25.23c6.54-6.68 12.99-13.6 18.29-19.7-.78.92-1.56 1.84-2.34 2.75-3.83 4.47-9.64 10.6-15.95 16.95M524.8 452.78l4.26.4 2.45 4.88c-2.18-4.33-2.59-4.76-6.71-5.28m-19.62 29.89c-4.71 3.18-16.17 14.02-25.2 23.57 9.09-9.66 20.62-20.66 24.79-23.31.14-.09.28-.18.41-.26M598 315.11c2.64-7.43 4.99-15.52 6.83-23.38-1.57 6.91-3.46 13.8-5.44 19.54a116 116 0 0 1-1.39 3.84m-88.5 289.45c11.59-.47 25.41-.98 37.16-1.39-11.21.42-23.68.9-34.66 1.33-5 .19-10.02.37-14.85.54 4.07-.15 8.24-.31 12.35-.48M146.49 374.65c-1.11 6.77-2.03 13.52-2.75 20.21.39-4.2.83-8.03 1.33-11.36.45-2.97.92-5.91 1.42-8.85m248.15-163c-19.96-.45-25.03-1.09-27.76-3.33 2.69 2.18 7.78 2.84 27.76 3.33m71.87 394.26c-1.52.03-2.71.04-3.51.03-5.15-.04-10.54-.64-14.72-1.53 4.32.9 10.01 1.49 15.72 1.52.66 0 1.5 0 2.51-.02m174.47 38.4c-4.39 1.01-11.63 1.5-24.84 2.24 12.13-.68 19.97-1.23 24.84-2.24M383.9 235.46c-.94 3.51-1.08 8.57-1.06 16.23-.02-9.45.2-13.5 1.06-16.23m-20.33-51.28c-.07.17-.14.34-.22.52-.75 1.81-1.17 4.36-1.29 7.1.08-2.36.37-4.57.92-6.23.16-.48.35-.94.59-1.39m145.29 296.61c-.77.3-1.59.69-2.57 1.21.92-.53 1.72-.92 2.57-1.21M426.99 621.4c.28.13.7.25 1.38.33-.49-.03-.8-.06-.93-.11-.17-.07-.32-.14-.45-.22m62.91 40.22c-9.76.49-20.57 1.03-32.61 1.63 10.01-.5 20.91-1.05 32.61-1.63m-63.81-43.48c-.01.99.04 1.76.16 2.28-.15-.51-.2-1.22-.16-2.28m-36.42-389.61c-.79.37-1.49.77-2.11 1.22.59-.44 1.27-.84 2.11-1.22m15.47 437.38c-8.59.45-15.13.8-18.14.98 3.24-.19 9.39-.52 18.14-.98"/><path fill="#939393" d="M494.94 406.62c-12.73-14-16.6-18.64-20.08-24.12-2.1-3.3-4.28-6.54-4.84-7.21-.56-.66-1.02-1.79-1.02-2.5 0-1.61 19.42 18.51 26.41 27.03 1.5 2.11 2.73 4.07 3.58 5.72.59 1.5.91 2.89.78 3.67-.36 2.11-.73 1.91-4.83-2.59m42.04-.54c1.15-4.04 7.88-12.89 17.89-23.56 4.65-4.96 9.33-10.48 10.39-12.27 2.32-3.9 4.22-4.3 3.32-.7-.77 3.04-9.59 14.97-17.75 24.92.71-.91 1.02-1.47.75-1.47-.34 0 1.18-2.29 3.4-5.09 3.97-5.03 4.83-6.91 3.17-6.91-2.42 0-18.29 19.46-19.4 23.79-.51 2.02-.1 1.86 3.47-1.37 2.77-2.5 5.79-5.62 7.65-7.79-6.1 7.37-11.64 13.37-12.9 13.37-.46 0-.45-1.31.01-2.92m-44.34-4.83c1.94 2.61 4 4.75 4.57 4.75.6 0 .46-.81-.34-1.93-2.68-3.77-19.38-22.86-19.71-22.54-1.05.98 1.55 4.86 6.43 9.59 3.04 2.96 7.12 7.52 9.05 10.13"/><path fill="#fefefe" d="M0 512V0h1024v1024H0zm427.07 415.49c21.87-7.49 24.23-45.74 3.47-56.42-6.92-3.56-17.89-3.59-24.88-.06-11.47 5.78-17.02 18.7-14.59 33.96 2.88 18.1 19.16 28.28 36 22.52m147.21-.49c2.94-1.1 6.64-3.35 8.22-5 3.6-3.75 4.5-3.77 4.5-.08 0 5.03.89 6.08 5.11 6.08H596v-44h-33v9h23.23l-.71 5.75c-1.87 15.05-9.72 21.98-23.87 21.08-9.25-.59-14.85-4.26-19.55-12.83-3.35-6.1-3.59-7.16-3.94-17.13-.75-21.5 6.83-32.88 23.01-34.55 11-1.13 18.85 2.96 24.03 12.53 1.53 2.82 2.18 3.15 6.25 3.15 5.16 0 5.71-1.29 3.15-7.42-8.07-19.32-40.77-23.28-57.02-6.91-14.57 14.69-15.18 45.75-1.18 61.07 7.35 8.05 14.34 11.08 25.81 11.19 4.41.05 8.55-.62 12.07-1.93m75.34-.8c16.02-8.21 20.02-36.53 7.08-50.04-5.12-5.34-10.2-7.45-18.2-7.56-9.46-.14-15.23 2.19-20.81 8.4-5.89 6.55-8.09 13.6-7.48 23.99.76 13.22 7.01 22.44 18.11 26.74 4.75 1.85 16.34 1.02 21.3-1.53m60.6 1.75c5.57-1.54 11.69-6.77 15.18-12.95 2.95-5.23 3.1-6.05 3.1-16.5 0-10.01-.24-11.46-2.69-16.09-5.14-9.74-12.27-13.87-23.91-13.83-12.33.05-22.67 7.74-25.87 19.24-1.54 5.57-1.24 17.5.59 22.9 2.77 8.19 9.52 14.99 17.14 17.28 3.93 1.19 12.12 1.16 16.46-.05m63.28-.83c2.2-1.01 4.9-2.85 6-4.09l2-2.26.5 3.37c.48 3.22.7 3.37 5.25 3.66l4.75.31V843h-10v15c0 8.25-.2 15-.44 15-.25 0-2.11-.98-4.14-2.18-5.2-3.07-17.21-3.12-22.92-.11-5.42 2.86-9.94 7.78-12.67 13.79-1.86 4.08-2.28 6.75-2.28 14.5 0 10.79 2.06 16.88 7.75 22.87 6.56 6.92 17.71 9.15 26.2 5.25M232.88 916l4.39-12h32.32l4.33 12 4.32 12h11.71l-1.06-2.75c-1.31-3.39-26.71-71.67-28.11-75.54-.98-2.72-1.18-2.79-7.63-2.5l-6.62.29-13.75 38.5c-7.57 21.17-14.02 39.29-14.33 40.25-.51 1.52.11 1.75 4.73 1.75l5.32-.01zM313 887.5V847h-10v81h10zm61 15.55V878.1l5.75-.3 5.75-.3.31-4.25.3-4.25H374v-5.55c0-5.9 1.88-10.81 4.54-11.83.9-.34 3.16-.62 5.04-.62 3.4 0 3.42-.02 3.42-4.64v-4.64l-6.16.64c-3.39.35-7.55 1.44-9.25 2.41-4.72 2.71-7.59 9.3-7.59 17.44V869h-10.11l.3 4.25.31 4.25 4.75.3 4.75.31V928h10zm95.01 8.2c0-9.21.5-18.54 1.11-20.74 1.34-4.84 6.66-10.11 11.11-11 6.85-1.38 6.77-1.3 6.77-6.66v-5.01l-3.25.7c-5.18 1.12-10.36 4.14-13.14 7.68l-2.59 3.28-.01-3.67c-.02-6.13-.66-6.83-6.26-6.83h-5.03l.64 6.15c.35 3.38.64 16.65.64 29.5V928h10zM197.13 867.5c.34-3.85.68-10.94.75-15.75L198 843h-10.15l.7 15.25c.39 8.39.92 15.61 1.17 16.06.26.44 1.89.66 3.62.5 3.15-.31 3.16-.34 3.79-7.31m18.23 6.73c.26-.42.8-7.62 1.19-16l.73-15.23h-10.51l.73 15.25c.4 8.39.93 15.59 1.17 16 .59.98 6.08.97 6.69-.02m600.99-4.48c.35-2.89.64-10.09.64-16L817 843h-9v13.43c0 15.8.72 18.57 4.84 18.57 2.73 0 2.91-.28 3.51-5.25m18.8-.75c.36-3.03.7-10.11.75-15.75L836 843h-9v15.33c0 8.44.32 15.66.71 16.05.4.39 2.08.58 3.75.42 2.89-.29 3.07-.57 3.69-5.8M523 812.98c71.74-5.38 140.16-33.27 197-80.3 11.29-9.34 33.3-30.98 42.9-42.18 61.05-71.2 94.1-161.31 94.1-256.55 0-82.98-25.58-163-73.66-230.45-22.23-31.17-55.37-63.87-87.38-86.19C641.73 79.49 588.21 61.76 521 59.35c-53.67-1.92-100 7.95-163.5 34.84-58.86 24.93-113.61 71.62-152.22 129.84-31.35 47.27-51.23 99.92-60.21 159.47-3.31 21.94-4.06 65.49-1.6 92.5 4.09 44.86 17.47 91.84 38.03 133.5 26.61 53.93 65.37 100.05 114.3 136 25.89 19.02 73.2 42.72 106.76 53.47 37.53 12.03 80.4 17.02 120.44 14.01m-112.09 105.7c-6.93-3.65-9.41-8.96-9.41-20.18 0-10.57 1.95-15.6 7.5-19.32 4.86-3.27 14.63-2.81 18.57.87 4.7 4.39 6.68 9.62 6.76 17.91.09 9.15-1.34 13.69-5.6 17.8-5.91 5.71-10.96 6.53-17.82 2.92m220.06.07c-8.2-4.14-12.27-14.62-10.13-26.14 1.97-10.66 7.34-15.61 16.91-15.61 9.35 0 15.05 6.58 16 18.48.95 11.77-2.69 20.23-10.15 23.61-5.34 2.43-7.25 2.38-12.63-.34m65.49.37c-8.16-3.71-12.24-12.54-11.19-24.2C686.29 883.71 692.55 877 702 877c10.65 0 16.5 7.62 16.5 21.47 0 10.72-2.93 16.98-9.46 20.28-5.38 2.71-7.31 2.77-12.58.37m66.04 1.19c-3.83-.99-8.75-5.62-10.73-10.11-1.64-3.69-1.93-6.07-1.59-13.17.67-13.82 5-19.16 16.08-19.79 11.87-.67 15.92 4.55 15.92 20.48 0 7.79-.39 10.12-2.34 14.04-3.22 6.48-10.84 10.23-17.34 8.55m-522.2-26.56c.25-.69 3.1-9.23 6.33-18.99 3.23-9.75 6.11-17.74 6.4-17.75.3 0 2.23 5.05 4.3 11.24 2.06 6.19 5.06 14.74 6.64 19l2.89 7.75h-13.51c-10.39 0-13.41-.29-13.05-1.25m238.2-136.36c-48.21-2.98-95.05-18.21-135-43.9-22.56-14.51-51.97-41.31-68.89-62.79-34.45-43.71-57.55-95.68-67.07-150.86-4.02-23.33-4.96-34.94-4.98-61.34-.01-25.38.98-38.37 4.55-59.5 7.01-41.56 23.83-86.25 45.73-121.5 19.45-31.32 47.81-62.81 76.07-84.47 4.17-3.2 9.13-7.21 11.02-8.92s3.77-3.11 4.19-3.11 6.75-3.67 14.07-8.16c17.16-10.52 34.17-18.59 46.31-21.95C447.34 119 466.19 116 497.98 116c36.45 0 66.63 5.28 100.89 17.67 21.86 7.9 49.38 22.41 68.37 36.05 24.5 17.6 52.28 45.1 69.76 69.06 33.36 45.72 54.02 101.03 60.05 160.72 1.57 15.51 1.59 52.77.03 67.5-7.68 72.93-36.54 138.24-84.33 190.83-18.99 20.9-45.93 43.5-68.47 57.44-32.62 20.18-74.75 35.04-113.99 40.2-11.42 1.5-40.93 2.6-51.79 1.92m-62-50.91c6.6-.31 26.62-1.42 44.5-2.47s41.5-2.39 52.5-2.98c33.77-1.81 122.2-6.98 136.98-8.01 15.36-1.07 17.32-1.83 20.98-8.07 1.51-2.58 1.92-5.02 1.81-10.72-.21-11.01-1.63-12.55-16.25-17.66-8.44-2.94-14.19-3.16-41.02-1.57-27.71 1.65-50.09 2.86-82.5 4.46-79.27 3.92-134.15 6.7-146.5 7.43-20.12 1.19-22.01 2.73-21.99 17.91.03 12.55.14 12.69 14.99 19.7 7.18 3.39 7.86 3.52 16 3.04 4.67-.27 13.9-.75 20.5-1.06m28.07-51.95c15.36-.81 41.2-1.94 57.43-2.52 29.88-1.07 69.31-2.95 114.14-5.46 27.34-1.53 29.09-1.97 33.01-8.28 2.22-3.56 2.34-4.65 2.25-19.27-.16-23.62-5.33-47.68-16.11-75-11.94-30.28-32.2-61.45-57.96-89.22-10.67-11.49-10.87-18.6-.84-30.14 40.59-46.76 67.98-102.48 73.57-149.64 1.47-12.41 1.49-32.4.05-37.68-1.46-5.32-5.8-9.04-11.36-9.72-2.34-.29-54.65-1.46-116.25-2.61l-112.01-2.08-10.1 2.45c-11.88 2.87-13.63 3.82-15.89 8.56-1.36 2.86-1.69 6.4-1.66 17.77.07 22.18 2.95 39.05 10.35 60.81 12.69 37.26 32.68 70.19 64.92 106.93l11.34 12.93.37 6.57c.41 7.61 1.46 5.89-17.34 28.57-16.37 19.74-32.35 44.05-42.73 65-19.4 39.17-30.42 96.66-21.6 112.68 1.93 3.51 3.22 4.58 6.87 5.71 2.46.76 6.73 2.19 9.48 3.18 6.23 2.24 6.2 2.24 40.07.46m202.87-437.94c1.86-.78 6.46-1.72 10.22-2.1 11.79-1.2 15.33-5.28 15.34-17.69 0-9.03-1.03-11.79-5.34-14.35-2.78-1.66-6.32-1.97-29.66-2.62-14.58-.41-51.47-1.44-82-2.29-171.79-4.81-168.39-4.75-173.12-3.02-2.41.88-5.96 2.08-7.88 2.65-7.26 2.18-10.78 4.64-12.02 8.4-1.8 5.43-.87 16.75 1.64 20.15 4.14 5.59 3.93 5.57 56.38 6.39 55.58.88 207 4.76 208.5 5.34 2.56 1 14.91.4 17.94-.86m-221 404.31c-1.65-2.66 2.76-25.97 7.55-39.9 4.65-13.56 10.54-29.01 13.52-35.5 3.96-8.63 21.43-37.81 27.4-45.8 2.8-3.73 5.09-7.18 5.09-7.66s.38-1.02.85-1.21c.47-.18 6.16-6.15 12.63-13.26 10.61-11.65 16.48-20.29 16.51-24.32.01-1.4 5.26-1.62 13.82-.6 5.18.63 5.36.76 7.87 5.75 1.41 2.8 6.46 9.15 11.23 14.1 38.12 39.63 61.12 84.55 66.04 128.94.87 7.89.84 10.2-.17 11.19-1.52 1.49-19.53 2.98-52.78 4.37-12.92.54-33.85 1.44-46.5 1.99-79.27 3.45-82.07 3.52-83.06 1.91M512 604.5c21.72-.84 49.33-1.9 61.34-2.36 16.94-.64 22.07-1.14 22.82-2.23.56-.82.75-6.21.46-12.91-.97-21.76-8.81-40.81-26.79-65.1-7.61-10.28-30.33-33.26-37.82-38.25-5.24-3.49-5.86-3.65-14.05-3.65-7.76 0-9.01.28-13.19 2.93-5.73 3.64-25.34 23.03-33.43 33.07-12.76 15.83-23.51 34.98-28.2 50.26-4.04 13.13-4.98 32.97-1.69 35.7 2.51 2.08 12.42 3.91 21.55 3.98 5.23.04 27.27-.61 49-1.44m26.75-199.71c1.11-4.33 16.98-23.79 19.4-23.79 1.66 0 .8 1.88-3.17 6.91-2.22 2.8-3.74 5.09-3.4 5.09.9 0-4.6 6.12-9.36 10.42-3.57 3.23-3.98 3.39-3.47 1.37m-46.11-3.54c-1.93-2.61-6.01-7.17-9.05-10.13-4.88-4.73-7.48-8.61-6.43-9.59.33-.32 17.03 18.77 19.71 22.54.8 1.12.94 1.93.34 1.93-.57 0-2.63-2.14-4.57-4.75m-51.34-75c-9.66-20.63-17.3-49.79-17.3-66v-6.56l58.75.64c32.31.35 60.1.83 61.75 1.07 1.65.23 16.9.99 33.89 1.69l30.88 1.27-.56 9.07c-1.03 16.52-7.43 41.46-15.04 58.61-2.97 6.68-5.04 8.73-7.09 7.02-1.07-.88-18.17-1.1-69.07-.87-63.2.29-67.72.43-68.63 2.06-.54.96-1.44 1.75-2 1.75s-3.07-4.39-5.58-9.75"/></svg>