<?xml version="1.0" encoding="UTF-8"?>
<svg version="1.1" xmlns="http://www.w3.org/2000/svg" viewBox="50 40 1150 1150">
<path d="M0 0 C413.82 0 827.64 0 1254 0 C1254 413.82 1254 827.64 1254 1254 C840.18 1254 426.36 1254 0 1254 C0 840.18 0 426.36 0 0 Z " fill="#FDFDFD" transform="translate(0,0)"/>
<path d="M0 0 C0.33 1.65 0.66 3.3 1 5 C-3.81376524 8.38403582 -9.18258839 9.76356491 -14.75 11.4375 C-21.03201904 13.33146916 -27.07017256 15.34504873 -33.03027344 18.10083008 C-35.55593048 19.25377937 -38.13209744 20.20331241 -40.75 21.125 C-43.41372215 22.06742801 -46.03790535 23.01603688 -48.640625 24.1171875 C-51 25 -51 25 -54 25 C-54 25.66 -54 26.32 -54 27 C-54.56307861 27.21406494 -55.12615723 27.42812988 -55.70629883 27.64868164 C-63.20090371 30.56562659 -70.44990849 33.93783249 -77.6875 37.4375 C-78.3193924 37.74268555 -78.95128479 38.04787109 -79.60232544 38.36230469 C-112.11671355 54.11770358 -142.45826061 73.48514088 -170.25585938 96.56005859 C-172.71166737 98.58754398 -175.20322868 100.57005696 -177.6875 102.5625 C-183.39864017 107.24529499 -188.79237558 112.23905826 -194.17431641 117.29199219 C-196.15362348 119.14372157 -198.14454036 120.98244157 -200.13671875 122.8203125 C-201.54968535 124.12998592 -202.96244866 125.43987871 -204.375 126.75 C-205.02879639 127.35150879 -205.68259277 127.95301758 -206.35620117 128.57275391 C-210.27858938 132.22792223 -213.88038809 136.03770964 -217.37011719 140.10742188 C-219.65740481 142.76336161 -222.04753481 145.31102546 -224.4375 147.875 C-228.39077336 152.16313729 -232.17680389 156.52383526 -235.76171875 161.12890625 C-237.42759488 163.26576307 -239.1155881 165.36948234 -240.83203125 167.46484375 C-298.57325566 238.81353518 -332.29173796 326.14926482 -349.1875 415.5625 C-349.37747559 416.56287796 -349.37747559 416.56287796 -349.57128906 417.58346558 C-351.86810138 429.72287578 -353.76723414 441.89936908 -355.0625 454.1875 C-355.14048828 454.87134766 -355.21847656 455.55519531 -355.29882812 456.25976562 C-357.14488168 473.60656641 -357.23941219 491.07511061 -357.25 508.5 C-357.25100708 509.66030731 -357.25201416 510.82061462 -357.25305176 512.01608276 C-357.24148845 531.83031504 -356.40071836 551.33238133 -354 571 C-353.77521973 572.84223145 -353.77521973 572.84223145 -353.54589844 574.72167969 C-352.52142895 582.8413073 -351.3034055 590.92100144 -350 599 C-349.82774902 600.10762695 -349.65549805 601.21525391 -349.47802734 602.35644531 C-347.20426837 616.84719734 -344.15554339 631.05374634 -340.5 645.25 C-340.31458649 645.97172394 -340.12917297 646.69344788 -339.93814087 647.43704224 C-337.27695974 657.7292077 -334.27493838 667.88712986 -331 678 C-330.62939453 679.14645996 -330.25878906 680.29291992 -329.87695312 681.47412109 C-306.30840949 753.36658152 -267.68115608 823.05169746 -213 876 C-210.11090617 878.86950676 -207.249104 881.76431339 -204.3984375 884.671875 C-196.92258701 892.26929158 -189.4029661 899.42376566 -181 906 C-179.80986631 906.97596384 -178.62255839 907.95537973 -177.4375 908.9375 C-147.70541905 933.53701144 -115.1008378 954.02531988 -81 972 C-80.07268066 972.48968262 -79.14536133 972.97936523 -78.18994141 973.48388672 C-65.98889152 979.87631793 -53.57165304 985.61350486 -40.875 990.9375 C-40.23386261 991.20690399 -39.59272522 991.47630798 -38.93215942 991.75387573 C-26.84208536 996.81419074 -14.61820512 1001.42387274 -2 1005 C-1.375 1007.375 -1.375 1007.375 -1 1010 C-3 1012 -3 1012 -6 1012.1875 C-9 1012 -9 1012 -11 1011 C-12.74594104 1010.70412744 -14.49701134 1010.43826175 -16.25 1010.1875 C-22.12704407 1009.25027355 -27.69821726 1007.74491173 -33.3828125 1006 C-36.15610454 1005.23330155 -38.81715556 1004.63647285 -41.63671875 1004.11328125 C-47.79390841 1002.92018054 -53.71062016 1001.06814291 -59.6875 999.1875 C-60.8314624 998.83075195 -61.9754248 998.47400391 -63.15405273 998.10644531 C-66.43844122 997.07840218 -69.71988271 996.0415811 -73 995 C-73.82983398 994.73719238 -74.65966797 994.47438477 -75.51464844 994.20361328 C-82.06273185 992.11748533 -88.46596863 989.92071801 -94.6953125 987 C-97.39676271 985.82784533 -100.14292218 984.92924837 -102.9375 984 C-120.19665984 977.94711332 -136.76963254 969.40028147 -153 961 C-154.16402344 960.40316406 -155.32804687 959.80632813 -156.52734375 959.19140625 C-182.4551921 945.73684032 -206.74613509 929.63076407 -230 912 C-230.97622314 911.26354248 -230.97622314 911.26354248 -231.97216797 910.51220703 C-239.65101375 904.69635965 -246.87135314 898.54355117 -253.8671875 891.921875 C-256.11028764 889.80208948 -258.41261541 887.77235695 -260.75390625 885.76171875 C-265.74523919 881.41807068 -270.39618433 876.74991431 -275.0625 872.0625 C-275.92166016 871.20720703 -276.78082031 870.35191406 -277.66601562 869.47070312 C-282.65398788 864.47510982 -287.41086464 859.36186425 -292 854 C-293.02142188 852.84326911 -294.04482016 851.68828004 -295.0703125 850.53515625 C-303.17305873 841.35388301 -310.70431557 831.83179289 -318 822 C-318.54156738 821.27409668 -319.08313477 820.54819336 -319.64111328 819.80029297 C-331.93896205 803.2655851 -342.76614872 785.87331749 -353 768 C-353.42603516 767.26297852 -353.85207031 766.52595703 -354.29101562 765.76660156 C-378.12922996 724.35874036 -398.02088652 675.21642453 -406.56811523 627.89624023 C-406.82314572 625.99938014 -406.82314572 625.99938014 -408 625 C-408.31323772 623.42450729 -408.57246128 621.8382936 -408.8125 620.25 C-409.42880017 616.31000591 -410.10624926 612.39814028 -410.89648438 608.48925781 C-413.50625045 595.54423732 -415.27006953 582.6240194 -416.6875 569.5 C-417.00475728 566.62511266 -417.32434014 563.7505022 -417.64595032 560.87609863 C-417.8426117 559.11235032 -418.03645944 557.34828511 -418.22697449 555.5838623 C-418.31409195 554.79112915 -418.40120941 553.998396 -418.4909668 553.18164062 C-418.60277534 552.14747009 -418.60277534 552.14747009 -418.71684265 551.09240723 C-418.97797688 548.94602632 -418.97797688 548.94602632 -419.51876831 546.64909363 C-420.08326531 543.5416395 -420.16523371 540.59156194 -420.20874023 537.43286133 C-420.21837956 536.78972425 -420.22801889 536.14658718 -420.23795033 535.48396111 C-420.26750397 533.35000977 -420.2889211 531.21609552 -420.30859375 529.08203125 C-420.3162249 528.33963511 -420.32385605 527.59723896 -420.33171844 526.83234596 C-420.38773211 521.1591181 -420.41773026 515.48595981 -420.4375 509.8125 C-420.44080448 508.98156578 -420.44410896 508.15063156 -420.44751358 507.29451752 C-420.52411301 485.07880138 -420.04592212 463.19183004 -417.1875 441.125 C-417.05689178 440.11104156 -416.92628357 439.09708313 -416.79171753 438.05239868 C-415.58077731 428.90982352 -414.16774055 419.93461876 -411.75268555 411.02392578 C-410.81515025 407.25736326 -410.12915869 403.46996133 -409.45703125 399.6484375 C-409.18923465 398.13484246 -408.92141191 396.62125205 -408.65356445 395.10766602 C-408.51681305 394.33480255 -408.38006165 393.56193909 -408.23916626 392.76565552 C-405.4708474 377.25447645 -401.84126581 362.46707222 -396.82226562 347.50878906 C-395.78609307 344.34735523 -394.91476859 341.15287696 -394.0625 337.9375 C-388.28020479 317.56179305 -379.87980364 298.18184034 -371 279 C-370.51128418 277.93217285 -370.02256836 276.8643457 -369.51904297 275.76416016 C-362.70202922 260.9107738 -355.09982026 246.71749816 -346.64892578 232.73046875 C-345.11618521 230.19239197 -343.60077458 227.64484841 -342.08984375 225.09375 C-335.88932741 214.69782651 -329.14421831 204.76877852 -322 195 C-321.57944336 194.42491699 -321.15888672 193.84983398 -320.72558594 193.25732422 C-315.65950676 186.36194188 -310.38772951 179.64556519 -305 173 C-304.33742188 172.16210938 -303.67484375 171.32421875 -302.9921875 170.4609375 C-297.43004481 163.50312801 -291.44714173 157.02593017 -285.33203125 150.5546875 C-282.7145264 147.78029289 -280.1863711 144.94469307 -277.6875 142.0625 C-271.56798839 135.21093467 -264.72355675 129.06351833 -257.98291016 122.83447266 C-256.29804267 121.27573167 -254.62166917 119.70874226 -252.94921875 118.13671875 C-246.51338297 112.1585424 -239.72993901 106.74097456 -232.78076172 101.38232422 C-231.05223589 100.04054834 -229.33830927 98.68243138 -227.62890625 97.31640625 C-192.40065804 69.1992915 -153.29537075 47.06046206 -111.93945312 29.27197266 C-109.50530576 28.21865806 -107.08617201 27.14064259 -104.671875 26.04296875 C-90.03678527 19.52817294 -74.35646995 15.46051244 -59 11 C-58.35801666 10.81338806 -57.71603333 10.62677612 -57.05459595 10.43450928 C-43.39502964 6.47318487 -29.74674111 3.21574464 -15.75 0.6875 C-14.76136963 0.50380859 -13.77273926 0.32011719 -12.75415039 0.13085938 C-11.81949951 -0.03220703 -10.88484863 -0.19527344 -9.921875 -0.36328125 C-9.09268555 -0.51063721 -8.26349609 -0.65799316 -7.40917969 -0.80981445 C-4.74699794 -1.0199725 -2.58285987 -0.63593576 0 0 Z " fill="#0B0B0B" transform="translate(536,110)"/>
<path d="M0 0 C10.94417583 0.15462729 21.59765735 3.44860468 32.125 6.1875 C32.91600098 6.39310547 33.70700195 6.59871094 34.52197266 6.81054688 C80.29531396 18.73644613 80.29531396 18.73644613 94.37890625 25.01171875 C97.57933148 26.38202884 100.83117173 27.49844636 104.125 28.625 C109.48376196 30.51598549 114.45564434 32.71693506 119.4921875 35.3359375 C123.34814164 37.33024148 127.27464776 39.17009165 131.19946289 41.02416992 C168.15367687 58.50337122 202.82386112 79.79374306 234.125 106.1875 C234.92454102 106.85966553 234.92454102 106.85966553 235.74023438 107.54541016 C248.24979643 118.08296884 260.16514956 129.13604845 271.77056885 140.65783691 C272.82287782 141.70209955 273.87666221 142.74487794 274.93206787 143.78601074 C281.05459554 149.83445487 286.79959476 155.98049521 292.14819336 162.74316406 C294.15154947 165.22032862 296.26017846 167.55027055 298.4375 169.875 C304.5255551 176.57608843 309.80878339 183.87120569 315.125 191.1875 C315.62435059 191.87263672 316.12370117 192.55777344 316.63818359 193.26367188 C340.65486633 226.35019342 363.13352354 263.6471919 376.67578125 302.3515625 C377.72206512 305.27414099 378.99966839 308.00931377 380.35546875 310.80078125 C384.06831914 318.86565278 386.55916647 327.36939512 389.20898438 335.82739258 C390.11603486 338.72139613 391.03365519 341.61187444 391.953125 344.50195312 C397.26154358 361.25684252 402.19809899 377.85163859 405.1875 395.1875 C405.44011409 396.61960323 405.69305006 398.05164972 405.94628906 399.48364258 C406.68973241 403.71539331 407.41106026 407.95068361 408.125 412.1875 C408.33044434 413.40228027 408.53588867 414.61706055 408.74755859 415.86865234 C410.76732079 427.97183362 412.48978273 440.04640936 413.44238281 452.28393555 C413.73429249 456.02823847 414.05563015 459.72870289 414.61743164 463.44433594 C416.40665425 475.48251129 416.39424129 487.42071683 416.33081055 499.57470703 C416.31267616 503.15274319 416.31030089 506.73051655 416.31054688 510.30859375 C416.30142204 517.26919578 416.23306002 524.22775951 416.125 531.1875 C416.11001465 532.22270782 416.0950293 533.25791565 416.07958984 534.32449341 C415.79324825 550.33882419 413.83047247 565.83200116 411.25 581.625 C410.89332069 583.87676171 410.537849 586.12871504 410.18359375 588.38085938 C403.72795026 629.18252757 403.72795026 629.18252757 401.14794922 635.62866211 C400.18578245 638.03545684 399.47332484 640.37314343 398.8203125 642.87890625 C380.36840845 712.04945779 349.88676526 777.00960969 305.125 833.1875 C304.57859863 833.87666504 304.03219727 834.56583008 303.46923828 835.27587891 C297.3893356 842.924675 291.1986451 850.40874343 284.5390625 857.5625 C282.67125253 859.59351667 280.87380554 861.64987736 279.08203125 863.74609375 C274.54820656 868.94450543 269.66696594 873.79544614 264.7824707 878.66040039 C263.19041034 880.24709946 261.6037701 881.83907742 260.01757812 883.43164062 C254.55874123 888.89431314 249.01495604 894.187435 243.125 899.1875 C242.07633952 900.11256322 241.02939031 901.03957091 239.984375 901.96875 C230.1333267 910.62415239 219.7132474 918.46077061 209.125 926.1875 C208.38314453 926.72938965 207.64128906 927.2712793 206.87695312 927.82958984 C162.31234792 960.21712995 113.42256371 982.56174699 61.125 999.1875 C60.29162109 999.45401367 59.45824219 999.72052734 58.59960938 999.99511719 C47.81186451 1003.38624237 36.74565649 1005.6266454 25.6875 1007.9375 C24.95043823 1008.09270111 24.21337646 1008.24790222 23.45397949 1008.4078064 C5.51829631 1012.16119937 5.51829631 1012.16119937 -1.875 1012.1875 C-2.875 1011.1875 -2.875 1011.1875 -2.9375 1008.625 C-2.916875 1007.820625 -2.89625 1007.01625 -2.875 1006.1875 C1.48545161 1004.11109447 5.80225592 1002.66888448 10.4609375 1001.38671875 C18.0921849 999.22965374 25.62157776 996.81803593 33.125 994.25 C33.80665222 994.01684082 34.48830444 993.78368164 35.19061279 993.54345703 C90.80973822 974.39338558 141.99453373 943.99783773 186.125 905.1875 C187.04023437 904.38570312 187.95546875 903.58390625 188.8984375 902.7578125 C195.40820053 896.91954365 201.64028443 890.79854398 207.84667969 884.64105225 C209.26881295 883.23082142 210.69489288 881.82457405 212.12109375 880.41845703 C217.48878943 875.05747097 222.45816277 869.53986722 227.17626953 863.59765625 C228.97665536 861.3709701 230.85082154 859.27190567 232.8125 857.1875 C239.53733052 849.70061115 245.24573924 841.33955318 251.125 833.1875 C251.65706055 832.45402344 252.18912109 831.72054687 252.73730469 830.96484375 C293.75965668 774.32113839 322.00076358 709.12149327 338.125 641.1875 C338.31562012 640.39311523 338.50624023 639.59873047 338.70263672 638.78027344 C344.21599901 615.68723784 348.5400759 592.53352813 350.76025391 568.88183594 C351.0234437 566.21611442 351.31790757 563.56530144 351.64208984 560.90722656 C353.44291999 545.38313233 353.43271873 529.88023982 353.38574219 514.27685547 C353.37434833 510.45492903 353.38112627 506.63328112 353.39261818 502.81136417 C353.43236631 487.26401555 353.30257814 471.8542208 351.39672852 456.39837646 C351.12866594 454.21732734 350.88555385 452.03491801 350.65039062 449.85009766 C350.21229956 445.81324445 349.74009923 441.78085361 349.25 437.75 C349.16440826 437.04594025 349.07881653 436.34188049 348.9906311 435.6164856 C347.48925683 423.37584522 345.63844695 411.2639775 343.125 399.1875 C342.8681543 397.95080566 342.61130859 396.71411133 342.34667969 395.43994141 C337.74916819 373.38299823 337.74916819 373.38299823 331.86328125 351.64501953 C330.99922281 348.76882499 330.17394622 345.88224137 329.34375 342.99609375 C319.79554768 310.43900765 306.6349264 279.32925301 291.125 249.1875 C290.3191748 247.61911377 290.3191748 247.61911377 289.49707031 246.01904297 C272.10952524 212.52261301 250.45479626 181.19598456 225.57275391 152.83862305 C224.54015221 151.66096954 223.51161793 150.47974443 222.48583984 149.29614258 C218.29892632 144.47525773 214.00015798 139.77529678 209.625 135.125 C208.99980469 134.45662109 208.37460937 133.78824219 207.73046875 133.09960938 C199.85218716 124.67930102 199.85218716 124.67930102 191.375 116.875 C188.18314878 114.12951878 185.08581173 111.30160385 182 108.4375 C176.19476784 103.14543754 170.08850175 98.31207283 163.86279297 93.52685547 C162.21529114 92.25708938 160.57705966 90.97638046 158.94140625 89.69140625 C132.96423687 69.42207933 104.86734084 52.58507567 75.234375 38.21337891 C73.74490494 37.48898617 72.25817462 36.75894701 70.7734375 36.02490234 C50.04560819 25.77875945 28.73502232 17.8802379 6.77832031 10.72875977 C5.72936081 10.38591698 5.72936081 10.38591698 4.65921021 10.03614807 C2.74139225 9.41042606 0.82215277 8.78906587 -1.09716797 8.16796875 C-3.875 7.1875 -3.875 7.1875 -4.875 6.1875 C-5 3.6875 -5 3.6875 -4.875 1.1875 C-3.875 0.1875 -3.875 0.1875 0 0 Z " fill="#D88F12" transform="translate(721.875,109.8125)"/>
<path d="M0 0 C4.03517858 1.70793154 6.55909189 5.23396512 9.47485352 8.40600586 C17.30480926 16.73582949 26.25161777 22.7004316 35.82495117 28.86865234 C38.90372209 30.87280693 41.9779698 32.88383676 45.05151367 34.89599609 C45.80808258 35.39023575 46.56465149 35.8844754 47.34414673 36.39369202 C58.40690277 43.6494617 69.42934006 51.10952138 79.57495117 59.61865234 C80.90168603 60.71641503 82.22850918 61.81407101 83.55541992 62.91162109 C84.17723145 63.42901855 84.79904297 63.94641602 85.43969727 64.47949219 C87.00612605 65.7713071 88.59568037 67.03496432 90.18823242 68.29443359 C114.38679412 87.45016912 137.33649858 115.60071677 142.19995117 146.93115234 C142.27491635 149.5699266 142.30761639 152.17039156 142.27026367 154.80615234 C142.26265015 155.83869141 142.26265015 155.83869141 142.25488281 156.89208984 C142.24175987 158.57182588 142.22158786 160.2515044 142.19995117 161.93115234 C105.40008244 161.95401742 68.60021478 161.97164991 31.80034039 161.98221767 C27.46048082 161.98346845 23.12062127 161.98476277 18.78076172 161.98608398 C17.91673636 161.98634629 17.052711 161.98660861 16.16250306 161.98687886 C2.15344689 161.99123583 -11.8556052 161.99912352 -25.86465894 162.00830514 C-40.22825114 162.01764094 -54.59184119 162.0232078 -68.95543629 162.02524084 C-77.82586748 162.02661622 -86.69628713 162.03096762 -95.56671477 162.03906881 C-101.64101685 162.04433536 -107.71531292 162.04595685 -113.78961711 162.04465372 C-117.29953577 162.0440102 -120.80943419 162.04502945 -124.31934929 162.05035782 C-128.11565274 162.05607921 -131.91192938 162.05415339 -135.70823669 162.05140686 C-136.82980791 162.0543197 -137.95137913 162.05723254 -139.10693735 162.06023365 C-140.6199759 162.05724708 -140.6199759 162.05724708 -142.16358089 162.05420017 C-143.04111458 162.05457989 -143.91864826 162.05495961 -144.82277387 162.05535084 C-146.80004883 161.93115234 -146.80004883 161.93115234 -147.80004883 160.93115234 C-150.10811404 135.31162854 -136.584709 111.54370693 -120.80004883 92.30615234 C-115.83700844 86.41254188 -110.92150793 80.81711212 -105.01879883 75.84521484 C-103.41916486 74.46524892 -101.86100709 73.03668538 -100.33129883 71.57958984 C-86.12213242 58.04895105 -69.75615227 46.80533314 -53.42504883 35.99365234 C-52.78784912 35.56963135 -52.15064941 35.14561035 -51.49414062 34.70874023 C-48.53337979 32.73921152 -45.56732114 30.77864626 -42.59301758 28.82958984 C-29.65329118 20.35122837 -29.65329118 20.35122837 -18.02661133 10.21240234 C-17.05171753 9.24584717 -17.05171753 9.24584717 -16.05712891 8.25976562 C-14.78679747 6.98353309 -13.53787803 5.68552348 -12.31445312 4.36425781 C-8.27842633 0.30881371 -5.70297616 -0.74024359 0 0 Z " fill="#D28C13" transform="translate(630.800048828125,763.06884765625)"/>
<path d="M0 0 C1.8662262 -0.36749268 1.8662262 -0.36749268 4.15844727 -0.35644531 C5.01596085 -0.35944641 5.87347443 -0.36244751 6.75697327 -0.36553955 C7.68408615 -0.35319275 8.61119904 -0.34084595 9.56640625 -0.328125 C10.51563461 -0.32625183 11.46486298 -0.32437866 12.44285583 -0.32244873 C14.451116 -0.31571989 16.45936289 -0.30178898 18.4675293 -0.28125 C21.55334551 -0.25009243 24.63865148 -0.24028067 27.72460938 -0.234375 C29.67188127 -0.22520557 31.61914794 -0.21483 33.56640625 -0.203125 C34.96011192 -0.19675018 34.96011192 -0.19675018 36.38197327 -0.19024658 C37.23633469 -0.18063904 38.09069611 -0.17103149 38.97094727 -0.16113281 C39.72658463 -0.15430481 40.48222198 -0.14747681 41.26075745 -0.14044189 C43 0 43 0 44 1 C44.33891412 3.76346831 44.62053957 6.51301538 44.8671875 9.28515625 C45.03240615 11.03191485 45.19777609 12.77865915 45.36328125 14.52539062 C45.61805078 17.26937977 45.87055714 20.01354435 46.11962891 22.75805664 C47.54438142 38.34610545 49.83155922 53.44765554 53.83984375 68.60546875 C54.11610596 69.65226807 54.11610596 69.65226807 54.39794922 70.72021484 C54.59662598 71.47254395 54.79530273 72.22487305 55 73 C55.22059082 73.84900879 55.44118164 74.69801758 55.66845703 75.57275391 C58.21098187 85.33569982 60.85408231 95.03589891 64.1875 104.5625 C64.4251709 105.24626709 64.6628418 105.93003418 64.90771484 106.63452148 C66.26112362 110.3817306 67.92865716 113.61198962 70 117 C70.73803395 118.68433501 71.47410015 120.36972812 72.18212891 122.06689453 C81.24282825 143.48260123 94.3654391 163.00571181 109 181 C110.0638247 182.33071109 111.12762514 183.66144157 112.19140625 184.9921875 C119.84983103 194.49605506 127.96038334 203.45611322 136.37988281 212.28710938 C139.23845136 215.30936931 142.00085677 218.41567171 144.765625 221.5234375 C146.44430159 223.38406854 148.13895011 225.21776949 149.859375 227.0390625 C169.88484543 248.28227637 186.64954601 272.1978234 186.41748047 302.48803711 C185.41551688 335.86476752 160.81733904 361.22905968 139.171875 384.0390625 C82.68491823 443.59493164 44.97199412 516.26292741 44.4152832 599.96533203 C44.40070068 600.97966309 44.38611816 601.99399414 44.37109375 603.0390625 C44.3700061 604.37251709 44.3700061 604.37251709 44.36889648 605.73291016 C43.91304522 608.5343892 43.19349129 609.24977279 41 611 C39.09617615 611.3742218 39.09617615 611.3742218 36.92749023 611.37231445 C36.11332138 611.37854324 35.29915253 611.38477203 34.46031189 611.39118958 C33.5852449 611.38197983 32.71017792 611.37277008 31.80859375 611.36328125 C30.9075441 611.36377975 30.00649445 611.36427826 29.07814026 611.36479187 C27.17422275 611.36245198 25.27030212 611.35272845 23.36645508 611.33618164 C20.44519545 611.31256222 17.52484663 611.31562456 14.60351562 611.32226562 C12.75520287 611.31668982 10.90689397 611.30958056 9.05859375 611.30078125 C7.74295692 611.30214836 7.74295692 611.30214836 6.40074158 611.30354309 C0.23102945 611.23102945 0.23102945 611.23102945 -2 609 C-2.47887298 604.52200558 -2.33127932 600.00040779 -2.3125 595.5 C-2.31100952 594.82928467 -2.30951904 594.15856934 -2.3079834 593.4675293 C-2.25375121 579.83825091 -1.04930442 566.47904286 1 553 C1.2168042 551.57034912 1.2168042 551.57034912 1.43798828 550.11181641 C7.50420569 511.43716123 20.79236531 473.82359008 44 442 C44.46229004 441.35804688 44.92458008 440.71609375 45.40087891 440.0546875 C60.78158633 418.77333472 78.65217591 398.03251449 98.7109375 381.00390625 C102.04844642 378.0821621 105.26631382 375.03573752 108.5 372 C112.97451111 367.80456556 117.46009082 363.64305225 122.109375 359.640625 C125.33002535 356.84584577 128.47724426 353.96938895 131.6328125 351.1015625 C133.52474563 349.4219255 135.4451819 347.86631747 137.4375 346.3125 C148.81171882 336.58242182 158.44839378 322.00694142 160 307 C160.0825 306.21238281 160.165 305.42476562 160.25 304.61328125 C160.92319854 291.5490221 154.83243976 280.01801875 147 270 C144.7509499 267.50672566 142.43876129 265.17669882 139.98828125 262.8828125 C138.29889781 261.28304272 136.86705474 259.70138766 135.4375 257.875 C133.47019617 255.55459035 131.6394939 253.74757855 129.34765625 251.7890625 C124.43101327 247.53336358 119.71999174 243.07655468 115 238.60546875 C111.86591042 235.64889596 108.71722764 232.74299601 105.43359375 229.953125 C99.36992932 224.68423426 93.75044129 218.93643744 88.07348633 213.25878906 C86.07588048 211.26336586 84.07040647 209.27608944 82.06445312 207.2890625 C75.63307489 200.88516559 69.46030545 194.47665639 63.86035156 187.32177734 C61.91066252 184.88850402 59.83485543 182.63450219 57.6875 180.375 C47.52775267 169.18686638 39.44015563 156.1054985 32 143 C31.6601709 142.4107373 31.3203418 141.82147461 30.97021484 141.21435547 C8.89944715 102.7198123 -6.31097368 47.39743024 -2 3 C-1.34 2.01 -0.68 1.02 0 0 Z " fill="#060606" transform="translate(427,314)"/>
<path d="M0 0 C0.75643295 0.00142502 1.51286591 0.00285004 2.29222107 0.00431824 C3.57849144 -0.00029671 3.57849144 -0.00029671 4.89074707 -0.00500488 C5.81785995 0.00218063 6.74497284 0.00936615 7.70018005 0.01676941 C8.64940842 0.01722763 9.59863678 0.01768585 10.57662964 0.01815796 C12.58486683 0.02118178 14.59310164 0.02907192 16.6013031 0.04142761 C19.68708029 0.05968377 22.77255763 0.06193734 25.85838318 0.06169128 C27.80565142 0.06660633 29.75291761 0.07243459 31.70018005 0.07926941 C33.09388573 0.08093864 33.09388573 0.08093864 34.51574707 0.0826416 C35.37010849 0.08902145 36.22446991 0.09540131 37.10472107 0.10197449 C37.86035843 0.10578629 38.61599579 0.10959808 39.39453125 0.11352539 C41.1337738 0.24723816 41.1337738 0.24723816 42.1337738 1.24723816 C42.748664 14.82069661 41.74546678 28.1626571 40.0712738 41.62223816 C39.96117981 42.52666656 39.85108582 43.43109497 39.73765564 44.3629303 C33.36627647 96.06437165 14.73815178 147.47318256 -21.66944885 185.84538269 C-23.82137145 188.19819604 -25.78012001 190.63091761 -27.7490387 193.13786316 C-33.11119946 199.72661888 -39.03562532 205.68378951 -45.06861877 211.65544128 C-46.93473129 213.50318414 -48.79260332 215.35891781 -50.64942932 217.21598816 C-55.99328698 222.54388096 -61.33634467 227.81560231 -67.08375549 232.71208191 C-70.40399288 235.57164261 -73.55884952 238.61123824 -76.7412262 241.62223816 C-81.23877097 245.86187229 -85.74931507 250.07525844 -90.3662262 254.18473816 C-101.52272538 264.2031998 -116.51659463 278.34944978 -118.05909729 294.23332214 C-118.45277421 305.2765563 -118.46910568 314.38259396 -112.8662262 324.24723816 C-112.4434137 325.07997253 -112.0206012 325.91270691 -111.5849762 326.77067566 C-107.52559154 334.25221599 -101.74059985 340.18392267 -95.8662262 346.24723816 C-95.21138245 346.93044128 -94.5565387 347.61364441 -93.8818512 348.31755066 C-88.8098613 353.5058706 -83.30844775 358.18297756 -77.7724762 362.86442566 C-70.17057621 369.30965724 -62.7993708 375.94733379 -55.54981995 382.78630066 C-53.14559369 385.05424728 -50.72331662 387.29887825 -48.27638245 389.52067566 C-43.05915502 394.26066376 -37.99362 398.97947825 -33.46388245 404.39958191 C-31.73383732 406.40034314 -29.89077878 408.21966276 -27.9912262 410.05973816 C-23.19772858 414.78845878 -19.06486783 419.9933627 -14.8662262 425.24723816 C-14.23071838 426.00391785 -13.59521057 426.76059753 -12.94044495 427.54020691 C26.88411907 475.44511724 43.99443998 537.48249396 44.3837738 598.99723816 C44.4147113 600.28887878 44.4147113 600.28887878 44.4462738 601.60661316 C44.45143005 602.43161316 44.4565863 603.25661316 44.4618988 604.10661316 C44.47124451 604.83332214 44.48059021 605.56003113 44.49021912 606.3087616 C44.02093562 608.86089242 43.13366856 609.62734543 41.1337738 611.24723816 C39.22994995 611.62818909 39.22994995 611.62818909 37.06126404 611.63542175 C36.24709518 611.64487823 35.43292633 611.65433472 34.59408569 611.66407776 C33.71901871 611.65800507 32.84395172 611.65193237 31.94236755 611.64567566 C31.0413179 611.64854584 30.14026825 611.65141602 29.21191406 611.65437317 C27.30801261 611.65641411 25.4040902 611.65088213 23.50022888 611.63835144 C20.57877495 611.62227943 17.6587006 611.63820858 14.73728943 611.65739441 C12.88897907 611.65541235 11.04066958 611.65156945 9.19236755 611.64567566 C8.31527634 611.65174835 7.43818512 611.65782104 6.53451538 611.66407776 C4.07688904 611.63542175 4.07688904 611.63542175 0.1337738 611.24723816 C-1.97386642 608.08577782 -2.12025402 607.27409767 -2.17481995 603.65348816 C-2.20914124 602.25272034 -2.20914124 602.25272034 -2.24415588 600.82365417 C-2.26381409 599.80843689 -2.28347229 598.7932196 -2.3037262 597.74723816 C-3.54762008 558.69785503 -10.36441005 517.36286366 -28.7724762 482.43473816 C-29.86929672 480.24109712 -30.71351226 478.05004673 -31.5537262 475.74723816 C-41.44094284 450.61885751 -59.47221088 426.2175323 -77.76856995 406.55973816 C-80.02011093 404.07759241 -82.09500858 401.49645497 -84.1787262 398.87223816 C-88.02942779 394.10438171 -92.18484683 389.81042843 -96.5537262 385.52824402 C-99.98318997 382.16104397 -103.18819656 378.68745734 -106.29981995 375.02848816 C-107.87395967 373.23844399 -109.5270577 371.59033598 -111.2412262 369.93473816 C-126.54178437 354.80494514 -138.51753564 336.15314158 -143.8662262 315.24723816 C-144.15433167 314.13155457 -144.15433167 314.13155457 -144.44825745 312.99333191 C-148.26205001 287.93635832 -139.50776874 266.17989264 -124.8662262 246.24723816 C-118.4002268 237.70960789 -111.06697246 229.97938332 -103.71876526 222.20866394 C-74.69673393 191.4808042 -49.52906785 160.3902722 -30.8662262 122.24723816 C-30.54726379 121.63686707 -30.22830139 121.02649597 -29.89967346 120.39762878 C-27.26617183 115.31886814 -25.27071003 110.15899089 -23.4287262 104.74723816 C-23.1286969 103.87357605 -22.8286676 102.99991394 -22.51954651 102.09977722 C-21.62697544 99.48493455 -20.74528165 96.86665095 -19.8662262 94.24723816 C-19.61663147 93.51311707 -19.36703674 92.77899597 -19.10987854 92.02262878 C-16.20630102 83.43532357 -14.07752118 74.95396174 -12.5459137 66.02067566 C-11.94604439 62.69036675 -11.20058832 59.46197494 -10.3662262 56.18473816 C-6.80359524 41.03889348 -5.60188346 25.28078417 -4.60035706 9.78898621 C-4.49799744 8.3509967 -4.49799744 8.3509967 -4.39356995 6.88395691 C-4.33934875 6.03535095 -4.28512756 5.186745 -4.22926331 4.31242371 C-3.74258718 1.54390095 -2.84827932 0.37734083 0 0 Z " fill="#070707" transform="translate(786.8662261962891,313.7527618408203)"/>
<path d="M0 0 C1.72394811 -0.00489142 3.44789293 -0.01108239 5.1718322 -0.01845789 C9.90035854 -0.03484858 14.62871805 -0.03254124 19.35726285 -0.02708292 C24.46031312 -0.02441168 29.56331902 -0.03894627 34.66635132 -0.05117798 C44.66030993 -0.0722298 54.65421053 -0.07677298 64.6481887 -0.07499009 C72.7714897 -0.0736824 80.89477262 -0.07748699 89.01807022 -0.08491516 C91.35809298 -0.08701436 93.69811574 -0.08911196 96.03813851 -0.09120798 C97.78518396 -0.09277327 97.78518396 -0.09277327 99.56752326 -0.09437019 C121.59365141 -0.11327139 143.61974626 -0.11222266 165.64587916 -0.10540086 C185.79483016 -0.09982488 205.94365402 -0.12065345 226.0925753 -0.15376133 C246.78341487 -0.18749572 267.47419353 -0.20266701 288.16506112 -0.1980443 C299.78064922 -0.19579944 311.39611981 -0.20104536 323.01168442 -0.22593689 C332.89998884 -0.24694665 342.78811129 -0.25054508 352.67642318 -0.2316373 C357.72075326 -0.22247775 362.76474403 -0.22134338 367.8090477 -0.24199295 C372.4293546 -0.26069756 377.04904415 -0.25620516 381.66932751 -0.23344713 C383.33816599 -0.22926012 385.00705175 -0.23346486 386.67584024 -0.24704307 C397.10267435 -0.32608486 405.39396601 0.45084618 413.67385864 7.45690918 C414.44729614 8.41597168 414.44729614 8.41597168 415.23635864 9.39440918 C416.04073364 10.35347168 416.04073364 10.35347168 416.86135864 11.33190918 C421.21747857 17.86608907 421.02469643 24.78487497 420.23635864 32.39440918 C418.10443477 39.82143699 413.93087194 44.64142445 407.23635864 48.39440918 C403.08510763 50.40276631 399.70754192 50.64491138 395.11540508 50.64609146 C394.05173611 50.65045178 394.05173611 50.65045178 392.96657887 50.65490019 C390.58430737 50.66221399 388.20229232 50.65525043 385.82002258 50.64837646 C384.09724095 50.65068036 382.37446031 50.65385641 380.65168172 50.65783095 C375.91253889 50.66619759 371.17347637 50.66204517 366.43433321 50.65585852 C361.32514863 50.65134257 356.21597808 50.65831359 351.10679626 50.66381836 C341.09505321 50.67272375 331.08334011 50.67078509 321.07159587 50.66499308 C312.93486199 50.66048034 304.79813652 50.659862 296.66140175 50.66204071 C295.50428798 50.66234718 294.34717422 50.66265364 293.1549964 50.6629694 C290.80446392 50.66360884 288.45393143 50.66425726 286.10339896 50.66491458 C264.04778037 50.67062142 241.99217838 50.66405482 219.93656252 50.65331385 C201.0090611 50.64438156 182.08158422 50.64592703 163.15408325 50.65515137 C141.18321479 50.66585385 119.21236089 50.67006833 97.24149019 50.66392684 C94.89858107 50.66328973 92.55567195 50.66266099 90.21276283 50.66204071 C89.05996538 50.66173216 87.90716792 50.66142361 86.71943721 50.66110571 C78.59337743 50.65937844 70.46732689 50.66229464 62.34126854 50.66699982 C52.43677756 50.67260856 42.53231829 50.67109247 32.62783094 50.66043833 C27.57374734 50.65518101 22.51971661 50.6531259 17.46563339 50.65973663 C12.83870317 50.66569709 8.2118748 50.66241928 3.58495382 50.65178153 C1.91135258 50.64954788 0.23774273 50.650683 -1.43585298 50.65553311 C-3.71241205 50.66162434 -5.98862334 50.6553667 -8.26516438 50.64609146 C-9.52920103 50.64576676 -10.79323769 50.64544205 -12.09557849 50.64510751 C-19.31017735 50.15201676 -24.65244409 48.54996771 -29.93161011 43.49987793 C-35.44416576 37.16455278 -37.6429519 30.74180374 -37.24411011 22.35534668 C-36.05229679 15.01067599 -32.5388426 9.40622887 -26.90036011 4.64831543 C-18.23468887 -0.43702363 -9.72119101 -0.03406127 0 0 Z " fill="#080808" transform="translate(434.7636413574219,251.6055908203125)"/>
<path d="M0 0 C1.0759492 -0.00436032 1.0759492 -0.00436032 2.17363474 -0.00880873 C4.58974616 -0.01613783 7.00560594 -0.00915189 9.42171574 -0.002285 C11.16639637 -0.00458829 12.91107604 -0.00776392 14.65575367 -0.01173949 C19.45995517 -0.02011437 24.26407755 -0.01595002 29.06827939 -0.00976706 C34.24559107 -0.00525452 39.42288884 -0.01222038 44.60019779 -0.0177269 C54.74676229 -0.02663557 64.89329725 -0.02469228 75.03986292 -0.01890162 C83.28438866 -0.01439067 91.52890611 -0.01376976 99.77343273 -0.01594925 C101.53142108 -0.01640895 101.53142108 -0.01640895 103.32492434 -0.01687793 C105.70558055 -0.01751737 108.08623676 -0.01816579 110.46689297 -0.01882312 C132.80807506 -0.02453079 155.14924076 -0.01796179 177.49042017 -0.00722238 C196.67130804 0.00171235 215.85217169 0.00016256 235.03305912 -0.00905991 C257.29101891 -0.01975682 279.54896431 -0.0239802 301.80692631 -0.01783538 C304.17928636 -0.01719826 306.55164641 -0.01656952 308.92400646 -0.01594925 C310.09134159 -0.0156407 311.25867673 -0.01533215 312.46138565 -0.01501425 C320.69804823 -0.01328548 328.93470171 -0.01620634 337.17136288 -0.02090836 C347.20625191 -0.02651082 357.24110964 -0.02501417 367.27599507 -0.01434687 C372.39855886 -0.00908142 377.52107041 -0.00704824 382.64363384 -0.01364517 C387.32966014 -0.01958876 392.0155856 -0.01635587 396.7016027 -0.00569007 C398.40007937 -0.00344926 400.09856448 -0.0046075 401.79703575 -0.00944164 C404.09995073 -0.01549516 406.40251723 -0.0093137 408.70541382 0 C410.62677388 0.00048706 410.62677388 0.00048706 412.58694929 0.00098395 C415.80102793 0.24305125 418.02925915 0.86541386 420.91562748 2.25168228 C420.91562748 2.91168228 420.91562748 3.57168228 420.91562748 4.25168228 C421.67359623 4.49015884 422.43156498 4.72863541 423.21250248 4.97433853 C426.3611685 6.46221973 427.34121006 7.76531331 429.16562748 10.68918228 C429.66578373 11.47164322 430.16593998 12.25410416 430.68125248 13.06027603 C433.88201792 18.74264759 433.54337251 24.91650829 432.91562748 31.25168228 C430.84325549 38.07285286 427.01657493 43.49995023 420.91562748 47.25168228 C415.88040232 49.72272472 412.26847371 50.62700039 406.56698895 50.6292057 C405.50284039 50.63574619 405.50284039 50.63574619 404.41719389 50.6424188 C402.0457579 50.65334596 399.67490689 50.64296522 397.30347538 50.63263321 C395.58380345 50.63609079 393.86413374 50.64085603 392.14446867 50.64681494 C387.42314299 50.65934101 382.70199918 50.65314719 377.98067284 50.64385629 C372.88717573 50.63707264 367.79371004 50.64754371 362.70021915 50.65579605 C352.72316094 50.66914344 342.74617038 50.66625099 332.7691095 50.65755813 C324.66007956 50.6507852 316.55106859 50.64986318 308.44203663 50.65312958 C307.28825793 50.65358928 306.13447923 50.65404898 304.94573753 50.65452261 C302.60189085 50.65548178 300.25804417 50.65645442 297.91419749 50.65744038 C275.92958871 50.66599742 253.94501744 50.65615561 231.96041481 50.64003928 C213.09748513 50.62663938 194.23461084 50.62896089 175.37168217 50.64279556 C153.46927013 50.65885196 131.56689099 50.66516966 109.66447389 50.65595877 C107.32859922 50.65500312 104.99272454 50.65406001 102.65684986 50.65312958 C101.5075472 50.65266675 100.35824454 50.65220392 99.17411453 50.65172707 C91.07604865 50.6491371 82.97800364 50.65350842 74.87994099 50.66056824 C65.00918226 50.66898424 55.13849509 50.66670109 45.26774456 50.65072601 C40.23172823 50.64284414 35.19583121 50.63975028 30.15981579 50.64967346 C25.54828675 50.65862272 20.93698744 50.65368358 16.32547919 50.63774081 C14.65865065 50.63439396 12.99180264 50.63608492 11.32498665 50.64336817 C-9.45127386 50.72717599 -9.45127386 50.72717599 -16.66640377 44.01730728 C-21.59786633 37.87675335 -25.12671711 30.66759766 -24.52577877 22.68918228 C-22.83288008 13.34078595 -18.78576018 7.78366497 -11.08437252 2.25168228 C-7.42931297 -0.08433189 -4.28276892 0.0010858 0 0 Z " fill="#0B0B0B" transform="translate(422.0843725204468,935.7483177185059)"/>
<path d="M0 0 C6.22456147 0.88962272 12.2555434 2.89191825 18.27832031 4.64648438 C25.21542667 6.65444104 32.23836005 8.21037121 39.29174805 9.7487793 C40.16516846 9.94060791 41.03858887 10.13243652 41.93847656 10.33007812 C42.7096582 10.49612549 43.48083984 10.66217285 44.27539062 10.83325195 C46.17285156 11.31054688 46.17285156 11.31054688 48.17285156 12.31054688 C49.77764922 12.58678106 51.39001681 12.81980074 53.00488281 13.02929688 C54.45024414 13.22072266 54.45024414 13.22072266 55.92480469 13.41601562 C57.43977539 13.61130859 57.43977539 13.61130859 58.98535156 13.81054688 C60.9712178 14.06951717 62.956902 14.32988801 64.94238281 14.59179688 C66.26653198 14.76291992 66.26653198 14.76291992 67.61743164 14.9375 C70.17285156 15.31054688 70.17285156 15.31054688 72.43945312 15.8449707 C76.34159447 16.50961732 80.18602269 16.47319884 84.13769531 16.47851562 C85.44233482 16.48350822 85.44233482 16.48350822 86.77333069 16.48860168 C88.61491367 16.49365637 90.45650579 16.49601046 92.2980957 16.49584961 C95.06965992 16.49801508 97.84081192 16.51612772 100.61230469 16.53515625 C110.65276064 16.56807596 120.26449005 16.11035063 130.17285156 14.31054688 C131.26654053 14.1282251 132.36022949 13.94590332 133.48706055 13.75805664 C146.92047484 11.49335553 160.07995641 8.77766616 173.140625 4.91015625 C193.46564859 -1.08675124 193.46564859 -1.08675124 204.17285156 0.31054688 C205.16285156 0.97054688 206.15285156 1.63054687 207.17285156 2.31054688 C209.08566478 18.88057944 188.00001179 42.19522 178.29003906 54.45898438 C174.15677286 59.59440866 169.9414529 64.65226875 165.62353516 69.63330078 C164.03428135 71.47075848 162.45687576 73.31802708 160.87988281 75.16601562 C155.74086764 81.16794169 150.59652742 87.06016573 144.92285156 92.56835938 C142.50419396 94.9762194 140.29658552 97.54175605 138.07519531 100.13085938 C135.88841678 102.63644956 133.62381282 105.06155972 131.36035156 107.49804688 C111.19715019 129.738669 100.61134778 153.43001476 97.17285156 183.31054688 C96.51285156 182.98054687 95.85285156 182.65054688 95.17285156 182.31054688 C94.81606296 179.79777931 94.56534514 177.33649873 94.36035156 174.81054688 C92.77661322 159.30925695 87.74395212 145.85545346 80.17285156 132.31054688 C79.64046875 131.34761719 79.10808594 130.3846875 78.55957031 129.39257812 C73.48864747 120.87393106 66.78940705 113.63993019 60.17285156 106.31054688 C59.69799316 105.78315918 59.22313477 105.25577148 58.73388672 104.71240234 C54.4880822 100.01032312 50.17548769 95.37233412 45.83300781 90.75976562 C-10.28124325 31.10565162 -10.28124325 31.10565162 -14.26464844 5.49804688 C-12.85752158 -1.5375874 -5.74297781 -0.50134873 0 0 Z " fill="#DD9516" transform="translate(530.8271484375,427.689453125)"/>
<path d="M0 0 C0.66 0 1.32 0 2 0 C2.17015625 1.01578125 2.3403125 2.0315625 2.515625 3.078125 C5.91531934 22.69819198 12.17453518 41.6957001 28.875 54.0625 C31.86657045 56.08393239 31.86657045 56.08393239 35 57 C35 57.66 35 58.32 35 59 C36.134375 59.268125 37.26875 59.53625 38.4375 59.8125 C41.38409947 60.54144969 44.20885116 61.4067143 47.0625 62.4375 C53.52363733 64.66704739 60.29466586 65.75434504 67 67 C67 67.66 67 68.32 67 69 C66.15179687 69.08636719 65.30359375 69.17273438 64.4296875 69.26171875 C52.12192974 70.73594468 40.43512682 74.10672279 30 81 C29.19046875 81.52851562 28.3809375 82.05703125 27.546875 82.6015625 C12.80371276 93.22930215 6.1045697 111.17374762 3.125 128.5 C2.72349229 130.99746396 2.35341752 133.49507584 2 136 C1.34 136 0.68 136 0 136 C-0.14695312 135.030625 -0.29390625 134.06125 -0.4453125 133.0625 C-3.50627831 114.2732794 -9.87619044 94.78218522 -25.74609375 82.953125 C-28.44985648 81.19811674 -31.18710301 79.57302935 -34 78 C-34.64324219 77.61199219 -35.28648437 77.22398438 -35.94921875 76.82421875 C-44.47449615 72.03452928 -55.3319918 69.78922516 -65 69 C-65 68.34 -65 67.68 -65 67 C-63.88625 66.79246094 -62.7725 66.58492188 -61.625 66.37109375 C-43.91253281 62.87510922 -24.66738319 56.66165805 -14 41 C-6.39224825 28.27164611 -2.22005985 14.62902597 0 0 Z " fill="#D58B10" transform="translate(626,46)"/>
<path d="M0 0 C0.66 0 1.32 0 2 0 C2.14695312 1.05316406 2.29390625 2.10632812 2.4453125 3.19140625 C4.98248037 20.01094401 10.75838879 40.33137252 25 51 C31.98990704 55.47087133 39.0712025 59.45145795 47 62 C47.91007813 62.33 48.82015625 62.66 49.7578125 63 C53.29907407 64.09224453 56.70301647 64.64002104 60.375 65.125 C61.62023437 65.29257813 62.86546875 65.46015625 64.1484375 65.6328125 C65.55996094 65.81457031 65.55996094 65.81457031 67 66 C67 66.66 67 67.32 67 68 C66.030625 68.14695312 65.06125 68.29390625 64.0625 68.4453125 C46.11100997 71.3599706 30.29885431 76.85869752 18.1875 91.125 C8.581284 104.72185798 3.8728923 119.56218801 2 136 C1.34 136 0.68 136 0 136 C-0.17015625 134.98421875 -0.3403125 133.9684375 -0.515625 132.921875 C-2.54902001 121.18149071 -5.44298043 110.60559554 -11 100 C-11.49826294 99.04661743 -11.49826294 99.04661743 -12.0065918 98.07397461 C-13.95831119 94.49046623 -16.07728989 91.8183276 -19 89 C-19 88.34 -19 87.68 -19 87 C-19.5878125 86.72671875 -20.175625 86.4534375 -20.78125 86.171875 C-22.93481556 85.0344284 -24.6176844 83.78557325 -26.5 82.25 C-38.28273071 73.44508669 -50.81440594 70.82121398 -65 68 C-65 67.34 -65 66.68 -65 66 C-64.030625 65.85304688 -63.06125 65.70609375 -62.0625 65.5546875 C-47.84386691 63.24160843 -34.21957124 59.48104308 -23 50 C-22.29488281 49.40574219 -21.58976563 48.81148437 -20.86328125 48.19921875 C-7.24618382 35.67148912 -2.81106179 17.59770388 0 0 Z " fill="#D68B11" transform="translate(626,1050)"/>
<path d="M0 0 C0 4.10448303 -2.16260306 5.59921039 -4.875 8.375 C-19.83809879 24.23815295 -31.81079091 42.7767118 -42 62 C-42.3398291 62.63583008 -42.6796582 63.27166016 -43.02978516 63.92675781 C-64.44498545 104.2991727 -72.2624255 147.98085511 -76 193 C-78.64 193.99 -81.28 194.98 -84 196 C-85.10940626 174.64392941 -83.11427433 149.50334397 -77 129 C-76.57405255 127.38031012 -76.15392816 125.75908251 -75.73828125 124.13671875 C-72.5984274 112.05105514 -68.91094179 100.48098555 -64 89 C-63.57992676 87.99138916 -63.57992676 87.99138916 -63.15136719 86.96240234 C-55.29273702 68.27662831 -43.99145736 50.53596255 -31 35 C-30.53529297 34.44199707 -30.07058594 33.88399414 -29.59179688 33.30908203 C-23.42147845 25.92543023 -17.02163223 18.76985785 -10.48828125 11.70703125 C-7.68585437 8.65823717 -4.95192981 5.55689497 -2.2421875 2.42578125 C-1.51888012 1.59556994 -0.7785963 0.7785963 0 0 Z " fill="#222222" transform="translate(523,715)"/>
<path d="M0 0 C0.71648976 -0.00115384 1.43297951 -0.00230769 2.17118108 -0.0034965 C4.59647065 -0.00616476 7.02169517 -0.00163928 9.44698143 0.00279331 C11.19349825 0.00235765 12.94001501 0.00148284 14.68653142 0.00020415 C19.50488673 -0.00204186 24.32321998 0.00198191 29.14157248 0.00698221 C34.33040652 0.01128501 39.51923924 0.0098404 44.70807457 0.00907993 C53.70441675 0.00855459 62.7007517 0.01170247 71.69709206 0.01731777 C84.70442549 0.02543137 97.71175541 0.02804785 110.7190911 0.02930576 C131.82064043 0.0314965 152.9221859 0.03815719 174.02373314 0.04760838 C194.52666263 0.05678192 215.02959107 0.06386304 235.5325222 0.06811619 C237.42698273 0.06851027 237.42698273 0.06851027 239.35971518 0.06891232 C245.69543604 0.07021732 252.03115692 0.07148104 258.36687779 0.07272422 C310.96050672 0.08309752 363.55413146 0.10071644 416.14775658 0.12304783 C416.14775658 0.45304783 416.14775658 0.78304783 416.14775658 1.12304783 C290.08775658 1.12304783 164.02775658 1.12304783 34.14775658 1.12304783 C34.14775658 1.78304783 34.14775658 2.44304783 34.14775658 3.12304783 C32.16775658 2.79304783 30.18775658 2.46304783 28.14775658 2.12304783 C28.14775658 2.78304783 28.14775658 3.44304783 28.14775658 4.12304783 C27.5212722 4.03925877 26.89478783 3.9554697 26.24931908 3.86914158 C25.43205345 3.76730564 24.61478783 3.6654697 23.77275658 3.56054783 C22.9606472 3.45613377 22.14853783 3.3517197 21.31181908 3.24414158 C19.09876472 2.94067455 19.09876472 2.94067455 17.14775658 4.12304783 C17.14775658 3.46304783 17.14775658 2.80304783 17.14775658 2.12304783 C16.15775658 2.61804783 16.15775658 2.61804783 15.14775658 3.12304783 C12.43015549 3.19486604 9.7391627 3.21604289 7.02275658 3.18554783 C6.26865501 3.18103611 5.51455345 3.17652439 4.73760033 3.17187595 C2.87428531 3.16008282 1.01101102 3.14214725 -0.85224342 3.12304783 C-0.85224342 2.46304783 -0.85224342 1.80304783 -0.85224342 1.12304783 C-2.83224342 1.78304783 -4.81224342 2.44304783 -6.85224342 3.12304783 C-7.51224342 2.46304783 -8.17224342 1.80304783 -8.85224342 1.12304783 C-5.90523061 -0.35045858 -3.29138948 -0.00097321 0 0 Z " fill="#282829" transform="translate(421.8522434234619,935.8769521713257)"/>
<path d="M0 0 C4.17489604 0.94850053 7.0456241 2.94431695 9.55859375 6.37109375 C10.42214913 9.30718203 10.55017584 11.44124301 10.18359375 14.49609375 C8.11677229 18.26066141 6.0793142 21.54823352 2.18359375 23.49609375 C-2.49953301 24.01644117 -4.66178195 24.19890854 -8.69140625 21.74609375 C-11.98412274 18.25968806 -12.68419628 16.50419476 -13.31640625 11.68359375 C-13.17995083 7.40531505 -11.67490403 4.83498508 -8.7265625 1.7890625 C-5.81375881 -0.1825899 -3.44924519 -0.28501351 0 0 Z " fill="#F0AD35" transform="translate(628.81640625,722.50390625)"/>
<path d="M0 0 C3.50165855 2.5881824 4.77470816 4.27111465 6.0625 8.4375 C5.98454913 12.88069934 4.87270176 14.66145471 2 18 C-1.76277273 20.36652373 -4.58241847 20.21866105 -8.87109375 19.58984375 C-11 19 -11 19 -13.5625 17 C-15.52283433 12.90886749 -15.95202809 9.45355515 -15 5 C-10.58053726 -0.73335706 -6.94670018 -1.6767897 0 0 Z " fill="#D98E10" transform="translate(632,690)"/>
<path d="M0 0 C13.37770529 -0.04628183 26.75539163 -0.08184806 40.13316059 -0.10362434 C46.34458043 -0.11407433 52.55594561 -0.12825572 58.76733398 -0.15087891 C64.75843533 -0.17256391 70.74948401 -0.18455946 76.74062157 -0.18975449 C79.02963274 -0.19345806 81.31864094 -0.20068991 83.60762978 -0.21146011 C86.80659912 -0.22591724 90.0053491 -0.22798036 93.2043457 -0.22705078 C94.15668594 -0.23424133 95.10902618 -0.24143188 96.09022522 -0.24884033 C97.39639801 -0.24471634 97.39639801 -0.24471634 98.72895813 -0.24050903 C99.48575017 -0.24235262 100.24254221 -0.24419621 101.02226734 -0.24609566 C103 0 103 0 106 2 C103.16290033 2.94569989 101.43867514 3.12363484 98.50117493 3.12025452 C97.57990814 3.12162918 96.65864136 3.12300385 95.7094574 3.12442017 C94.70101273 3.12082489 93.69256805 3.11722961 92.65356445 3.11352539 C91.05819855 3.11374443 91.05819855 3.11374443 89.43060303 3.1139679 C85.90814183 3.11327012 82.38573323 3.10548401 78.86328125 3.09765625 C76.4237623 3.09579159 73.98424297 3.09436791 71.54472351 3.09336853 C65.11838755 3.08954713 58.69207412 3.07972004 52.26574707 3.06866455 C45.71037094 3.05844233 39.15499117 3.05386917 32.59960938 3.04882812 C19.73306329 3.03809746 6.86653284 3.02121728 -6 3 C-6 2.67 -6 2.34 -6 2 C-4.02 2 -2.04 2 0 2 C0 1.34 0 0.68 0 0 Z " fill="#171717" transform="translate(722,949)"/>
<path d="M0 0 C0.99 0.33 1.98 0.66 3 1 C4.15147355 23.60178074 -24.46448281 52.07496845 -38.55371094 68.32714844 C-40.13044768 70.15088243 -41.69439251 71.98515304 -43.2578125 73.8203125 C-49.25335525 80.83178358 -55.31746896 87.62828436 -62 94 C-62 90.30086449 -61.21692022 89.81508099 -58.75 87.1875 C-56.54062143 84.77002365 -54.72663828 82.57753189 -52.9375 79.8125 C-51.07870761 77.11425298 -49.15073873 75.36899686 -46.58984375 73.35546875 C-42.86679548 70.18127281 -39.55383477 66.6615043 -38 62 C-36.01739574 60.31267723 -34.0167658 58.64633943 -32 57 C-31.34 56.01 -30.68 55.02 -30 54 C-29.34 54 -28.68 54 -28 54 C-27.90074219 53.43539062 -27.80148437 52.87078125 -27.69921875 52.2890625 C-26.8520165 49.51554007 -25.53321156 47.70726689 -23.8125 45.375 C-20.70102033 41.07758751 -18.0093953 36.67993611 -15.45703125 32.03125 C-13.82533016 29.75649244 -12.49108213 29.15937156 -10 28 C-9.32041397 25.60280568 -9.32041397 25.60280568 -9 23 C-7.9375 20.6875 -7.9375 20.6875 -7 19 C-6.34 19 -5.68 19 -5 19 C-4.731875 17.96875 -4.46375 16.9375 -4.1875 15.875 C-3.46095262 13.27720108 -2.66302636 11.36493429 -1.375 8.9375 C0.14280019 5.69492687 0.25251854 3.53525953 0 0 Z " fill="#B87514" transform="translate(735,429)"/>
<path d="M0 0 C3.46145669 0.86536417 4.94931405 2.62635769 6.9375 5.484375 C7.64985686 9.2836116 7.25013988 10.92162321 5.375 14.296875 C2.18200523 17.16238313 0.19630812 17.484375 -4.0625 17.484375 C-7.63637602 15.89598566 -8.87339572 14.76803142 -11.0625 11.484375 C-11.67089155 7.48637336 -11.39501303 5.96236248 -9.0625 2.609375 C-5.7199165 0.24171169 -4.00236585 -0.27288858 0 0 Z " fill="#DD9219" transform="translate(629.0625,660.515625)"/>
<path d="M0 0 C0.33 0 0.66 0 1 0 C2.60621462 8.19380073 3.2867012 16.0183734 3.23046875 24.359375 C3.23001053 25.50625793 3.22955231 26.65314087 3.2290802 27.83477783 C3.22607767 30.25167888 3.21825199 32.66857833 3.20581055 35.08544922 C3.187755 38.69896685 3.18530015 42.31222351 3.18554688 45.92578125 C3.16840624 57.38042864 3.01224752 68.81966198 2.55078125 80.265625 C2.51228561 81.23425476 2.47378998 82.20288452 2.43412781 83.2008667 C2.19479696 88.51649674 1.73701981 93.72994119 1 99 C0.67 99 0.34 99 0 99 C0 94.05 0 89.1 0 84 C-0.33 84 -0.66 84 -1 84 C-1 80.04 -1 76.08 -1 72 C-0.34 72 0.32 72 1 72 C0.83628906 70.74155273 0.67257812 69.48310547 0.50390625 68.18652344 C-0.0936733 62.78380353 -0.10914968 57.44567008 -0.0625 52.015625 C-0.05871338 50.99700378 -0.05492676 49.97838257 -0.05102539 48.92889404 C-0.03889884 45.70255109 -0.02026389 42.47630146 0 39.25 C0.02661657 34.98437743 0.04658299 30.71879939 0.0625 26.453125 C0.07079834 25.47909729 0.07909668 24.50506958 0.08764648 23.50152588 C0.09094971 22.58997742 0.09425293 21.67842896 0.09765625 20.73925781 C0.10289307 19.94255676 0.10812988 19.14585571 0.11352539 18.32501221 C-0.00969708 15.80140278 -0.48898672 13.47145167 -1 11 C-1.13510475 7.14951469 -1.18057536 3.68929799 0 0 Z " fill="#EDAB2D" transform="translate(1135,574)"/>
<path d="M0 0 C3.25 0.125 3.25 0.125 7 1 C9.69966307 3.97655159 10.83983465 6.0390079 11.5 10 C10.86244485 13.82533091 9.39968871 15.98324847 7 19 C3.5647952 21.29013653 2.014669 21.17842973 -2 21 C-1.67 20.34 -1.34 19.68 -1 19 C-1.185625 18.05125 -1.37125 17.1025 -1.5625 16.125 C-2.48640002 10.68553864 -1.06080595 5.3390977 0 0 Z " fill="#CD8511" transform="translate(628,724)"/>
<path d="M0 0 C0.66 0.33 1.32 0.66 2 1 C1.48050781 1.75023437 0.96101563 2.50046875 0.42578125 3.2734375 C-3.9137018 9.64229063 -7.74961364 16.00171915 -11 23 C-11.42023438 23.82628906 -11.84046875 24.65257812 -12.2734375 25.50390625 C-17.33598524 35.79775332 -21.13100693 48.44518887 -21 60 C-19.95410718 61.27175787 -19.95410718 61.27175787 -17.61425781 61.09765625 C-16.57108398 61.08605469 -15.52791016 61.07445312 -14.453125 61.0625 C-13.29683594 61.05476562 -12.14054687 61.04703125 -10.94921875 61.0390625 C-8.52994264 61.01351576 -6.11067149 60.98749365 -3.69140625 60.9609375 C4.25886744 60.90846045 12.08374752 61.26084179 20 62 C20 62.33 20 62.66 20 63 C5.81 63 -8.38 63 -23 63 C-23 44.91118421 -23 44.91118421 -21 39.0625 C-20.77997314 38.41829102 -20.55994629 37.77408203 -20.33325195 37.11035156 C-15.78169198 24.28757765 -9.7466099 9.7466099 0 0 Z " fill="#A15E0C" transform="translate(506,861)"/>
<path d="M0 0 C0.99 0.495 0.99 0.495 2 1 C2.02689216 2.47906892 2.04634621 3.95827483 2.0625 5.4375 C2.07410156 6.26121094 2.08570313 7.08492187 2.09765625 7.93359375 C2 10 2 10 1 11 C-1.01228045 11.09674566 -3.02801369 11.12187008 -5.0426178 11.12025452 C-6.35660049 11.12162918 -7.67058319 11.12300385 -9.02438354 11.12442017 C-10.49420188 11.12088054 -11.96402 11.11724573 -13.43383789 11.11352539 C-14.97091164 11.11324353 -16.50798553 11.11340123 -18.0450592 11.1139679 C-22.2308286 11.11425591 -26.41656959 11.10835852 -30.60233235 11.10139394 C-34.97190156 11.09516109 -39.34147135 11.09455666 -43.71104431 11.09336853 C-51.99127047 11.09025501 -60.2714835 11.08204135 -68.55170387 11.07201904 C-77.97597159 11.06085854 -87.40023992 11.05534761 -96.8245126 11.05032361 C-116.21634919 11.03985875 -135.60817354 11.02225891 -155 11 C-155 10.67 -155 10.34 -155 10 C-141.29794959 9.84048223 -127.59584424 9.68626439 -113.89368439 9.53643799 C-111.68054362 9.51222966 -109.46740376 9.48793825 -107.25426483 9.46356201 C-60.77228077 8.9525244 -60.77228077 8.9525244 -40.00390625 8.96875 C-38.97249732 8.96951286 -38.97249732 8.96951286 -37.92025185 8.97029114 C-31.13887088 8.97695248 -24.357695 9.00025232 -17.57641602 9.03710938 C-15.96783974 9.04345398 -15.96783974 9.04345398 -14.32676697 9.04992676 C-12.3730178 9.05801344 -10.41927909 9.0702841 -8.46559143 9.08776855 C-4.09631704 9.2472641 -4.09631704 9.2472641 0 8 C0 5.36 0 2.72 0 0 Z " fill="#BF6C00" transform="translate(771,913)"/>
<path d="M0 0 C9.52173455 17.93016662 12.11685465 40.53414806 15.39794922 60.36572266 C15.92599376 63.55326159 16.4739199 66.73614319 17.03515625 69.91796875 C17.31585115 71.52851582 17.59587794 73.13917959 17.875 74.75 C17.99528564 75.439729 18.11557129 76.12945801 18.23950195 76.84008789 C18.80914949 80.2637093 19.11923008 83.52907981 19 87 C18.34 87 17.68 87 17 87 C16.855625 85.906875 16.71125 84.81375 16.5625 83.6875 C16.11711896 80.06877013 16.11711896 80.06877013 15 77 C14.80068163 75.21167134 14.63763194 73.41913062 14.5 71.625 C14.16099424 67.23003249 13.58755253 63.05643385 12.375 58.8125 C12 57 12 57 13 55 C12.34 55 11.68 55 11 55 C10.95101563 54.35933594 10.90203125 53.71867187 10.8515625 53.05859375 C10.39551118 47.78255173 9.48261664 43.09649469 8 38 C7.85428645 36.56445174 7.73066454 35.12655047 7.625 33.6875 C7.20454513 29.19245524 5.74497455 25.53404697 3.98046875 21.40625 C2.59465622 18.00521209 1.7821534 14.57852485 1 11 C0.80277344 10.19949219 0.60554688 9.39898437 0.40234375 8.57421875 C0.20769531 7.76597656 0.01304688 6.95773437 -0.1875 6.125 C-0.36667969 5.38507813 -0.54585937 4.64515625 -0.73046875 3.8828125 C-1 2 -1 2 0 0 Z " fill="#FCBB34" transform="translate(1114,458)"/>
<path d="M0 0 C0.74958984 0.29068359 1.49917969 0.58136719 2.27148438 0.88085938 C4.12174477 1.59975036 5.96756648 2.33004653 7.8125 3.0625 C7.8125 3.7225 7.8125 4.3825 7.8125 5.0625 C8.81410156 5.16433594 9.81570313 5.26617187 10.84765625 5.37109375 C14.93433535 5.96076514 18.51546503 7.41253796 22.25 9.125 C22.93811768 9.43373047 23.62623535 9.74246094 24.33520508 10.06054688 C36.42372271 15.54246922 48.17573291 21.68618926 59.8125 28.0625 C59.8125 28.7225 59.8125 29.3825 59.8125 30.0625 C55.33615215 28.71153015 51.5113191 26.90880768 47.4375 24.625 C31.88713901 16.14244452 15.59162133 9.13826857 -0.96484375 2.87915039 C-1.86976563 2.5361792 -2.7746875 2.19320801 -3.70703125 1.83984375 C-4.50214111 1.54327881 -5.29725098 1.24671387 -6.11645508 0.94116211 C-8.1875 0.0625 -8.1875 0.0625 -11.1875 -1.9375 C-6.92243961 -3.3591868 -3.98712257 -1.59136682 0 0 Z " fill="#ECAD3D" transform="translate(759.1875,127.9375)"/>
<path d="M0 0 C2.54685809 0.0785782 3.81954973 0.17584047 6.0625 1.4375 C7.566606 4.25769875 7.51162849 6.16860056 7.0625 9.3125 C5.4375 11.6875 5.4375 11.6875 3.0625 13.3125 C-0.59602292 13.92225382 -2.24262879 13.75793026 -5.375 11.75 C-6.9375 9.3125 -6.9375 9.3125 -6.8125 5.6875 C-5.56526038 0.87671861 -5.01226784 0.39779904 0 0 Z " fill="#C68218" transform="translate(626.9375,636.6875)"/>
<path d="M0 0 C-1.32 0.33 -2.64 0.66 -4 1 C-3.979375 2.299375 -3.95875 3.59875 -3.9375 4.9375 C-3.92995028 9.69382325 -4.40112883 14.28388953 -5 19 C-6.32 19.33 -7.64 19.66 -9 20 C-12.09130703 17.00529631 -13.34319359 14.73756575 -13.5625 10.5 C-13.4038149 6.83803607 -13.04745981 6.06156949 -10.6875 3 C-7.00689792 0.26094729 -4.47313632 -0.12089558 0 0 Z " fill="#F0AA2D" transform="translate(630,689)"/>
<path d="M0 0 C9.39505483 3.8071464 15.89745035 18.99655739 19.703125 27.8515625 C26.38728314 44.06069562 26.38728314 44.06069562 26 52 C24 51 24 51 22.9296875 47.9453125 C22.58164062 46.68460938 22.23359375 45.42390625 21.875 44.125 C21.52179687 42.86945312 21.16859375 41.61390625 20.8046875 40.3203125 C20 37 20 37 20 34 C19.34 34 18.68 34 18 34 C17.81824219 33.41992188 17.63648438 32.83984375 17.44921875 32.2421875 C15.95464966 27.59752665 14.22944094 23.35271803 12 19 C12 18.34 12 17.68 12 17 C11.34 17 10.68 17 10 17 C9.75765625 16.49210938 9.5153125 15.98421875 9.265625 15.4609375 C5.87815532 7.62937823 5.87815532 7.62937823 0 2 C0 1.34 0 0.68 0 0 Z " fill="#7F4F1C" transform="translate(746,859)"/>
<path d="M0 0 C0 0.66 0 1.32 0 2 C-0.99 2 -1.98 2 -3 2 C-3.33 2.99 -3.66 3.98 -4 5 C-6.1796875 5.94921875 -6.1796875 5.94921875 -8.875 6.6875 C-9.75929688 6.93886719 -10.64359375 7.19023438 -11.5546875 7.44921875 C-14 8 -14 8 -17 8 C-17 8.66 -17 9.32 -17 10 C-17.99 10.33 -18.98 10.66 -20 11 C-20.33 11.66 -20.66 12.32 -21 13 C-20.34 13.33 -19.68 13.66 -19 14 C-19 14.66 -19 15.32 -19 16 C-21.06271639 15.6889315 -23.12516466 15.37608484 -25.1875 15.0625 C-26.91033203 14.80146484 -26.91033203 14.80146484 -28.66796875 14.53515625 C-31.46325212 14.08620687 -34.22933586 13.57917838 -37 13 C-37 12.34 -37 11.68 -37 11 C-35.5459375 10.77957031 -35.5459375 10.77957031 -34.0625 10.5546875 C-23.56413343 8.84171965 -9.50742147 0 0 0 Z " fill="#E3961A" transform="translate(598,1105)"/>
<path d="M0 0 C0.99 0.33 1.98 0.66 3 1 C3.54519769 11.70145187 -4.24423498 21.23978813 -9.625 30.0625 C-10.18727295 30.9913501 -10.7495459 31.9202002 -11.32885742 32.87719727 C-11.8726001 33.75432373 -12.41634277 34.6314502 -12.9765625 35.53515625 C-13.70480225 36.71670288 -13.70480225 36.71670288 -14.44775391 37.92211914 C-16.08197027 40.10972773 -17.74572286 41.48023187 -20 43 C-19.53199487 38.00794525 -17.13712435 33.83050493 -14 30 C-12.67305715 29.32070265 -11.34053028 28.65207423 -10 28 C-9.32041397 25.60280568 -9.32041397 25.60280568 -9 23 C-7.9375 20.6875 -7.9375 20.6875 -7 19 C-6.34 19 -5.68 19 -5 19 C-4.731875 17.96875 -4.46375 16.9375 -4.1875 15.875 C-3.46095262 13.27720108 -2.66302636 11.36493429 -1.375 8.9375 C0.14280019 5.69492687 0.25251854 3.53525953 0 0 Z " fill="#965B11" transform="translate(735,429)"/>
<path d="M0 0 C3.95679828 -0.46009282 5.54625856 -0.33274372 8.8125 2.0625 C11.45389693 5.60951873 12.07748257 7.58349341 12 12 C10.0625 15.4375 10.0625 15.4375 8 18 C7.01 17.67 6.02 17.34 5 17 C5 14.69 5 12.38 5 10 C4.67 10 4.34 10 4 10 C4 7.03 4 4.06 4 1 C2.68 0.67 1.36 0.34 0 0 Z " fill="#C37D13" transform="translate(626,690)"/>
<path d="M0 0 C1.9375 0.375 1.9375 0.375 4 1 C5.42662219 3.85324437 5.31033868 5.83454549 5 9 C3.375 11.8125 3.375 11.8125 1 14 C-2.25 14.8125 -2.25 14.8125 -5 15 C-4.37321829 11.33827525 -3.35548154 8.1181005 -1.9375 4.6875 C-1.39416016 3.36298828 -1.39416016 3.36298828 -0.83984375 2.01171875 C-0.56269531 1.34785156 -0.28554688 0.68398438 0 0 Z " fill="#CD830D" transform="translate(631,663)"/>
<path d="M0 0 C2.04190981 0.14238837 4.08352045 0.28907028 6.125 0.4375 C7.26195312 0.51871094 8.39890625 0.59992188 9.5703125 0.68359375 C12.7540478 0.97730965 15.85510907 1.43124313 19 2 C19 2.66 19 3.32 19 4 C17.97261719 4.17015625 16.94523438 4.3403125 15.88671875 4.515625 C8.33322523 5.81914843 1.26987237 7.31385004 -5.86328125 10.23046875 C-8 11 -8 11 -11 11 C-9.74693917 8.49387834 -8.66521628 8.11615658 -6.1875 6.875 C-5.50042969 6.52179688 -4.81335938 6.16859375 -4.10546875 5.8046875 C-2 5 -2 5 2 5 C1.11785113 2.11785113 1.11785113 2.11785113 0 0 Z " fill="#BA730D" transform="translate(674,1114)"/>
<path d="M0 0 C0 0.66 0 1.32 0 2 C-1.95597184 3.39712274 -3.9659094 4.71927629 -6 6 C-6.886875 6.598125 -7.77375 7.19625 -8.6875 7.8125 C-11.55995517 9.70940436 -14.45962556 11.54535121 -17.375 13.375 C-21.46991702 15.96974389 -25.37391127 18.7048166 -29.22265625 21.6484375 C-36.70652174 27.33946488 -36.70652174 27.33946488 -41 28 C-37.61335799 24.44588668 -34.18535734 21.56589753 -30.125 18.8125 C-29.57126709 18.43520752 -29.01753418 18.05791504 -28.44702148 17.66918945 C-26.63606561 16.43896842 -24.8189789 15.21832362 -23 14 C-22.35015137 13.56397461 -21.70030273 13.12794922 -21.03076172 12.67871094 C-17.2560075 10.14871481 -13.47676241 7.62562036 -9.68408203 5.12255859 C-8.54779046 4.3651407 -7.41863254 3.59692523 -6.29638672 2.81884766 C-2.20738636 0 -2.20738636 0 0 0 Z " fill="#F6B432" transform="translate(593,790)"/>
<path d="M0 0 C0.66 0.33 1.32 0.66 2 1 C2.02689216 2.47906892 2.04634621 3.95827483 2.0625 5.4375 C2.07410156 6.26121094 2.08570313 7.08492187 2.09765625 7.93359375 C2 10 2 10 1 11 C-0.8718094 11.09386381 -2.7471806 11.11743804 -4.62133789 11.11352539 C-5.82250748 11.11344986 -7.02367706 11.11337433 -8.26124573 11.11329651 C-9.5685112 11.10813522 -10.87577667 11.10297394 -12.22265625 11.09765625 C-13.56644132 11.09579198 -14.91022707 11.09436812 -16.25401306 11.09336853 C-19.79682277 11.08954402 -23.3395917 11.07971432 -26.88238525 11.06866455 C-30.49515227 11.05844899 -34.10792584 11.0538706 -37.72070312 11.04882812 C-44.8138188 11.03809198 -51.90690674 11.02101636 -59 11 C-59 10.67 -59 10.34 -59 10 C-53.13253789 9.85540924 -47.26502625 9.71309431 -41.39746094 9.57275391 C-39.40753748 9.52485429 -37.41762806 9.47636706 -35.42773438 9.42724609 C-32.54300445 9.3561436 -29.65823989 9.28684686 -26.7734375 9.21875 C-25.37131012 9.18539551 -25.37131012 9.18539551 -23.94085693 9.15136719 C-17.44713821 9.00672751 -10.96625072 8.98265711 -4.47119141 9.08007812 C-1.99609434 9.17221824 -1.99609434 9.17221824 0 8 C0 5.36 0 2.72 0 0 Z " fill="#904800" transform="translate(771,913)"/>
<path d="M0 0 C-0.66 2.31 -1.32 4.62 -2 7 C-7.28 6.34 -12.56 5.68 -18 5 C-18 4.34 -18 3.68 -18 3 C-15.75113762 2.49490792 -13.50086131 1.99610821 -11.25 1.5 C-9.37054687 1.08234375 -9.37054687 1.08234375 -7.453125 0.65625 C-4 0 -4 0 0 0 Z " fill="#E9A32C" transform="translate(579,110)"/>
<path d="M0 0 C0.74958984 0.29068359 1.49917969 0.58136719 2.27148438 0.88085938 C4.12174477 1.59975036 5.96756648 2.33004653 7.8125 3.0625 C7.8125 3.7225 7.8125 4.3825 7.8125 5.0625 C8.864375 5.18625 9.91625 5.31 11 5.4375 C14.3032503 5.97901644 16.86831017 6.50381127 19.8125 8.0625 C20.1425 9.0525 20.4725 10.0425 20.8125 11.0625 C14.24647015 8.96077081 7.83396138 6.56907056 1.4375 4 C0.54933594 3.64873047 -0.33882812 3.29746094 -1.25390625 2.93554688 C-2.10597656 2.59458984 -2.95804688 2.25363281 -3.8359375 1.90234375 C-4.60083496 1.59675537 -5.36573242 1.29116699 -6.15380859 0.97631836 C-8.1875 0.0625 -8.1875 0.0625 -11.1875 -1.9375 C-6.92243961 -3.3591868 -3.98712257 -1.59136682 0 0 Z " fill="#EFB140" transform="translate(759.1875,127.9375)"/>
<path d="M0 0 C0.99 0 1.98 0 3 0 C3 3.96 3 7.92 3 12 C4.32 12.33 5.64 12.66 7 13 C3.48096286 13.31991247 1.57984832 13.37169764 -1.4375 11.4375 C-3 9 -3 9 -2.875 5.375 C-2 2 -2 2 0 0 Z " fill="#DD992A" transform="translate(623,637)"/>
<path d="M0 0 C7.59772615 1.04040935 14.71200856 2.68005297 21.9921875 5.09765625 C24.98770042 5.99631013 27.90790021 6.55233779 31 7 C30.67 7.99 30.34 8.98 30 10 C29.44054687 9.81824219 28.88109375 9.63648437 28.3046875 9.44921875 C22.0342882 7.48341833 15.73914078 6.03600443 9.296875 4.74609375 C6.1059186 4.02396973 3.08303161 3.08840358 0 2 C0 1.34 0 0.68 0 0 Z " fill="#F1AB2D" transform="translate(751,116)"/>
<path d="M0 0 C6.0018137 -0.21824777 11.19233704 0.4943096 17 2 C17 2.66 17 3.32 17 4 C14.79248152 4.33868777 12.58394089 4.67071689 10.375 5 C9.14523437 5.185625 7.91546875 5.37125 6.6484375 5.5625 C3.3833973 5.95402516 0.28287549 6.08080924 -3 6 C-1.68 5.01 -0.36 4.02 1 3 C0.67 2.01 0.34 1.02 0 0 Z " fill="#C28129" transform="translate(676,111)"/>
<path d="M0 0 C2.98275696 5.49096552 4.41348923 11.6026907 6.1875 17.5625 C6.56841797 18.80708984 6.94933594 20.05167969 7.34179688 21.33398438 C7.69693359 22.52443359 8.05207031 23.71488281 8.41796875 24.94140625 C8.74563232 26.03138916 9.0732959 27.12137207 9.41088867 28.24438477 C10 31 10 31 9 34 C5.66581391 26.44866154 2.92888573 19.02703999 1 11 C0.78214844 10.13632812 0.56429688 9.27265625 0.33984375 8.3828125 C-1.13476562 2.26953125 -1.13476562 2.26953125 0 0 Z " fill="#F5B94B" transform="translate(1114,458)"/>
<path d="M0 0 C0.66 0 1.32 0 2 0 C2.47993156 2.54152435 2.95896727 5.08321222 3.4375 7.625 C3.57220703 8.33785156 3.70691406 9.05070312 3.84570312 9.78515625 C4.61018271 13.84995013 5.33669637 17.91714075 6 22 C5.34 22 4.68 22 4 22 C3.01 18.7 2.02 15.4 1 12 C0.34 13.65 -0.32 15.3 -1 17 C-1.33 17 -1.66 17 -2 17 C-2.25706972 11.08739655 -1.2982126 5.76081841 0 0 Z " fill="#D5922F" transform="translate(626,46)"/>
<path d="M0 0 C0.66 0.33 1.32 0.66 2 1 C1.01 2.485 1.01 2.485 0 4 C-0.66 4 -1.32 4 -2 4 C-2.33 4.99 -2.66 5.98 -3 7 C-4.56640625 8.54296875 -4.56640625 8.54296875 -6.5625 10.1875 C-10.94910175 13.90469215 -14.9751586 17.89905865 -19 22 C-20.33216834 23.33449731 -21.66519093 24.66814404 -23 26 C-23.66 25.67 -24.32 25.34 -25 25 C-16.75 16.75 -8.5 8.5 0 0 Z " fill="#E7E7E8" transform="translate(754,512)"/>
<path d="M0 0 C1.65 0 3.3 0 5 0 C5.12587413 7.55244755 5.12587413 7.55244755 4.4375 10 C3.69899193 13.3760369 4.49081644 16.60544291 5 20 C4.01 20.33 3.02 20.66 2 21 C1.01 20.34 0.02 19.68 -1 19 C-0.34 19 0.32 19 1 19 C1.22114415 16.20880221 1.42743301 13.4178788 1.625 10.625 C1.68945312 9.8309375 1.75390625 9.036875 1.8203125 8.21875 C1.96058587 6.14971776 1.98758237 4.07374464 2 2 C1.34 1.34 0.68 0.68 0 0 Z " fill="#E49A18" transform="translate(623,724)"/>
<path d="M0 0 C0.66 0.33 1.32 0.66 2 1 C1.67 1.33 1.34 1.66 1 2 C0.76321284 4.69235776 0.57801975 7.36498156 0.4375 10.0625 C0.39431641 10.82111328 0.35113281 11.57972656 0.30664062 12.36132812 C0.20026367 14.24065438 0.09960066 16.12030244 0 18 C-3.14714091 14.9896913 -3.94259042 13.70039686 -4.3125 9.1875 C-4.28966787 5.00922038 -2.9822863 2.9822863 0 0 Z " fill="#E39921" transform="translate(620,725)"/>
<path d="M0 0 C1.21236328 0.04060547 1.21236328 0.04060547 2.44921875 0.08203125 C3.06410156 0.11683594 3.67898438 0.15164063 4.3125 0.1875 C4.3125 0.5175 4.3125 0.8475 4.3125 1.1875 C3.19875 1.31125 2.085 1.435 0.9375 1.5625 C-2.71853677 1.8340813 -2.71853677 1.8340813 -4.6875 4.1875 C-4.40607705 8.97169016 -1.9004098 13.0395807 0.3125 17.1875 C-2.23370938 16.8237558 -3.36930393 16.60783309 -4.953125 14.515625 C-8.46875 7.09375 -8.46875 7.09375 -7.6875 3.1875 C-5.36776547 0.13367227 -3.75410672 -0.16322203 0 0 Z " fill="#BD7F2C" transform="translate(524.6875,427.8125)"/>
<path d="M0 0 C9.9 0 19.8 0 30 0 C29.67 0.99 29.34 1.98 29 3 C28.37351562 2.91621094 27.74703125 2.83242188 27.1015625 2.74609375 C25.87566406 2.59333984 25.87566406 2.59333984 24.625 2.4375 C23.81289063 2.33308594 23.00078125 2.22867188 22.1640625 2.12109375 C19.95100814 1.81762672 19.95100814 1.81762672 18 3 C18 2.34 18 1.68 18 1 C17.01 1.495 17.01 1.495 16 2 C13.28239892 2.07181821 10.59140612 2.09299506 7.875 2.0625 C7.12089844 2.05798828 6.36679687 2.05347656 5.58984375 2.04882812 C3.72652873 2.03703499 1.86325445 2.01909942 0 2 C0 1.34 0 0.68 0 0 Z " fill="#1D1D1D" transform="translate(421,937)"/>
<path d="M0 0 C7.76885465 3.12111191 13.51822887 14.69951214 17 22 C16.67 22.66 16.34 23.32 16 24 C13.49962266 21.82575883 12.56371414 20.26954202 12 17 C11.34 17 10.68 17 10 17 C9.75765625 16.49210938 9.5153125 15.98421875 9.265625 15.4609375 C5.87815532 7.62937823 5.87815532 7.62937823 0 2 C0 1.34 0 0.68 0 0 Z " fill="#8D591E" transform="translate(746,859)"/>
<path d="M0 0 C5.5006093 0.04428832 10.75589184 1.06349979 16.125 2.1875 C15.135 3.1775 14.145 4.1675 13.125 5.1875 C12.135 4.5275 11.145 3.8675 10.125 3.1875 C7.15050392 2.94530685 7.15050392 2.94530685 3.9375 3.0625 C2.30748047 3.08957031 2.30748047 3.08957031 0.64453125 3.1171875 C-0.18691406 3.14039062 -1.01835938 3.16359375 -1.875 3.1875 C-2.205 3.8475 -2.535 4.5075 -2.875 5.1875 C-3.865 5.6825 -3.865 5.6825 -4.875 6.1875 C-4.917721 4.52138095 -4.91563832 2.85367115 -4.875 1.1875 C-3.875 0.1875 -3.875 0.1875 0 0 Z " fill="#E1991C" transform="translate(721.875,109.8125)"/>
<path d="M0 0 C1.32 0.33 2.64 0.66 4 1 C3.67 4.63 3.34 8.26 3 12 C2.01 12.33 1.02 12.66 0 13 C-1 12 -1 12 -1.09765625 9.93359375 C-1.08025391 8.69802734 -1.08025391 8.69802734 -1.0625 7.4375 C-1.05347656 6.61121094 -1.04445313 5.78492188 -1.03515625 4.93359375 C-1.02355469 4.29550781 -1.01195312 3.65742187 -1 3 C-1.66 2.67 -2.32 2.34 -3 2 C-2.01 1.34 -1.02 0.68 0 0 Z " fill="#EFA82A" transform="translate(623,661)"/>
<path d="M0 0 C0.66 0.99 1.32 1.98 2 3 C-8.37357631 16.6332574 -8.37357631 16.6332574 -14 23 C-14.33 22.01 -14.66 21.02 -15 20 C-13.85546875 18.17578125 -13.85546875 18.17578125 -12.1875 16.3125 C-11.64480469 15.68988281 -11.10210938 15.06726563 -10.54296875 14.42578125 C-9 13 -9 13 -7 13 C-6.89816406 12.43796875 -6.79632812 11.8759375 -6.69140625 11.296875 C-5.86351889 8.54660512 -4.56801382 6.60904126 -2.9375 4.25 C-2.38964844 3.45078125 -1.84179688 2.6515625 -1.27734375 1.828125 C-0.85582031 1.22484375 -0.43429687 0.6215625 0 0 Z " fill="#AD6D19" transform="translate(714,470)"/>
<path d="M0 0 C0.66 0.33 1.32 0.66 2 1 C-1.5414849 9.13229866 -9.2252259 15.52252307 -16 21 C-16.66 20.67 -17.32 20.34 -18 20 C-17.53851562 19.64550781 -17.07703125 19.29101562 -16.6015625 18.92578125 C-9.92191513 13.47381611 -5.06631663 6.90389459 0 0 Z " fill="#252626" transform="translate(578,644)"/>
<path d="M0 0 C4.50842555 1.37757447 6.24313881 3.24064383 9 7 C9.927827 8.11230722 10.86613676 9.21592037 11.8125 10.3125 C12.31652344 10.89773438 12.82054687 11.48296875 13.33984375 12.0859375 C16.21496746 15.40078602 19.1050324 18.70247773 22 22 C21.67 22.66 21.34 23.32 21 24 C20.48953125 23.42894531 19.9790625 22.85789062 19.453125 22.26953125 C15.90538374 18.31291909 12.35046021 14.36717777 8.73046875 10.4765625 C8.18422852 9.8889917 7.63798828 9.3014209 7.07519531 8.69604492 C5.989432 7.53016043 4.90156145 6.36623457 3.81152344 5.2043457 C0 1.10986804 0 1.10986804 0 0 Z " fill="#F9B735" transform="translate(569,509)"/>
<path d="M0 0 C0.66 0 1.32 0 2 0 C2 4.62 2 9.24 2 14 C1.01 13.67 0.02 13.34 -1 13 C-2.17673198 10.64653604 -2.16623866 9.1193967 -2.1875 6.5 C-2.20167969 5.7059375 -2.21585938 4.911875 -2.23046875 4.09375 C-2 2 -2 2 0 0 Z " fill="#E0961B" transform="translate(619,693)"/>
<path d="M0 0 C0.02940458 3.16664666 0.04693315 6.33325747 0.0625 9.5 C0.07087891 10.386875 0.07925781 11.27375 0.08789062 12.1875 C0.10763596 17.55823086 -0.21164107 22.68633663 -1 28 C-1.33 28 -1.66 28 -2 28 C-2 23.05 -2 18.1 -2 13 C-2.33 13 -2.66 13 -3 13 C-3 9.04 -3 5.08 -3 1 C-1 0 -1 0 0 0 Z " fill="#ECB651" transform="translate(1137,645)"/>
<path d="M0 0 C0.66 0 1.32 0 2 0 C2.09765625 6.15234375 2.09765625 6.15234375 2 8 C1.67 8.33 1.34 8.66 1 9 C0.63239269 11.32817964 0.29758419 13.6618385 0 16 C1.65 15.67 3.3 15.34 5 15 C5.33 15.99 5.66 16.98 6 18 C4 19 4 19 -2 19 C-1.34 12.73 -0.68 6.46 0 0 Z " fill="#E59C1D" transform="translate(626,691)"/>
<path d="M0 0 C0 0.66 0 1.32 0 2 C-0.99 2 -1.98 2 -3 2 C-3.33 2.99 -3.66 3.98 -4 5 C-6.1796875 5.94921875 -6.1796875 5.94921875 -8.875 6.6875 C-9.75929688 6.93886719 -10.64359375 7.19023438 -11.5546875 7.44921875 C-14 8 -14 8 -17 8 C-17 8.66 -17 9.32 -17 10 C-19.97 10 -22.94 10 -26 10 C-26 9.67 -26 9.34 -26 9 C-24.85402344 8.68546875 -23.70804688 8.3709375 -22.52734375 8.046875 C-20.99725794 7.61507164 -19.46731766 7.18275239 -17.9375 6.75 C-17.18533203 6.54503906 -16.43316406 6.34007812 -15.65820312 6.12890625 C-10.83066267 4.74960898 -4.624324 0 0 0 Z " fill="#EEB857" transform="translate(598,1105)"/>
<path d="M0 0 C0.33 0.99 0.66 1.98 1 3 C-0.88667509 4.96791947 -2.78341886 6.9240423 -4.6875 8.875 C-5.21794922 9.43058594 -5.74839844 9.98617187 -6.29492188 10.55859375 C-9.32498606 13.64442599 -11.74067143 15.75143986 -16 17 C-11.01595832 10.96668638 -5.58084697 5.4815829 0 0 Z " fill="#D59223" transform="translate(936,988)"/>
<path d="M0 0 C4.74460242 0.11370507 8.0185573 0.21484584 11.8125 3.25 C12.534375 4.1575 13.25625 5.065 14 6 C14.763125 6.928125 15.52625 7.85625 16.3125 8.8125 C16.869375 9.534375 17.42625 10.25625 18 11 C14.94481517 9.57609033 12.34844843 7.85308359 9.625 5.875 C5.94029465 3.36574611 3.56434895 2.29779247 -1 3 C-0.67 2.01 -0.34 1.02 0 0 Z " fill="#C88931" transform="translate(624,763)"/>
<path d="M0 0 C0.99 0 1.98 0 3 0 C3.33 2.97 3.66 5.94 4 9 C4.66 9 5.32 9 6 9 C6 9.99 6 10.98 6 12 C3.97954558 11.39816251 1.97888961 10.72693904 0 10 C-1.36952673 7.26094655 -1.12621361 5.02912668 -1 2 C-0.67 1.34 -0.34 0.68 0 0 Z " fill="#E2991E" transform="translate(619,664)"/>
<path d="M0 0 C-5.14137302 3.89076877 -10.76216166 6.33861495 -17 8 C-19 7 -19 7 -20 5 C-17.04575985 3.96703956 -14.08605927 2.95073045 -11.125 1.9375 C-10.28324219 1.64294922 -9.44148437 1.34839844 -8.57421875 1.04492188 C-7.76855469 0.77099609 -6.96289062 0.49707031 -6.1328125 0.21484375 C-5.38918457 -0.04176025 -4.64555664 -0.29836426 -3.87939453 -0.56274414 C-2 -1 -2 -1 0 0 Z " fill="#E5AB47" transform="translate(751,1107)"/>
<path d="M0 0 C0.99 0.33 1.98 0.66 3 1 C-0.33997496 5.32232053 -3.35139782 8.03280712 -8 11 C-9.36886951 12.29682374 -10.7169291 13.61823134 -12 15 C-12.66 14.67 -13.32 14.34 -14 14 C-9.38 9.38 -4.76 4.76 0 0 Z " fill="#222324" transform="translate(520,700)"/>
<path d="M0 0 C2.82080379 0.61262631 5.13808856 1.47154809 7.671875 2.84765625 C8.33574219 3.20537109 8.99960937 3.56308594 9.68359375 3.93164062 C10.36550781 4.30482422 11.04742188 4.67800781 11.75 5.0625 C12.44738281 5.43955078 13.14476562 5.81660156 13.86328125 6.20507812 C15.57768302 7.13273388 17.28913661 8.06583454 19 9 C19 9.66 19 10.32 19 11 C14.37324343 9.6077541 10.35313769 7.70479016 6.125 5.375 C4.97257813 4.74335938 3.82015625 4.11171875 2.6328125 3.4609375 C1.76398437 2.97882813 0.89515625 2.49671875 0 2 C0 1.34 0 0.68 0 0 Z " fill="#E9A630" transform="translate(800,147)"/>
<path d="M0 0 C0.33 0 0.66 0 1 0 C1.21824777 6.0018137 0.5056904 11.19233704 -1 17 C-1.33 17 -1.66 17 -2 17 C-2.33 18.65 -2.66 20.3 -3 22 C-3.33 22 -3.66 22 -4 22 C-4.62599202 14.17509977 -2.32514129 7.39062767 0 0 Z " fill="#9C6C34" transform="translate(487,894)"/>
<path d="M0 0 C0.99 0.33 1.98 0.66 3 1 C3.36020428 5.99783437 2.34389935 8.98018872 0 13.375 C-0.556875 14.43460937 -1.11375 15.49421875 -1.6875 16.5859375 C-2.120625 17.38257813 -2.55375 18.17921875 -3 19 C-3.33 19 -3.66 19 -4 19 C-4.33503046 14.19789671 -3.510669 12.0170704 -1 8 C-0.4119504 5.27358822 0 2.78558287 0 0 Z " fill="#946226" transform="translate(735,429)"/>
<path d="M0 0 C4.29 0.33 8.58 0.66 13 1 C13 1.66 13 2.32 13 3 C8.38 3.66 3.76 4.32 -1 5 C-0.67 3.35 -0.34 1.7 0 0 Z " fill="#C2842F" transform="translate(680,1115)"/>
<path d="M0 0 C0.66 0.33 1.32 0.66 2 1 C0.61240749 2.61130023 -0.78545623 4.21375841 -2.1875 5.8125 C-2.96480469 6.70582031 -3.74210938 7.59914063 -4.54296875 8.51953125 C-7.93366653 11.94257273 -11.69533228 13.92738221 -16 16 C-12.21309138 11.36103694 -8.30424428 7.3506875 -3.734375 3.48046875 C-1.91019463 1.96268408 -1.91019463 1.96268408 0 0 Z " fill="#1D1D1E" transform="translate(543,679)"/>
<path d="M0 0 C0.66 0.66 1.32 1.32 2 2 C1.40832031 2.45890625 0.81664062 2.9178125 0.20703125 3.390625 C-0.97826172 4.31101562 -0.97826172 4.31101562 -2.1875 5.25 C-3.01121094 5.88679687 -3.83492187 6.52359375 -4.68359375 7.1796875 C-6.40760765 8.53447751 -8.09055792 9.94184547 -9.75 11.375 C-12.20977941 13.15150735 -14.00982731 13.65826598 -17 14 C-12.93869687 9.51856206 -8.24756237 6.17072618 -3.328125 2.671875 C-1.1463387 1.20030473 -1.1463387 1.20030473 0 0 Z " fill="#E29C22" transform="translate(610,776)"/>
<path d="M0 0 C2.09757561 3.53415051 2.58103729 6.89231699 3.125 10.9375 C3.29257813 12.14277344 3.46015625 13.34804688 3.6328125 14.58984375 C3.93922155 17.43553627 4.07588456 20.14348827 4 23 C3.34 23 2.68 23 2 23 C1.855625 21.906875 1.71125 20.81375 1.5625 19.6875 C1.11711896 16.06877013 1.11711896 16.06877013 0 13 C-0.06937062 10.77181559 -0.08457084 8.54165476 -0.0625 6.3125 C-0.05347656 5.13300781 -0.04445313 3.95351563 -0.03515625 2.73828125 C-0.02355469 1.83464844 -0.01195312 0.93101562 0 0 Z " fill="#FCC33D" transform="translate(1129,522)"/>
<path d="M0 0 C0.66 0 1.32 0 2 0 C3.42041821 2.84083641 3.31452272 4.85477278 3 8 C1 10.375 1 10.375 -1 12 C-1.02698189 10.37509046 -1.04638757 8.75005367 -1.0625 7.125 C-1.07410156 6.22007812 -1.08570313 5.31515625 -1.09765625 4.3828125 C-1 2 -1 2 0 0 Z " fill="#BB770E" transform="translate(633,664)"/>
<path d="M0 0 C12.66970387 3.07517084 12.66970387 3.07517084 18 5 C17.34 5.66 16.68 6.32 16 7 C10.63904723 5.41078475 5.29156027 3.81027062 0 2 C0 1.34 0 0.68 0 0 Z " fill="#F3AA28" transform="translate(782,124)"/>
<path d="M0 0 C0.66 0.33 1.32 0.66 2 1 C2.02689216 2.47906892 2.04634621 3.95827483 2.0625 5.4375 C2.07410156 6.26121094 2.08570313 7.08492187 2.09765625 7.93359375 C2 10 2 10 1 11 C-1.86267567 11.07325168 -4.700719 11.09238205 -7.5625 11.0625 C-8.36880859 11.05798828 -9.17511719 11.05347656 -10.00585938 11.04882812 C-12.00393756 11.03700518 -14.00197783 11.01906914 -16 11 C-16 10.67 -16 10.34 -16 10 C-15.01257813 9.93941406 -14.02515625 9.87882813 -13.0078125 9.81640625 C-11.72648438 9.73261719 -10.44515625 9.64882813 -9.125 9.5625 C-7.84882812 9.48128906 -6.57265625 9.40007813 -5.2578125 9.31640625 C-2.11699848 9.20793973 -2.11699848 9.20793973 0 8 C0 5.36 0 2.72 0 0 Z " fill="#6D3809" transform="translate(771,913)"/>
<path d="M0 0 C0.79921875 0.00902344 1.5984375 0.01804687 2.421875 0.02734375 C3.02515625 0.03894531 3.6284375 0.05054687 4.25 0.0625 C3.92 1.3825 3.59 2.7025 3.25 4.0625 C-0.71 3.7325 -4.67 3.4025 -8.75 3.0625 C-8.75 2.4025 -8.75 1.7425 -8.75 1.0625 C-5.75519083 0.1901588 -3.11424089 -0.04579766 0 0 Z " fill="#DD962D" transform="translate(569.75,111.9375)"/>
<path d="M0 0 C2.30143236 3.45214853 2.13833854 4.23479324 1.625 8.1875 C1.51414062 9.08855469 1.40328125 9.98960937 1.2890625 10.91796875 C1.19367187 11.60503906 1.09828125 12.29210937 1 13 C0.34 13 -0.32 13 -1 13 C-1.22245393 11.39773045 -1.42746669 9.79303233 -1.625 8.1875 C-1.74101563 7.29417969 -1.85703125 6.40085938 -1.9765625 5.48046875 C-2 3 -2 3 0 0 Z " fill="#D7912E" transform="translate(627,169)"/>
<path d="M0 0 C0.763125 0.309375 1.52625 0.61875 2.3125 0.9375 C4.18789677 1.67893593 6.08684652 2.36228217 8 3 C8 3.66 8 4.32 8 5 C10.64 5.66 13.28 6.32 16 7 C14.375 8.1875 14.375 8.1875 12 9 C8.75 7.625 8.75 7.625 6 6 C6 5.34 6 4.68 6 4 C4.35 3.67 2.7 3.34 1 3 C0.67 2.01 0.34 1.02 0 0 Z " fill="#C88622" transform="translate(653,100)"/>
<path d="M0 0 C3.66786393 1.50349377 5.68910393 3.63728792 8.25 6.625 C8.95640625 7.44226563 9.6628125 8.25953125 10.390625 9.1015625 C10.92171875 9.72804688 11.4528125 10.35453125 12 11 C11.67 11.66 11.34 12.32 11 13 C10.51789062 12.4946875 10.03578125 11.989375 9.5390625 11.46875 C8.90742187 10.8190625 8.27578125 10.169375 7.625 9.5 C6.68527344 8.52546875 6.68527344 8.52546875 5.7265625 7.53125 C4.13524093 5.77882569 4.13524093 5.77882569 2 6 C2 5.01 2 4.02 2 3 C1.01 2.34 0.02 1.68 -1 1 C-0.67 0.67 -0.34 0.34 0 0 Z " fill="#99601F" transform="translate(734,845)"/>
<path d="M0 0 C0.33 0 0.66 0 1 0 C2.03590199 5.05002222 2.10251672 9.87416389 2 15 C1.01 15.495 1.01 15.495 0 16 C-1.29188056 10.67099269 -1.69057861 5.28305817 0 0 Z " fill="#F8B028" transform="translate(1135,574)"/>
<path d="M0 0 C0.99 0.33 1.98 0.66 3 1 C2.2116391 2.77230751 1.41918653 4.54279534 0.625 6.3125 C0.18414062 7.29863281 -0.25671875 8.28476562 -0.7109375 9.30078125 C-2 12 -2 12 -4 15 C-3.63495936 9.33557626 -2.9445679 4.99296295 0 0 Z " fill="#9B621C" transform="translate(492,883)"/>
<path d="M0 0 C0.99 0.33 1.98 0.66 3 1 C-0.63 4.63 -4.26 8.26 -8 12 C-8 8.24111186 -7.049166 7.58681685 -4.5625 4.875 C-3.92441406 4.17117188 -3.28632812 3.46734375 -2.62890625 2.7421875 C-1.76410115 1.81724008 -0.89538137 0.89538137 0 0 Z " fill="#C27B16" transform="translate(681,511)"/>
<path d="M0 0 C3.0636276 5.68959411 4.25956379 10.51090534 4 17 C2.55441992 14.22246623 1.34964587 11.45460092 0.3125 8.5 C0.04050781 7.7471875 -0.23148438 6.994375 -0.51171875 6.21875 C-1.0519311 3.76402507 -0.79774824 2.35576662 0 0 Z " fill="#F1AB27" transform="translate(1114,458)"/>
<path d="M0 0 C3.35997759 5.03996638 4.29282455 9.99709677 4 16 C2 15 2 15 0.875 11.9375 C-0.19682285 7.90141709 -0.1459001 4.15815272 0 0 Z " fill="#865C2F" transform="translate(768,895)"/>
<path d="M0 0 C5.274432 0.53820735 9.33336702 1.57335085 14 4 C14.33 4.99 14.66 5.98 15 7 C9.80355921 5.40109514 4.93387858 3.25861997 0 1 C0 0.67 0 0.34 0 0 Z " fill="#F4B439" transform="translate(581,118)"/>
<path d="M0 0 C-0.99 0.33 -1.98 0.66 -3 1 C-3 1.66 -3 2.32 -3 3 C-5.97 2.67 -8.94 2.34 -12 2 C-12 1.34 -12 0.68 -12 0 C-7.6835078 -0.76173392 -4.25566547 -1.16063604 0 0 Z " fill="#D89937" transform="translate(573,1116)"/>
<path d="M0 0 C0.66 0.99 1.32 1.98 2 3 C0.88147781 4.98283479 -0.24501325 6.96117623 -1.375 8.9375 C-2.31472656 10.59072266 -2.31472656 10.59072266 -3.2734375 12.27734375 C-5 15 -5 15 -7 16 C-5.35433477 10.31497465 -2.70967216 5.23318364 0 0 Z " fill="#CECDCE" transform="translate(507,774)"/>
<path d="M0 0 C-1.40844718 3.21524305 -3.10344786 5.32183868 -5.625 7.75 C-6.57246094 8.67039062 -6.57246094 8.67039062 -7.5390625 9.609375 C-8.02117188 10.06828125 -8.50328125 10.5271875 -9 11 C-9.33 10.01 -9.66 9.02 -10 8 C-8.71451591 6.66070495 -7.42141845 5.32871357 -6.125 4 C-5.04605469 2.88625 -5.04605469 2.88625 -3.9453125 1.75 C-2 0 -2 0 0 0 Z " fill="#C57B13" transform="translate(671,524)"/>
<path d="M0 0 C-2.12232979 1.17176518 -4.24757791 2.33754785 -6.375 3.5 C-6.97828125 3.83386719 -7.5815625 4.16773437 -8.203125 4.51171875 C-12.7734375 7 -12.7734375 7 -15 7 C-15 6.34 -15 5.68 -15 5 C-14.01 5 -13.02 5 -12 5 C-12 4.34 -12 3.68 -12 3 C-10.3789897 2.30314502 -8.75303934 1.61777139 -7.125 0.9375 C-6.22007812 0.55464844 -5.31515625 0.17179687 -4.3828125 -0.22265625 C-2 -1 -2 -1 0 0 Z " fill="#C57E14" transform="translate(670,119)"/>
<path d="M0 0 C0 0.66 0 1.32 0 2 C-2.64 2.33 -5.28 2.66 -8 3 C-8.33 3.99 -8.66 4.98 -9 6 C-10.65 5.67 -12.3 5.34 -14 5 C-11.75043698 2.75043698 -9.93676737 1.99489035 -7 0.8125 C-6.113125 0.44769531 -5.22625 0.08289063 -4.3125 -0.29296875 C-2 -1 -2 -1 0 0 Z " fill="#F3B74B" transform="translate(593,105)"/>
<path d="M0 0 C0.99 0.33 1.98 0.66 3 1 C-1.01818182 11.50909091 -1.01818182 11.50909091 -4 13 C-3.52343588 11.20763933 -3.04366502 9.41613103 -2.5625 7.625 C-2.29566406 6.62726562 -2.02882813 5.62953125 -1.75390625 4.6015625 C-1 2 -1 2 0 0 Z " fill="#D3D2D3" transform="translate(492,806)"/>
<path d="M0 0 C-0.59646305 3.34019306 -1.68294159 5.50470633 -4 8 C-4.99 8 -5.98 8 -7 8 C-6.44414399 4.1090079 -4.34122117 0 0 0 Z " fill="#B36F0E" transform="translate(689,503)"/>
<path d="M0 0 C1.68407508 0.47154102 3.36752552 0.94549014 5.046875 1.43359375 C6.81928388 1.94759233 8.59689099 2.44358083 10.375 2.9375 C11.24125 3.288125 12.1075 3.63875 13 4 C13.33 4.99 13.66 5.98 14 7 C9.1008651 5.70022952 4.62440425 4.07626313 0 2 C0 1.34 0 0.68 0 0 Z " fill="#EEA52A" transform="translate(801,130)"/>
<path d="M0 0 C0 0.66 0 1.32 0 2 C-0.99 2 -1.98 2 -3 2 C-3.165 2.639375 -3.33 3.27875 -3.5 3.9375 C-5 6 -5 6 -6.9140625 6.48828125 C-8.93575155 6.7275978 -10.96841939 6.86893028 -13 7 C-4.25 0 -4.25 0 0 0 Z " fill="#E19F2E" transform="translate(829,1072)"/>
<path d="M0 0 C1.305239 3.91571701 0.32239848 5.03892997 -1.4375 8.6875 C-1.91058594 9.68136719 -2.38367187 10.67523437 -2.87109375 11.69921875 C-3.42990234 12.83810547 -3.42990234 12.83810547 -4 14 C-4.33 14 -4.66 14 -5 14 C-4.25 7.25 -4.25 7.25 -2 5 C-1.29289322 3.35008418 -0.62056011 1.68437744 0 0 Z " fill="#C7800E" transform="translate(1099,813)"/>
<path d="M0 0 C0.33 0.99 0.66 1.98 1 3 C-0.43359375 5.04296875 -0.43359375 5.04296875 -2.4375 7.1875 C-3.09621094 7.90292969 -3.75492188 8.61835937 -4.43359375 9.35546875 C-4.95050781 9.89816406 -5.46742188 10.44085937 -6 11 C-6.66 10.01 -7.32 9.02 -8 8 C-5.36 5.36 -2.72 2.72 0 0 Z " fill="#EBEAEB" transform="translate(562,702)"/>
<path d="M0 0 C1.65 0 3.3 0 5 0 C4.50886719 0.39832031 4.01773438 0.79664063 3.51171875 1.20703125 C1.56816575 3.5121755 1.683464 4.7196719 1.8125 7.6875 C1.83957031 8.49574219 1.86664062 9.30398438 1.89453125 10.13671875 C1.92933594 10.75160156 1.96414063 11.36648438 2 12 C1.34 12 0.68 12 0 12 C0 8.04 0 4.08 0 0 Z " fill="#D58D19" transform="translate(626,637)"/>
<path d="M0 0 C2.00993705 3.01490557 2.72623341 5.2149927 3.625 8.6875 C3.88539062 9.68136719 4.14578125 10.67523438 4.4140625 11.69921875 C4.60742188 12.45847656 4.80078125 13.21773438 5 14 C4.01 14 3.02 14 2 14 C1.66666667 12.33333333 1.33333333 10.66666667 1 9 C0.814375 8.154375 0.62875 7.30875 0.4375 6.4375 C0 4 0 4 0 0 Z " fill="#ECA323" transform="translate(1109,443)"/>
<path d="M0 0 C0.66 0 1.32 0 2 0 C2.33 3.63 2.66 7.26 3 11 C2.34 10.34 1.68 9.68 1 9 C0.01 9.495 0.01 9.495 -1 10 C-0.67 6.7 -0.34 3.4 0 0 Z " fill="#D79235" transform="translate(626,1050)"/>
<path d="M0 0 C0.66 0.33 1.32 0.66 2 1 C-1.15221101 5.41309542 -4.55463907 8.00793014 -9 11 C-9.66 10.67 -10.32 10.34 -11 10 C-9.93458984 9.04287109 -9.93458984 9.04287109 -8.84765625 8.06640625 C-7.46900391 6.82697266 -7.46900391 6.82697266 -6.0625 5.5625 C-4.68771484 4.32693359 -4.68771484 4.32693359 -3.28515625 3.06640625 C-1.61665644 1.56046061 -1.61665644 1.56046061 0 0 Z " fill="#F8F2E4" transform="translate(971,1002)"/>
<path d="M0 0 C0.66 0.33 1.32 0.66 2 1 C0.89718873 2.27200971 -0.20730769 3.54255853 -1.3125 4.8125 C-1.92738281 5.52019531 -2.54226563 6.22789062 -3.17578125 6.95703125 C-4.73334335 8.70136739 -6.32658875 10.36778041 -8 12 C-8.66 11.67 -9.32 11.34 -10 11 C-9.52949219 10.54109375 -9.05898438 10.0821875 -8.57421875 9.609375 C-3.96631602 5.08450705 -3.96631602 5.08450705 0 0 Z " fill="#F9F3E7" transform="translate(1013,959)"/>
<path d="M0 0 C0.99 0.33 1.98 0.66 3 1 C1.02 3.31 -0.96 5.62 -3 8 C-3.66 7.34 -4.32 6.68 -5 6 C-3.35 4.02 -1.7 2.04 0 0 Z " fill="#161717" transform="translate(407,257)"/>
<path d="M0 0 C1.75070517 0.11470137 3.50057536 0.24219028 5.25 0.375 C6.22453125 0.44460937 7.1990625 0.51421875 8.203125 0.5859375 C10.89633189 0.98465249 12.66963279 1.63507063 15 3 C13.02 3.99 13.02 3.99 11 5 C10.34 4.34 9.68 3.68 9 3 C8.21625 3.020625 7.4325 3.04125 6.625 3.0625 C3.42135114 2.98622265 2.42767892 1.97830006 0 0 Z " fill="#EFBA5A" transform="translate(723,110)"/>
<path d="M0 0 C0.66 0 1.32 0 2 0 C1.39305845 3.15330554 0.3583335 5.18888867 -1.5625 7.75 C-2.24505859 8.67039062 -2.24505859 8.67039062 -2.94140625 9.609375 C-3.29074219 10.06828125 -3.64007812 10.5271875 -4 11 C-5 8 -5 8 -4.07421875 5.95703125 C-3.61660156 5.24933594 -3.15898438 4.54164063 -2.6875 3.8125 C-2.23761719 3.09707031 -1.78773438 2.38164063 -1.32421875 1.64453125 C-0.88722656 1.10183594 -0.45023438 0.55914063 0 0 Z " fill="#D18A1C" transform="translate(990,918)"/>
<path d="M0 0 C1.23593891 3.70781672 0.5678132 4.67510253 -0.9375 8.1875 C-1.31777344 9.08855469 -1.69804688 9.98960937 -2.08984375 10.91796875 C-2.54037109 11.94857422 -2.54037109 11.94857422 -3 13 C-3.66 12.67 -4.32 12.34 -5 12 C-4.67 10.68 -4.34 9.36 -4 8 C-3.34 8 -2.68 8 -2 8 C-2.04125 7.236875 -2.0825 6.47375 -2.125 5.6875 C-2 3 -2 3 0 0 Z " fill="#CA7F0B" transform="translate(1106,794)"/>
<path d="M0 0 C0 0.66 0 1.32 0 2 C-0.99 2 -1.98 2 -3 2 C-3.33 2.99 -3.66 3.98 -4 5 C-7.5625 6.1875 -7.5625 6.1875 -11 7 C-4.48275862 0 -4.48275862 0 0 0 Z " fill="#E9A72F" transform="translate(598,1105)"/>
<path d="M0 0 C1 3 1 3 0.00390625 5.26171875 C-0.47175781 6.06222656 -0.94742187 6.86273437 -1.4375 7.6875 C-1.91058594 8.49574219 -2.38367187 9.30398438 -2.87109375 10.13671875 C-3.24363281 10.75160156 -3.61617187 11.36648438 -4 12 C-5 9 -5 9 -4.2578125 6.9921875 C-3.88398437 6.29351563 -3.51015625 5.59484375 -3.125 4.875 C-2.75632812 4.17117188 -2.38765625 3.46734375 -2.0078125 2.7421875 C-1 1 -1 1 0 0 Z " fill="#C47C0E" transform="translate(1089,837)"/>
<path d="M0 0 C0.66 0 1.32 0 2 0 C2 3.63 2 7.26 2 11 C1.34 11 0.68 11 0 11 C-0.19406478 9.35492782 -0.38007935 7.70890406 -0.5625 6.0625 C-0.66691406 5.14597656 -0.77132812 4.22945312 -0.87890625 3.28515625 C-0.91886719 2.53105469 -0.95882812 1.77695312 -1 1 C-0.67 0.67 -0.34 0.34 0 0 Z " fill="#EAA52F" transform="translate(623,637)"/>
<path d="M0 0 C1.62580966 0.11398665 3.25067157 0.24155659 4.875 0.375 C5.77992188 0.44460937 6.68484375 0.51421875 7.6171875 0.5859375 C10 1 10 1 12 3 C7.91556885 4.53166168 4.20544343 3.63081652 0 3 C0 2.01 0 1.02 0 0 Z " fill="#EFB041" transform="translate(738,113)"/>
<path d="M0 0 C2.61500768 2.36595933 4.38999603 4.86049226 6 8 C5.67 8.66 5.34 9.32 5 10 C2.49962266 7.82575883 1.56371414 6.26954202 1 3 C0.34 3 -0.32 3 -1 3 C-0.67 2.01 -0.34 1.02 0 0 Z " fill="#916029" transform="translate(757,873)"/>
<path d="M0 0 C0.66 0.33 1.32 0.66 2 1 C1.57630928 2.6286551 1.1355377 4.25287378 0.6875 5.875 C0.44386719 6.77992188 0.20023438 7.68484375 -0.05078125 8.6171875 C-1 11 -1 11 -4 13 C-3.52343588 11.20763933 -3.04366502 9.41613103 -2.5625 7.625 C-2.29566406 6.62726562 -2.02882813 5.62953125 -1.75390625 4.6015625 C-1 2 -1 2 0 0 Z " fill="#F2E2C7" transform="translate(1107,795)"/>
<path d="M0 0 C2.875 -0.1875 2.875 -0.1875 6 0 C6.66 0.99 7.32 1.98 8 3 C5.03 3 2.06 3 -1 3 C-0.67 2.01 -0.34 1.02 0 0 Z " fill="#BF8128" transform="translate(624,763)"/>
<path d="M0 0 C2.875 -0.125 2.875 -0.125 6 0 C6.66 0.66 7.32 1.32 8 2 C7.34 2 6.68 2 6 2 C5.67 4.64 5.34 7.28 5 10 C4.67 10 4.34 10 4 10 C4 7.03 4 4.06 4 1 C2.68 0.67 1.36 0.34 0 0 Z " fill="#CC8614" transform="translate(626,690)"/>
<path d="M0 0 C0.66 0.66 1.32 1.32 2 2 C1.75 3.75 1.75 3.75 1 6 C0.649375 7.0725 0.29875 8.145 -0.0625 9.25 C-0.371875 10.1575 -0.68125 11.065 -1 12 C-1.66 12 -2.32 12 -3 12 C-2.01 8.04 -1.02 4.08 0 0 Z " fill="#252525" transform="translate(770,398)"/>
<path d="M0 0 C3.72433382 1.2125738 7.37802806 2.50859979 11 4 C10.01 4.66 9.02 5.32 8 6 C5.36 4.68 2.72 3.36 0 2 C0 1.34 0 0.68 0 0 Z " fill="#E69E2A" transform="translate(828,140)"/>
<path d="M0 0 C0.66 0.33 1.32 0.66 2 1 C1.67 2.65 1.34 4.3 1 6 C-0.32 5.67 -1.64 5.34 -3 5 C-3 3.68 -3 2.36 -3 1 C-2.01 0.67 -1.02 0.34 0 0 Z " fill="#171718" transform="translate(535,110)"/>
<path d="M0 0 C2.0343459 1.41519715 2.90410393 2.54982123 3.421875 4.98046875 C3.66273952 6.98176954 3.83532741 8.9909944 4 11 C2.29159719 9.36587557 1.06546953 8.13093906 0 6 C-0.039992 4.00039988 -0.04346799 1.99952758 0 0 Z " fill="#D78C16" transform="translate(616,732)"/>
<path d="M0 0 C0.33 0.99 0.66 1.98 1 3 C-1.70879335 4.35439668 -4.00933268 4.06501451 -7 4 C-7 3.34 -7 2.68 -7 2 C-2.25 0 -2.25 0 0 0 Z " fill="#DB9529" transform="translate(631,706)"/>
<path d="M0 0 C0.66 0.99 1.32 1.98 2 3 C-0.1875 5.5625 -0.1875 5.5625 -3 8 C-5.8125 7.8125 -5.8125 7.8125 -8 7 C-5 5 -5 5 -2.875 4.0625 C-0.65504271 3.08091355 -0.65504271 3.08091355 0 0 Z " fill="#E6E5E6" transform="translate(537,112)"/>
<path d="M0 0 C-2.39509338 2.89932357 -4.31245243 3.50168276 -8 4 C-8.33 3.01 -8.66 2.02 -9 1 C-6.04335481 -0.4783226 -3.25770263 -0.06032783 0 0 Z " fill="#E29E2A" transform="translate(740,1111)"/>
<path d="M0 0 C0 3 0 3 -1.53125 4.60546875 C-2.1809375 5.12753906 -2.830625 5.64960937 -3.5 6.1875 C-4.1496875 6.71730469 -4.799375 7.24710938 -5.46875 7.79296875 C-5.9740625 8.19128906 -6.479375 8.58960938 -7 9 C-6.19095897 4.20719998 -3.74015409 2.86479887 0 0 Z " fill="#D8941E" transform="translate(538,828)"/>
<path d="M0 0 C0.66 0 1.32 0 2 0 C0.64978174 4.41889613 -1.26115668 6.34345343 -5 9 C-4.42676569 5.13066838 -2.61046448 2.84777943 0 0 Z " fill="#A86810" transform="translate(704,484)"/>
<path d="M0 0 C0 0.66 0 1.32 0 2 C-5.29411765 6 -5.29411765 6 -9 6 C-9 5.34 -9 4.68 -9 4 C-7.35 3.67 -5.7 3.34 -4 3 C-4 2.34 -4 1.68 -4 1 C-2 0 -2 0 0 0 Z " fill="#BF7D1A" transform="translate(908,1050)"/>
<path d="M0 0 C0 4.38968456 -2.12805101 5.76905739 -5 9 C-5.66 8.67 -6.32 8.34 -7 8 C-4.69 5.36 -2.38 2.72 0 0 Z " fill="#D08B1A" transform="translate(956,966)"/>
<path d="M0 0 C0.66 0.33 1.32 0.66 2 1 C1.75 3.875 1.75 3.875 1 7 C-0.98 7.99 -0.98 7.99 -3 9 C-2.01 6.03 -1.02 3.06 0 0 Z " fill="#CDCDCE" transform="translate(498,792)"/>
<path d="M0 0 C0 0.66 0 1.32 0 2 C-3.19641774 4.39731331 -6.00118212 6.38479725 -10 7 C-3.18421053 0 -3.18421053 0 0 0 Z " fill="#F7B12B" transform="translate(593,790)"/>
<path d="M0 0 C0.66 0.66 1.32 1.32 2 2 C-1.28804981 4.91227269 -3.59885603 6.49701212 -8 7 C-5.42215154 4.35247996 -3.08351902 2.05567935 0 0 Z " fill="#EDA92E" transform="translate(601,783)"/>
<path d="M0 0 C1.125 1.75 1.125 1.75 2 4 C1.05773345 6.66975522 0.01384202 7.98615798 -2 10 C-1.54177532 6.53058454 -1.10868317 3.32604951 0 0 Z " fill="#F3E5CD" transform="translate(1115,770)"/>
<path d="M0 0 C0.33 0.99 0.66 1.98 1 3 C-1.3125 5.5 -1.3125 5.5 -4 8 C-4.99 8 -5.98 8 -7 8 C-4.69 5.36 -2.38 2.72 0 0 Z " fill="#DDDDDE" transform="translate(553,711)"/>
<path d="M0 0 C3.82097239 0.53069061 6.06171403 1.49701566 9 4 C8.01 4.33 7.02 4.66 6 5 C2.8125 3.125 2.8125 3.125 0 1 C0 0.67 0 0.34 0 0 Z " fill="#F0AA2E" transform="translate(779,137)"/>
<path d="M0 0 C0.66 0.66 1.32 1.32 2 2 C0.02 3.32 -1.96 4.64 -4 6 C-4.99 5.34 -5.98 4.68 -7 4 C-4.69 2.68 -2.38 1.36 0 0 Z " fill="#EAA935" transform="translate(600,99)"/>
<path d="M0 0 C-0.6875 1.9375 -0.6875 1.9375 -2 4 C-4.5 4.875 -4.5 4.875 -7 5 C-7.66 4.34 -8.32 3.68 -9 3 C-2.25 0 -2.25 0 0 0 Z " fill="#E0A237" transform="translate(793,1090)"/>
<path d="M0 0 C0.99 0.33 1.98 0.66 3 1 C1.35 2.98 -0.3 4.96 -2 7 C-2.33 6.01 -2.66 5.02 -3 4 C-1.5625 1.8125 -1.5625 1.8125 0 0 Z " fill="#9C6217" transform="translate(718,465)"/>
<path d="M0 0 C0.66 0.33 1.32 0.66 2 1 C-0.25 3.0625 -0.25 3.0625 -3 5 C-5.3125 4.75 -5.3125 4.75 -7 4 C-1.7265625 0.77734375 -1.7265625 0.77734375 0 0 Z " fill="#B66F06" transform="translate(856,1065)"/>
<path d="M0 0 C0.99 0 1.98 0 3 0 C3.99 1.98 4.98 3.96 6 6 C4.125 5.8125 4.125 5.8125 2 5 C0.75 2.4375 0.75 2.4375 0 0 Z " fill="#191818" transform="translate(271,927)"/>
<path d="M0 0 C0.66 0.33 1.32 0.66 2 1 C0.7260411 3.03833424 -0.61061923 5.03852126 -2 7 C-2.66 7 -3.32 7 -4 7 C-3.39816251 4.97954558 -2.72693904 2.97888961 -2 1 C-1.34 0.67 -0.68 0.34 0 0 Z " fill="#AA6917" transform="translate(497,876)"/>
<path d="M0 0 C0.66 0.33 1.32 0.66 2 1 C1.01 2.485 1.01 2.485 0 4 C-0.66 4 -1.32 4 -2 4 C-2.33 4.99 -2.66 5.98 -3 7 C-3.99 6.67 -4.98 6.34 -6 6 C-4.02 4.02 -2.04 2.04 0 0 Z " fill="#F0F0F0" transform="translate(754,512)"/>
<path d="M0 0 C0.66 0 1.32 0 2 0 C2.99 1.98 3.98 3.96 5 6 C3.68 5.67 2.36 5.34 1 5 C0.67 3.35 0.34 1.7 0 0 Z " fill="#C0750B" transform="translate(520,439)"/>
<path d="M0 0 C1.23556641 0.01740234 1.23556641 0.01740234 2.49609375 0.03515625 C3.32238281 0.04417969 4.14867187 0.05320312 5 0.0625 C5.63808594 0.07410156 6.27617188 0.08570313 6.93359375 0.09765625 C6.93359375 0.42765625 6.93359375 0.75765625 6.93359375 1.09765625 C5.84046875 1.22140625 4.74734375 1.34515625 3.62109375 1.47265625 C-0.14022427 1.85230426 -0.14022427 1.85230426 -3.06640625 4.09765625 C-3.06640625 0.14491523 -3.06640625 0.14491523 0 0 Z " fill="#C47B12" transform="translate(522.06640625,427.90234375)"/>
<path d="M0 0 C0.99 0.33 1.98 0.66 3 1 C3.70381157 2.98723268 4.3711811 4.98777953 5 7 C5.66 7.33 6.32 7.66 7 8 C6.01 8 5.02 8 4 8 C0 2.74285714 0 2.74285714 0 0 Z " fill="#C67D11" transform="translate(985,310)"/>
</svg>
