<?xml version="1.0" standalone="no"?>
<!DOCTYPE svg PUBLIC "-//W3C//DTD SVG 20010904//EN"
 "http://www.w3.org/TR/2001/REC-SVG-20010904/DTD/svg10.dtd">
<svg version="1.0" xmlns="http://www.w3.org/2000/svg"
 width="25pt" height="100pt" viewBox="0 0 1024.000000 1024.000000"
 preserveAspectRatio="xMidYMid meet">
<metadata>
Created by potrace 1.16, written by Peter Selinger 2001-2019
</metadata>
<g transform="translate(0.000000,1024.000000) scale(0.100000,-0.100000)"
fill="#000000" stroke="none">
<path d="M4880 9643 c-378 -27 -744 -114 -1113 -264 -67 -28 -147 -60 -177
-71 -179 -69 -480 -244 -693 -405 -390 -293 -768 -729 -1004 -1158 -57 -103
-171 -343 -212 -449 -117 -296 -214 -692 -253 -1031 -16 -147 -16 -627 0 -785
46 -431 162 -859 337 -1242 277 -603 753 -1165 1280 -1512 491 -324 1050 -538
1571 -602 187 -23 548 -23 739 0 1049 125 1955 690 2562 1596 512 765 740
1755 618 2683 -96 727 -378 1398 -822 1952 -112 140 -356 390 -498 510 -407
343 -900 599 -1347 699 -311 70 -694 100 -988 79z m450 -579 c400 -45 779
-175 1140 -391 227 -136 402 -276 615 -495 191 -194 297 -331 424 -541 405
-672 553 -1467 426 -2288 -85 -549 -327 -1096 -679 -1534 -312 -388 -723 -712
-1138 -897 -211 -95 -498 -180 -727 -217 -682 -111 -1395 36 -1965 406 -171
111 -305 220 -461 377 -360 362 -620 790 -780 1290 -75 229 -129 492 -157 746
-17 165 -14 545 5 713 66 551 248 1064 533 1500 269 411 677 797 1089 1029
108 61 309 149 425 186 185 59 498 116 745 136 87 7 365 -4 505 -20z"/>
<path d="M3760 8474 c-130 -48 -134 -53 -138 -167 -4 -112 14 -150 75 -166 21
-5 189 -12 373 -16 387 -7 904 -19 1763 -41 535 -13 614 -13 655 0 26 8 72 17
101 21 106 12 131 45 131 171 0 87 -10 117 -46 141 -30 19 -42 20 -1089 48
-330 9 -829 22 -1110 30 -280 8 -535 15 -565 14 -36 -1 -88 -13 -150 -35z"/>
<path d="M3988 7986 c-157 -36 -163 -47 -162 -281 2 -312 70 -574 235 -911
118 -241 264 -454 481 -704 67 -78 131 -156 140 -173 18 -32 24 -100 12 -132
-4 -9 -65 -87 -136 -173 -146 -178 -254 -328 -346 -482 -226 -376 -362 -811
-362 -1158 0 -183 19 -215 150 -258 98 -32 68 -32 600 -9 1480 63 1792 80
1836 101 55 26 68 62 72 199 13 406 -169 932 -464 1345 -81 115 -218 284 -293
363 -54 57 -55 60 -59 125 -4 76 -8 69 121 223 268 318 486 700 592 1038 70
223 112 494 101 660 -6 104 -25 153 -69 185 -27 20 -47 21 -335 28 -442 10
-1930 38 -1977 37 -22 0 -83 -10 -137 -23z m1417 -302 c504 -12 663 -19 674
-29 11 -10 11 -32 1 -121 -20 -188 -74 -389 -149 -557 -31 -70 -46 -86 -64
-68 -12 12 -1268 16 -1339 5 -23 -4 -38 -12 -38 -20 0 -20 -24 -17 -42 4 -23
26 -92 193 -137 329 -47 143 -69 252 -78 381 l-6 92 259 0 c142 0 556 -7 919
-16z m273 -1146 c-54 -98 -274 -375 -306 -386 -21 -7 12 64 59 125 22 30 75
91 117 136 43 45 90 99 106 120 31 41 46 44 24 5z m-838 -173 c127 -142 150
-173 150 -202 0 -33 -21 -20 -61 35 -18 26 -58 74 -89 107 -54 58 -120 149
-120 167 0 22 26 -1 120 -107z m405 -651 c37 -5 43 -11 68 -57 15 -29 75 -104
135 -167 141 -152 203 -229 302 -380 187 -283 319 -640 337 -906 6 -92 6 -93
-18 -98 -33 -7 -318 -25 -589 -36 -999 -43 -1204 -50 -1214 -40 -7 7 -6 37 3
98 67 469 323 969 718 1404 51 56 77 94 93 139 l23 61 51 -6 c28 -4 69 -9 91
-12z"/>
<path d="M5044 5412 c-71 -52 -245 -225 -329 -327 -103 -126 -154 -203 -215
-330 -74 -155 -101 -251 -107 -382 -7 -144 -2 -152 99 -178 72 -17 87 -17 658
4 322 12 634 25 694 29 l110 7 9 35 c13 49 -6 204 -39 315 -69 238 -281 539
-533 755 -114 98 -119 100 -219 100 -82 0 -92 -2 -128 -28z"/>
<path d="M6380 3704 c-8 -2 -163 -10 -345 -19 -181 -8 -503 -24 -715 -35 -212
-11 -515 -27 -675 -35 -884 -45 -899 -46 -935 -63 -54 -26 -72 -70 -68 -169 4
-120 7 -122 210 -206 21 -8 107 -7 350 6 178 10 530 29 783 42 479 26 986 55
1405 81 271 16 291 22 322 84 38 74 15 210 -40 242 -72 43 -240 84 -292 72z"/>
<path d="M3735 1806 c-65 -29 -90 -75 -101 -185 l-7 -71 -43 0 -44 0 0 -40 0
-40 45 0 45 0 0 -255 0 -255 55 0 55 0 0 255 0 255 60 0 60 0 0 40 0 40 -60 0
-60 0 0 64 c0 85 23 116 86 116 l44 0 0 45 0 45 -52 0 c-29 -1 -66 -7 -83 -14z"/>
<path d="M1880 1747 c0 -35 3 -105 6 -155 l7 -92 38 0 39 0 0 48 c0 27 3 97 7
155 l6 107 -51 0 -52 0 0 -63z"/>
<path d="M2070 1723 c0 -49 3 -118 7 -155 l6 -68 38 0 39 0 0 63 c0 35 3 105
6 155 l7 92 -52 0 -51 0 0 -87z"/>
<path d="M7820 1649 l0 -161 -35 30 c-82 73 -256 46 -329 -51 -40 -53 -58
-107 -63 -193 -10 -145 41 -254 140 -300 90 -41 192 -29 252 32 l35 35 0 -41
0 -40 50 0 50 0 0 425 0 425 -50 0 -50 0 0 -161z m-82 -190 c18 -6 41 -26 54
-47 20 -33 23 -50 23 -147 0 -92 -3 -117 -21 -149 -25 -49 -74 -76 -137 -76
-86 0 -140 53 -157 154 -31 193 82 320 238 265z"/>
<path d="M8073 1703 c4 -58 7 -128 7 -155 l0 -48 39 0 38 0 7 92 c3 50 6 120
6 155 l0 63 -52 0 -51 0 6 -107z"/>
<path d="M8260 1768 c0 -24 3 -94 7 -155 l6 -113 37 0 37 0 6 107 c4 58 7 128
7 155 l0 48 -50 0 -50 0 0 -42z"/>
<path d="M5529 1767 c-181 -52 -279 -214 -266 -442 13 -245 164 -391 384 -372
83 7 131 26 183 73 l39 35 3 -48 3 -48 43 -3 42 -3 0 220 0 221 -165 0 -165 0
0 -45 0 -45 110 0 110 0 0 -52 c0 -58 -33 -140 -68 -171 -48 -44 -155 -59
-236 -35 -23 7 -59 30 -82 54 -127 126 -120 424 12 532 69 57 196 67 282 23
40 -20 92 -82 92 -108 0 -9 17 -13 55 -13 62 0 64 4 36 66 -48 105 -146 164
-285 170 -48 2 -100 -1 -127 -9z"/>
<path d="M2322 1371 c-78 -219 -142 -402 -142 -405 0 -4 24 -6 52 -4 l53 3 41
115 42 115 162 0 162 0 18 -45 c9 -25 29 -78 44 -117 l28 -73 54 0 c30 0 54 3
54 8 0 4 -66 186 -147 405 l-148 397 -66 0 -65 0 -142 -399z m278 103 c33 -94
60 -174 60 -177 0 -4 -59 -7 -131 -7 -100 0 -130 3 -126 13 2 6 31 94 63 194
39 122 61 176 66 165 4 -9 35 -94 68 -188z"/>
<path d="M3020 1365 l0 -405 55 0 55 0 0 405 0 405 -55 0 -55 0 0 -405z"/>
<path d="M4100 1551 c-76 -23 -136 -78 -172 -156 -18 -40 -23 -67 -23 -140 0
-82 3 -97 32 -156 52 -106 148 -158 267 -146 150 15 242 135 240 314 -1 140
-64 237 -181 279 -41 14 -123 17 -163 5z m160 -103 c56 -39 75 -88 75 -198 0
-77 -4 -101 -20 -129 -50 -85 -158 -110 -234 -53 -89 66 -99 273 -18 360 30
32 52 41 113 41 37 1 60 -5 84 -21z"/>
<path d="M4805 1545 c-23 -8 -58 -33 -82 -60 l-43 -47 0 56 0 56 -50 0 -50 0
0 -295 0 -295 50 0 50 0 0 138 c0 158 12 246 38 282 28 37 77 67 122 75 l40 7
0 49 c0 55 -6 58 -75 34z"/>
<path d="M6291 1549 c-84 -26 -157 -102 -181 -189 -15 -54 -12 -172 7 -229 44
-139 187 -210 334 -168 114 34 180 128 187 271 5 97 -7 148 -51 212 -47 70
-110 106 -194 110 -38 2 -83 -1 -102 -7z m184 -119 c93 -90 80 -308 -21 -371
-29 -17 -46 -21 -95 -17 -51 4 -64 9 -95 39 -91 89 -81 307 19 370 25 16 45
19 94 17 56 -4 67 -8 98 -38z"/>
<path d="M6942 1551 c-137 -35 -222 -196 -192 -363 13 -72 28 -104 72 -153 52
-60 101 -80 193 -80 63 0 89 5 120 22 201 107 208 449 12 551 -52 27 -147 37
-205 23z m159 -104 c54 -35 83 -105 82 -196 0 -84 -20 -136 -67 -180 -39 -36
-131 -42 -181 -11 -59 37 -80 89 -80 200 0 108 16 148 75 187 46 31 124 31
171 0z"/>
</g>
</svg>
